<svg width="24" height="20" viewBox="0 0 24 20" fill="none" xmlns="http://www.w3.org/2000/svg">
<path fill-rule="evenodd" clip-rule="evenodd" d="M6.609 2.013C8.10822 0.720203 10.0204 0.00620777 12 0C16.035 0 19.3845 3 19.749 6.8685C22.137 7.206 24 9.2055 24 11.6595C24 14.3535 21.753 16.5 19.0305 16.5H15C14.8011 16.5 14.6103 16.421 14.4697 16.2803C14.329 16.1397 14.25 15.9489 14.25 15.75C14.25 15.5511 14.329 15.3603 14.4697 15.2197C14.6103 15.079 14.8011 15 15 15H19.032C20.9685 15 22.5 13.482 22.5 11.6595C22.5 9.8355 20.97 8.3175 19.0305 8.3175H18.2805V7.5675C18.282 4.2375 15.492 1.5 12 1.5C10.3798 1.50647 8.81526 2.09165 7.5885 3.15C6.453 4.128 5.859 5.307 5.859 6.2325V6.9045L5.1915 6.978C3.096 7.2075 1.5 8.928 1.5 10.977C1.5 13.1775 3.345 15 5.6715 15H9C9.19891 15 9.38968 15.079 9.53033 15.2197C9.67098 15.3603 9.75 15.5511 9.75 15.75C9.75 15.9489 9.67098 16.1397 9.53033 16.2803C9.38968 16.421 9.19891 16.5 9 16.5H5.6715C2.562 16.5 0 14.049 0 10.977C0 8.3325 1.899 6.1425 4.413 5.5875C4.6275 4.293 5.46 3.003 6.609 2.013Z" fill="#CCCCCC"/>
<path fill-rule="evenodd" clip-rule="evenodd" d="M11.8127 9.46333C11.8542 9.42171 11.9035 9.38869 11.9578 9.36616C12.0121 9.34363 12.0703 9.33203 12.1291 9.33203C12.1879 9.33203 12.2461 9.34363 12.3004 9.36616C12.3547 9.38869 12.404 9.42171 12.4455 9.46333L15.1271 12.1449C15.211 12.2289 15.2582 12.3427 15.2582 12.4614C15.2582 12.58 15.211 12.6939 15.1271 12.7778C15.0432 12.8617 14.9294 12.9089 14.8107 12.9089C14.692 12.9089 14.5782 12.8617 14.4943 12.7778L12.576 10.8587V18.7184C12.576 18.837 12.5289 18.9506 12.4451 19.0345C12.3613 19.1183 12.2476 19.1654 12.1291 19.1654C12.0106 19.1654 11.8969 19.1183 11.8131 19.0345C11.7293 18.9506 11.6822 18.837 11.6822 18.7184V10.8587L9.76393 12.7778C9.68 12.8617 9.56618 12.9089 9.4475 12.9089C9.32881 12.9089 9.21499 12.8617 9.13107 12.7778C9.04715 12.6939 9 12.58 9 12.4614C9 12.3427 9.04715 12.2289 9.13107 12.1449L11.8127 9.46333Z" fill="#FFC233"/>
</svg>
