<svg width="12" height="9" viewBox="0 0 12 9" fill="none" xmlns="http://www.w3.org/2000/svg">
<path fill-rule="evenodd" clip-rule="evenodd" d="M0.375 4.89776C0.582107 4.89776 0.75 5.05081 0.75 5.23961V7.63258C0.75 8.01018 1.08579 8.31629 1.5 8.31629H10.5C10.9142 8.31629 11.25 8.01018 11.25 7.63258V5.23961C11.25 5.05081 11.4179 4.89776 11.625 4.89776C11.8321 4.89776 12 5.05081 12 5.23961V7.63258C12 8.38778 11.3284 8.99999 10.5 8.99999H1.5C0.671573 8.99999 0 8.38778 0 7.63258V5.23961C0 5.05081 0.167893 4.89776 0.375 4.89776Z" fill="#16192C"/>
<path fill-rule="evenodd" clip-rule="evenodd" d="M3.74999 2.74652C3.89644 2.88002 4.13388 2.88002 4.28032 2.74652L5.99999 1.17885L7.71967 2.74653C7.86611 2.88003 8.10355 2.88003 8.24999 2.74653C8.39644 2.61303 8.39644 2.39658 8.24999 2.26308L6.26516 0.453673C6.11871 0.320171 5.88128 0.320171 5.73483 0.453673L3.74999 2.26306C3.60355 2.39656 3.60355 2.61301 3.74999 2.74652Z" fill="#16192C"/>
<path fill-rule="evenodd" clip-rule="evenodd" d="M6 0.795525C6.20711 0.795525 6.375 0.948578 6.375 1.13738V6.60702C6.375 6.79582 6.20711 6.94887 6 6.94887C5.79289 6.94887 5.625 6.79582 5.625 6.60702V1.13738C5.625 0.948578 5.79289 0.795525 6 0.795525Z" fill="#16192C"/>
</svg>
