<svg width="48" height="24" viewBox="0 0 48 24" fill="none" xmlns="http://www.w3.org/2000/svg">
<rect width="48" height="24" rx="2" fill="#FBFAF8"/>
<path fill-rule="evenodd" clip-rule="evenodd" d="M28.7194 16.9494C28.4907 17.4557 29.0478 17.1254 29.1161 17.0676C29.8674 16.4378 30.4203 14.5477 30.0803 14.2587C29.6511 13.8953 27.6603 13.8985 26.7779 14.4949C26.4092 14.7448 26.6158 14.7933 27.0047 14.7714C27.6851 14.7315 28.2961 14.6903 28.8187 14.7315C29.3146 14.7714 29.3425 14.9951 29.2153 15.4795C29.0676 16.0428 28.9746 16.3857 28.7194 16.9494Z" fill="#FBAF29"/>
<path fill-rule="evenodd" clip-rule="evenodd" d="M27.9039 15.4272C22.7673 17.3697 16.8406 17.1 11.9657 14.7195C11.8982 14.6868 11.6594 14.5601 11.3872 14.4337C11.1744 14.3356 11.134 14.368 11.0995 14.4028C11.0519 14.4505 11.0701 14.5371 11.1457 14.6003C14.0084 16.9891 17.4504 18.1377 21.2084 17.9869C24.0766 17.8713 26.7497 16.8971 28.2804 15.8602C28.5064 15.7069 28.587 15.508 28.4932 15.4146C28.3967 15.3184 28.1423 15.3367 27.9039 15.4272Z" fill="#FBAF29"/>
<path fill-rule="evenodd" clip-rule="evenodd" d="M34.0565 8.00015C35.5325 7.98435 36.5963 9.26007 36.5971 10.9387C36.5979 12.5688 35.5616 13.8517 34.0829 13.889C32.5972 13.926 31.5175 12.6366 31.5159 10.9505C31.5136 9.30603 32.572 8.0163 34.0565 8.00015ZM19.6398 9.13372C19.6398 8.07881 17.2977 7.36214 16.5452 8.93085C15.9594 7.71078 14.1089 7.75099 13.6049 8.94018L13.6053 8.31758C13.6053 8.22315 13.5123 8.13698 13.4099 8.13698H12.3592C12.2573 8.13698 12.1642 8.22315 12.1642 8.31758V13.5817C12.1642 13.6761 12.2573 13.7627 12.3592 13.7627H13.4886C13.5906 13.7627 13.6809 13.6761 13.6809 13.5817V10.2436C13.6809 9.86691 13.853 9.44143 14.2838 9.35346C14.7575 9.25615 15.1441 9.49887 15.1441 10.0059L15.1437 13.5817C15.1437 13.6761 15.2367 13.7627 15.3387 13.7627H16.4871C16.5894 13.7627 16.6825 13.6761 16.6825 13.5817L16.6829 10.0349C16.6829 9.23066 18.1274 9.02277 18.1278 10.0349V13.5817C18.1278 13.6761 18.2205 13.7627 18.3228 13.7627H19.4448C19.5472 13.7627 19.6398 13.6761 19.6398 13.5817V9.13372ZM30.8703 8.32637C30.8703 8.23194 30.7773 8.14648 30.6753 8.14648H26.9608C26.9092 8.14648 26.858 8.16623 26.822 8.19927C26.7855 8.23338 26.7693 8.28041 26.7693 8.32817V9.05956C26.7693 9.15327 26.8681 9.23693 26.9697 9.23693H28.9221L26.6975 12.2537C26.5837 12.408 26.5892 12.5102 26.5916 12.5551L26.5919 12.5616L26.5921 12.5686L26.594 13.4081C26.594 13.588 26.6661 13.6684 26.8891 13.5811C28.2495 13.0487 29.6991 13.0171 30.7916 13.6224C30.8808 13.6723 30.989 13.6181 30.989 13.4774L30.9893 12.5349C30.9893 12.4738 30.9537 12.4142 30.8978 12.3826C30.2667 12.0139 29.4641 11.9151 28.6853 11.9263L30.7653 9.24878C30.8649 9.1206 30.8703 8.98308 30.8703 8.9461V8.32637ZM42 9.52409C42 8.68965 41.4546 8.00026 40.1779 8.03652C39.5855 8.0534 39.1237 8.47062 38.8671 9.06091V8.30258C38.8671 8.20743 38.774 8.12162 38.672 8.12162H37.5818C37.4799 8.12162 37.3872 8.20743 37.3872 8.30258V13.5864C37.3872 13.6809 37.4799 13.7667 37.5818 13.7667H38.7217C38.824 13.7667 38.9171 13.6809 38.9171 13.5864V10.2673C38.9171 9.77327 39.3746 9.35605 39.796 9.34097C40.1437 9.32912 40.4915 9.63827 40.4915 9.98763V13.5864C40.4915 13.6809 40.5846 13.7667 40.6865 13.7667H41.8054C41.9074 13.7667 42.0004 13.6809 42 13.5864V9.52409ZM23.0048 8.01154C24.6118 7.95912 25.4415 8.52463 25.4415 9.41221V11.8753C25.4415 12.0602 25.5012 12.3855 25.5613 12.4584L25.8567 12.8186C25.911 12.8886 25.9005 12.9949 25.8331 13.0552L25.0298 13.7658C24.9922 13.7991 24.9398 13.8175 24.8879 13.816C24.8359 13.8142 24.7847 13.792 24.7498 13.7564L24.133 13.1202C23.7038 13.5629 23.1374 13.8196 22.488 13.8516C21.3982 13.9033 20.5992 13.3722 20.6181 12.2588C20.6383 11.0491 21.6118 10.4176 22.6574 10.3436L23.8938 10.2567V9.74326C23.8938 9.35117 23.6251 9.05531 23.0048 9.05531C22.5888 9.05531 22.305 9.31167 22.2329 9.65744C22.2135 9.7447 22.1154 9.8104 22.0193 9.80107L21.0186 9.69479C20.9651 9.68904 20.9143 9.66211 20.8829 9.6219C20.8512 9.58133 20.8387 9.52819 20.8496 9.47899C21.0904 8.381 22.0239 8.04313 23.0048 8.01154ZM10.8237 9.41085C10.8237 8.52291 9.99439 7.9574 8.38739 8.00982C7.40612 8.04177 6.47255 8.37964 6.23179 9.47799C6.22093 9.52647 6.23334 9.57996 6.26513 9.62018C6.29692 9.66075 6.34732 9.6884 6.40082 9.69414L7.40186 9.79935C7.49762 9.80976 7.59571 9.74405 7.61509 9.65608C7.6872 9.31031 7.971 9.05467 8.38739 9.05467C9.00731 9.05467 9.27599 9.34981 9.27599 9.74154V10.2557L8.03962 10.3422C6.994 10.4158 6.02049 11.0474 6.00033 12.2571C5.98133 13.3716 6.78038 13.9023 7.8702 13.8498C8.51959 13.819 9.08602 13.5622 9.5152 13.1185L10.1324 13.7551C10.1669 13.7902 10.2181 13.8129 10.27 13.8154C10.322 13.8168 10.3747 13.7985 10.4119 13.7651L11.2156 13.0538C11.2827 12.9939 11.2936 12.8872 11.2389 12.8172L10.9435 12.4578C10.8834 12.3838 10.8237 12.0589 10.8237 11.874V9.41085ZM34.0565 12.8036C34.8858 12.8036 34.9253 11.9774 34.9253 10.957C34.9253 9.93688 34.8331 9.1211 34.0565 9.10925C33.2532 9.09741 33.1877 9.93688 33.1877 10.957C33.1877 11.9774 33.2664 12.8036 34.0565 12.8036ZM23.907 11.0349V11.7193C23.907 12.25 23.5271 12.702 23.2127 12.7893C22.5931 12.9627 22.1911 12.5167 22.2062 12.0413C22.2256 11.4406 22.7959 11.0744 23.2774 11.0579L23.907 11.0349ZM9.28921 11.7179V11.0343L8.65959 11.0562C8.17807 11.0738 7.60776 11.4393 7.58838 12.0397C7.57326 12.5154 7.9753 12.961 8.59484 12.7879C8.90926 12.7007 9.28921 12.2483 9.28921 11.7179Z" fill="#2A2D2E"/>
</svg>
