<svg width="48" height="24" viewBox="0 0 48 24" fill="none" xmlns="http://www.w3.org/2000/svg">
<rect width="48" height="24" rx="2" fill="#FBFAF8"/>
<path fill-rule="evenodd" clip-rule="evenodd" d="M19.6584 11.0449H22.0894L18.4547 3H15.6466L12 11.0449H14.3829L15.088 9.40164H18.9533L19.6584 11.0449ZM28.58 11.0449H26.6964L24.4601 5.09142V11.0449H22.3198V3H25.7598L27.6684 8.12559L29.565 3H32.9689V11.0449H30.8296V5.09142L28.58 11.0449ZM23.4573 12.9551V14.7595H18.6925V16.0699H23.3481V17.8275H18.6925V19.1957H23.4573V21H16.5281V12.9551H23.4573ZM33.0007 21H30.2898L28.272 18.5055L26.2662 21H23.6284L27.0194 16.9885L23.6164 12.9551H26.3263L28.3321 15.426L30.3379 12.9551H32.9766L29.5727 16.943L33.0007 21ZM17.0083 4.89626L15.8289 7.65448H18.1997L17.0083 4.89626Z" fill="#006FAC"/>
</svg>
