<svg width="65" height="29" viewBox="0 0 65 29" fill="none" xmlns="http://www.w3.org/2000/svg">
<path d="M7.50679 28.958H0.947184L10.9421 0.00527868H18.8306L28.8114 28.958H22.2518L14.9994 6.62143H14.7732L7.50679 28.958ZM7.09681 17.5777H22.591V22.356H7.09681V17.5777ZM32.2961 28.958V0.00527868H43.7189C45.9149 0.00527868 47.7857 0.424679 49.3313 1.26348C50.877 2.09285 52.0551 3.24738 52.8656 4.72706C53.6855 6.19732 54.0955 7.89377 54.0955 9.81641C54.0955 11.7391 53.6808 13.4355 52.8515 14.9058C52.0221 16.376 50.8204 17.5211 49.2465 18.3411C47.682 19.161 45.7876 19.571 43.5634 19.571H36.2828V14.6654H42.5738C43.7519 14.6654 44.7226 14.4628 45.486 14.0575C46.2589 13.6428 46.8338 13.0726 47.2108 12.3469C47.5972 11.6118 47.7904 10.7683 47.7904 9.81641C47.7904 8.85509 47.5972 8.01629 47.2108 7.30001C46.8338 6.57431 46.2589 6.01354 45.486 5.6177C44.7132 5.21244 43.733 5.0098 42.5455 5.0098H38.4175V28.958H32.2961ZM64.1929 0.00527868V28.958H58.0716V0.00527868H64.1929Z" fill="#FFAF0B"/>
</svg>
