<svg width="854" height="1117" viewBox="0 0 854 1117" fill="none" xmlns="http://www.w3.org/2000/svg">
<path d="M0 0H854V1117H0V0Z" fill="#35389D"/>
<g clip-path="url(#clip0_647_14926)">
<path d="M-466.029 -565.792L-463.774 -564.962C-463.774 -564.962 387.255 -221.859 594.766 -64.0126C802.276 93.8329 785.452 397.459 603.244 570.434C421.036 743.41 101.203 759.381 -65.0679 562.386C-231.339 365.39 -592.757 -442.514 -592.757 -442.514L-593.631 -444.655C-612.726 -491.393 -625.266 -522.083 -586.426 -558.953C-547.588 -595.823 -515.261 -583.92 -466.029 -565.792Z" fill="#7047EB"/>
</g>
<g clip-path="url(#clip1_647_14926)">
<path d="M-399.504 -347.054L-398.112 -346.543C-398.112 -346.543 126.719 -135.175 254.665 -37.8759C382.611 59.4236 372.125 246.721 259.667 353.479C147.211 460.238 -50.0839 470.193 -152.577 348.73C-255.07 227.268 -477.719 -270.969 -477.719 -270.969L-478.258 -272.29C-490.02 -301.114 -497.744 -320.041 -473.773 -342.796C-449.803 -365.552 -429.866 -358.22 -399.504 -347.054Z" fill="#FCC5F3"/>
</g>
<g clip-path="url(#clip2_647_14926)">
<path d="M-416.821 1775.04L-416.154 1773.4C-416.154 1773.4 -140.75 1157.47 -14.0143 1007.3C112.721 857.132 356.584 869.367 495.545 1001.29C634.507 1133.21 647.395 1364.71 489.208 1485.03C331.021 1605.34 -317.786 1866.79 -317.786 1866.79L-319.505 1867.42C-357.038 1881.23 -381.685 1890.31 -411.305 1862.18C-440.925 1834.07 -431.371 1810.67 -416.821 1775.04Z" fill="#2DCA72"/>
</g>
<g clip-path="url(#clip3_647_14926)">
<path d="M685.474 522.077L687.449 522.804C687.449 522.804 1432.89 823.195 1614.64 961.43C1796.39 1099.66 1781.59 1365.65 1621.92 1517.22C1462.27 1668.79 1182.08 1682.84 1036.47 1510.3C890.854 1337.77 574.429 630.097 574.429 630.097L573.663 628.222C556.946 587.283 545.968 560.401 580 528.093C614.032 495.786 642.349 506.207 685.474 522.077Z" fill="#00ACFF"/>
</g>
<defs>
<clipPath id="clip0_647_14926">
<rect width="854" height="886.168" fill="white"/>
</clipPath>
<clipPath id="clip1_647_14926">
<rect width="464.956" height="548.366" fill="white"/>
</clipPath>
<clipPath id="clip2_647_14926">
<rect width="749.622" height="355.819" fill="white" transform="translate(0 761.181)"/>
</clipPath>
<clipPath id="clip3_647_14926">
<rect width="565.775" height="864.774" fill="white" transform="translate(288.225 252.226)"/>
</clipPath>
</defs>
</svg>
