<svg width="49" height="22" viewBox="0 0 49 22" fill="none" xmlns="http://www.w3.org/2000/svg">
<rect x="0.383789" y="-1.12354" width="48" height="24" rx="2" fill="#FBFAF8"/>
<path d="M30.6663 9.1665H17.333C17.0597 9.1665 16.833 8.93984 16.833 8.6665C16.833 8.39317 17.0597 8.1665 17.333 8.1665H30.6663C30.9397 8.1665 31.1663 8.39317 31.1663 8.6665C31.1663 8.93984 30.9397 9.1665 30.6663 9.1665Z" fill="#292D32"/>
<path d="M21.3333 14.4998H20C19.7267 14.4998 19.5 14.2731 19.5 13.9998C19.5 13.7264 19.7267 13.4998 20 13.4998H21.3333C21.6067 13.4998 21.8333 13.7264 21.8333 13.9998C21.8333 14.2731 21.6067 14.4998 21.3333 14.4998Z" fill="#292D32"/>
<path d="M25.6667 14.4998H23C22.7267 14.4998 22.5 14.2731 22.5 13.9998C22.5 13.7264 22.7267 13.4998 23 13.4998H25.6667C25.94 13.4998 26.1667 13.7264 26.1667 13.9998C26.1667 14.2731 25.94 14.4998 25.6667 14.4998Z" fill="#292D32"/>
<path d="M27.7063 17.1663H20.293C17.6397 17.1663 16.833 16.3663 16.833 13.7397V8.25967C16.833 5.63301 17.6397 4.83301 20.293 4.83301H27.6997C30.353 4.83301 31.1597 5.63301 31.1597 8.25967V13.733C31.1663 16.3663 30.3597 17.1663 27.7063 17.1663ZM20.293 5.83301C18.1997 5.83301 17.833 6.19301 17.833 8.25967V13.733C17.833 15.7997 18.1997 16.1597 20.293 16.1597H27.6997C29.793 16.1597 30.1597 15.7997 30.1597 13.733V8.25967C30.1597 6.19301 29.793 5.83301 27.6997 5.83301H20.293Z" fill="#292D32"/>
</svg>
