<svg width="23" height="22" viewBox="0 0 23 22" fill="none" xmlns="http://www.w3.org/2000/svg">
<path d="M3.82929 2.00475C3.5757 1.39685 2.98017 1.00222 2.3215 1.00561L0.999945 1.01242C0.447647 1.01527 0.00218578 1.46523 0.00488255 2.01753C0.00757953 2.56987 0.457478 3.01547 1.00982 3.01286L1.24942 3.01173C1.75201 3.00936 2.20631 3.31063 2.39969 3.77453L4.5057 8.82671C5.05102 10.1349 4.92879 11.6262 4.17773 12.8281C3.77773 13.4681 3.75705 14.2765 4.12305 14.9355C4.48905 15.5945 5.1835 16.0039 5.9375 16.0039H16.9961C17.5484 16.0039 17.9961 15.5562 17.9961 15.0039C17.9961 14.4516 17.5484 14.0039 16.9961 14.0039H6.00463C5.96323 14.0039 5.9251 13.9814 5.90515 13.9451C5.88533 13.909 5.88654 13.8651 5.90833 13.8302L6.4775 12.9188C6.83289 12.3497 7.45649 12.0039 8.12746 12.0039H14.5176C15.2446 12.0039 15.9136 11.6086 16.2656 10.9746L19.8691 4.49023C20.0421 4.18023 20.0374 3.80209 19.8574 3.49609C19.6774 3.19109 19.3481 3.00391 18.9941 3.00391H5.3287C4.67308 3.00391 4.08171 2.60984 3.82929 2.00475ZM6.52099 8.4657C5.83463 6.81895 7.04451 5.00391 8.82858 5.00391H13.0465C14.9526 5.00391 16.1575 7.05154 15.2319 8.71787C14.791 9.51161 13.9544 10.0039 13.0465 10.0039H8.82858C7.81942 10.0039 6.90923 9.39718 6.52099 8.4657ZM5.99609 17.0039C5.46566 17.0039 4.95695 17.2146 4.58188 17.5897C4.20681 17.9648 3.99609 18.4735 3.99609 19.0039C3.99609 19.5343 4.20681 20.043 4.58188 20.4181C4.95695 20.7932 5.46566 21.0039 5.99609 21.0039C6.52653 21.0039 7.03523 20.7932 7.41031 20.4181C7.78538 20.043 7.99609 19.5343 7.99609 19.0039C7.99609 18.4735 7.78538 17.9648 7.41031 17.5897C7.03523 17.2146 6.52653 17.0039 5.99609 17.0039ZM15.9961 17.0039C15.4657 17.0039 14.957 17.2146 14.5819 17.5897C14.2068 17.9648 13.9961 18.4735 13.9961 19.0039C13.9961 19.5343 14.2068 20.043 14.5819 20.4181C14.957 20.7932 15.4657 21.0039 15.9961 21.0039C16.5265 21.0039 17.0352 20.7932 17.4103 20.4181C17.7854 20.043 17.9961 19.5343 17.9961 19.0039C17.9961 18.4735 17.7854 17.9648 17.4103 17.5897C17.0352 17.2146 16.5265 17.0039 15.9961 17.0039Z" fill="#32357D"/>
<circle cx="20" cy="3" r="3" fill="#FF0000"/>
</svg>
