<svg width="16" height="16" viewBox="0 0 16 16" fill="none" xmlns="http://www.w3.org/2000/svg">
<path d="M7.39967 15.1667H4.59967C1.99301 15.1667 0.833008 14.0067 0.833008 11.4V8.60001C0.833008 5.99334 1.99301 4.83334 4.59967 4.83334H7.39967C10.0063 4.83334 11.1663 5.99334 11.1663 8.60001V11.4C11.1663 14.0067 10.0063 15.1667 7.39967 15.1667ZM4.59967 5.83334C2.53301 5.83334 1.83301 6.53334 1.83301 8.60001V11.4C1.83301 13.4667 2.53301 14.1667 4.59967 14.1667H7.39967C9.46634 14.1667 10.1663 13.4667 10.1663 11.4V8.60001C10.1663 6.53334 9.46634 5.83334 7.39967 5.83334H4.59967Z" fill="#787486"/>
<path d="M11.3997 11.1667H10.6663C10.393 11.1667 10.1663 10.94 10.1663 10.6667V8.60001C10.1663 6.53334 9.46634 5.83334 7.39967 5.83334H5.33301C5.05967 5.83334 4.83301 5.60668 4.83301 5.33334V4.60001C4.83301 1.99334 5.99301 0.833344 8.59967 0.833344H11.3997C14.0063 0.833344 15.1663 1.99334 15.1663 4.60001V7.40001C15.1663 10.0067 14.0063 11.1667 11.3997 11.1667ZM11.1663 10.1667H11.3997C13.4663 10.1667 14.1663 9.46668 14.1663 7.40001V4.60001C14.1663 2.53334 13.4663 1.83334 11.3997 1.83334H8.59967C6.53301 1.83334 5.83301 2.53334 5.83301 4.60001V4.83334H7.39967C10.0063 4.83334 11.1663 5.99334 11.1663 8.60001V10.1667Z" fill="#787486"/>
</svg>
