<svg width="12" height="12" viewBox="0 0 12 12" fill="none" xmlns="http://www.w3.org/2000/svg">
<mask id="mask0_1029_32852" style="mask-type:alpha" maskUnits="userSpaceOnUse" x="0" y="0" width="12" height="12">
<path d="M11.6262 1.45451C11.7726 1.60095 11.7726 1.83839 11.6262 1.98484L10.844 2.767L9.34403 1.267L10.1262 0.484835C10.2726 0.338388 10.5101 0.338388 10.6565 0.484835L11.6262 1.45451Z" fill="black"/>
<path d="M10.3137 3.29733L8.8137 1.79733L3.70396 6.90707C3.66279 6.94824 3.63178 6.99842 3.61337 7.05365L3.00995 8.86391C2.96109 9.01049 3.10054 9.14994 3.24712 9.10108L5.05738 8.49766C5.11261 8.47925 5.16279 8.44824 5.20396 8.40707L10.3137 3.29733Z" fill="black"/>
<path fill-rule="evenodd" clip-rule="evenodd" d="M0.75 10.125C0.75 10.7463 1.25368 11.25 1.875 11.25H10.125C10.7463 11.25 11.25 10.7463 11.25 10.125V5.625C11.25 5.41789 11.0821 5.25 10.875 5.25C10.6679 5.25 10.5 5.41789 10.5 5.625V10.125C10.5 10.3321 10.3321 10.5 10.125 10.5H1.875C1.66789 10.5 1.5 10.3321 1.5 10.125V1.875C1.5 1.66789 1.66789 1.5 1.875 1.5H6.75C6.95711 1.5 7.125 1.33211 7.125 1.125C7.125 0.917893 6.95711 0.75 6.75 0.75H1.875C1.25368 0.75 0.75 1.25368 0.75 1.875V10.125Z" fill="black"/>
</mask>
<g mask="url(#mask0_1029_32852)">
<rect width="12" height="12" fill="#16192C"/>
</g>
</svg>
