<svg width="90" height="18" viewBox="0 0 90 18" fill="none" xmlns="http://www.w3.org/2000/svg">
<path d="M14.7429 2.74017C15.9156 2.74017 16.5701 2.2691 16.8657 1.49616C17.3375 0.265417 16.9588 -0.00328718 14.7429 3.01873e-05C13.3874 3.01873e-05 11.9888 2.82526e-05 12.62 1.49616C12.9423 2.25915 13.5701 2.74017 14.7429 2.74017Z" fill="#FFC233"/>
<path d="M2.65682 1.42646C-3.15365 1.70512 2.37776 7.05603 2.37776 7.05603C5.45077 10.8478 11.6533 7.05603 11.6533 7.05271C15.1183 4.87983 12.2679 3.15149 12.2679 3.15149C9.0819 0.865827 2.65682 1.42646 2.65682 1.42646Z" fill="#FFC233"/>
<path d="M27.3139 7.05603C27.3139 7.05603 32.8454 1.70512 27.0349 1.42646C27.0349 1.42646 20.6098 0.865827 17.4239 3.15149C17.4239 3.15149 14.5734 4.87983 18.0385 7.05271C18.0418 7.05603 24.2409 10.8478 27.3139 7.05603Z" fill="#FFC233"/>
<path d="M17.2212 12.2046H11.2679C11.0719 11.3454 11.0553 10.6189 11.1715 10.0052H17.2179C17.8325 10.0052 18.3408 10.5061 18.3242 11.1198V11.1696C18.3009 11.7534 17.8059 12.2046 17.2212 12.2046Z" fill="#FFC233"/>
<path d="M17.7893 8.81426L17.7873 8.81094H17.7893V8.81426Z" fill="#FFC233"/>
<path d="M17.7873 8.81094C17.2689 7.96043 16.4494 7.4737 15.6199 7.20865C15.0618 7.02952 14.4605 7.02952 13.899 7.20534C13.0585 7.47073 12.1948 7.96501 11.6499 8.81094H17.7873Z" fill="#FFC233"/>
<path d="M14.7562 18C14.1449 18 13.5967 17.5223 13.1084 16.7925H16.4571C15.9488 17.5256 15.3708 18 14.7562 18Z" fill="#FFC233"/>
<path d="M17.4239 14.9149C17.4272 14.9083 17.4305 14.9016 17.4338 14.8917C17.7162 14.1751 17.1913 13.3989 16.4206 13.3989H11.6134C11.8592 14.1585 12.1383 14.9182 12.4506 15.5983H16.4073C16.8558 15.5983 17.2611 15.3296 17.4239 14.9149Z" fill="#FFC233"/>
<path fill-rule="evenodd" clip-rule="evenodd" d="M40.6358 8.95002C41.4867 9.13091 42.1702 9.55529 42.6864 10.2232C43.2025 10.8772 43.4605 11.6285 43.4605 12.4773C43.4605 13.7018 43.0281 14.6758 42.1633 15.3993C41.3124 16.109 40.1197 16.4638 38.5853 16.4638H31.7432V1.81196H38.3551C39.8477 1.81196 41.0125 2.15286 41.8494 2.83466C42.7003 3.51647 43.1258 4.44177 43.1258 5.61058C43.1258 6.47327 42.8956 7.18985 42.4353 7.76034C41.9889 8.33083 41.3891 8.72739 40.6358 8.95002ZM35.3212 7.73947H37.6647C38.2505 7.73947 38.6969 7.61424 39.0038 7.36378C39.3246 7.09941 39.485 6.71677 39.485 6.21585C39.485 5.71493 39.3246 5.33229 39.0038 5.06792C38.6969 4.80354 38.2505 4.67136 37.6647 4.67136H35.3212V7.73947ZM37.9576 13.5835C38.5574 13.5835 39.0177 13.4513 39.3386 13.1869C39.6733 12.9087 39.8407 12.5121 39.8407 11.9973C39.8407 11.4824 39.6664 11.0789 39.3176 10.7867C38.9829 10.4945 38.5156 10.3484 37.9157 10.3484H35.3212V13.5835H37.9576Z" fill="#010004"/>
<path d="M48.7371 1.81196V10.578C48.7371 11.4546 48.9533 12.1294 49.3857 12.6025C49.8181 13.0756 50.4528 13.3122 51.2898 13.3122C52.1267 13.3122 52.7684 13.0756 53.2148 12.6025C53.6611 12.1294 53.8843 11.4546 53.8843 10.578V1.81196H57.4623V10.5571C57.4623 11.8651 57.1833 12.9713 56.6253 13.8757C56.0674 14.7801 55.3141 15.4619 54.3656 15.9211C53.431 16.3803 52.3848 16.6099 51.227 16.6099C50.0692 16.6099 49.03 16.3872 48.1094 15.942C47.2027 15.4828 46.4843 14.801 45.9542 13.8966C45.4242 12.9782 45.1591 11.8651 45.1591 10.5571V1.81196H48.7371Z" fill="#010004"/>
<path fill-rule="evenodd" clip-rule="evenodd" d="M89.4857 16.4638V13.5418H83.1667L89.4857 4.52526V1.81196H59.4098V4.73397H65.6869L59.4098 13.7505V16.4638H89.4857ZM79.4906 4.73397L73.3179 13.5418H79.2528L85.3847 4.73397H79.4906ZM75.5358 4.73397H69.6417L63.469 13.5418H69.404L75.5358 4.73397Z" fill="#010004"/>
</svg>
