<svg width="48" height="49" viewBox="0 0 48 49" fill="none" xmlns="http://www.w3.org/2000/svg">
<path d="M24 48.885C37.2548 48.885 48 38.1398 48 24.885C48 11.6302 37.2548 0.88501 24 0.88501C10.7452 0.88501 0 11.6302 0 24.885C0 38.1398 10.7452 48.885 24 48.885Z" fill="#EEFFFA"/>
<path fill-rule="evenodd" clip-rule="evenodd" d="M28.8249 31.107L22.6748 26.9582L30.9352 17.793L28.8249 31.107ZM20.219 29.9325L19.6339 25.8537C19.6043 25.6451 19.4597 25.472 19.2602 25.4055L16.2904 24.1759L28.497 18.2399L20.8922 26.3565C20.7654 26.4727 20.6759 26.6289 20.6611 26.8143C20.6463 26.9998 20.7654 27.1427 20.8922 27.2644L21.9499 28.2063L20.219 29.9325ZM32.7461 15.0179C32.5597 14.8721 32.3103 14.8447 32.0976 14.9436L13.3744 23.7807C13.1352 23.8938 12.988 24.1466 13.0008 24.4187C13.0152 24.6918 13.1871 24.9269 13.4365 25.0135L18.1692 26.651L18.9641 32.4322C18.9982 32.6814 19.1641 32.8882 19.3939 32.9677C19.6245 33.0473 19.8764 32.9836 20.0475 32.8069L23.0926 29.645L29.4568 33.7754L29.4661 33.7816L29.4704 33.7843C29.5734 33.8514 29.6908 33.885 29.8082 33.885C29.8993 33.885 29.9904 33.8647 30.0755 33.8249C30.2704 33.7304 30.4074 33.5412 30.4397 33.3203L32.9929 15.6453C33.0278 15.4058 32.9325 15.1646 32.7461 15.0179Z" fill="#1ED67D"/>
</svg>
