<svg width="48" height="49" viewBox="0 0 48 49" fill="none" xmlns="http://www.w3.org/2000/svg">
<path d="M24 48.885C37.2548 48.885 48 38.1398 48 24.885C48 11.6302 37.2548 0.88501 24 0.88501C10.7452 0.88501 0 11.6302 0 24.885C0 38.1398 10.7452 48.885 24 48.885Z" fill="#FBF7FF"/>
<path fill-rule="evenodd" clip-rule="evenodd" d="M19.9986 36.8855C19.8366 36.8855 19.6716 36.8455 19.5196 36.7625C19.0756 36.5205 18.8836 35.9845 19.0706 35.5145L22.4106 27.1635L18.1636 27.8715C17.8126 27.9265 17.4516 27.7955 17.2256 27.5175C16.9976 27.2395 16.9366 26.8615 17.0656 26.5265L22.0656 13.5265C22.2146 13.1405 22.5856 12.8855 22.9996 12.8855H28.9996C29.3536 12.8855 29.6826 13.0735 29.8616 13.3785C30.0416 13.6835 30.0456 14.0615 29.8736 14.3705L25.8816 21.5585L29.8356 20.8995C30.2346 20.8375 30.6346 21.0135 30.8486 21.3565C31.0616 21.6985 31.0486 22.1375 30.8126 22.4665L20.8126 36.4665C20.6196 36.7385 20.3126 36.8855 19.9986 36.8855Z" fill="#9F72FF"/>
</svg>
