<svg width="48" height="49" viewBox="0 0 48 49" fill="none" xmlns="http://www.w3.org/2000/svg">
<path d="M24 48.885C37.2548 48.885 48 38.1398 48 24.885C48 11.6302 37.2548 0.88501 24 0.88501C10.7452 0.88501 0 11.6302 0 24.885C0 38.1398 10.7452 48.885 24 48.885Z" fill="#FFF7EA"/>
<path fill-rule="evenodd" clip-rule="evenodd" d="M34.972 18.4109L35.0248 18.4412C35.0869 18.4792 35.1462 18.5233 35.2019 18.5736L35.2626 18.6325L35.3145 18.6902L35.3868 18.7851L35.4505 18.8891L35.5041 19.0013L35.5438 19.1125L35.5649 19.1927L35.5882 19.3349L35.5943 19.4565V28.5994C35.5943 29.2561 35.0619 29.7886 34.4051 29.7886C33.7894 29.7886 33.283 29.3206 33.2221 28.721L33.216 28.5994L33.2157 22.2481L25.7156 29.4568C25.2882 29.8676 24.6305 29.8969 24.1701 29.5448L24.0676 29.4568L20.1347 25.6771L13.8238 31.7425C13.3818 32.1673 12.6965 32.1826 12.2371 31.7977L12.1423 31.7091C11.7176 31.2671 11.7023 30.5819 12.0871 30.1225L12.1757 30.0277L19.3109 23.1705C19.7383 22.7598 20.396 22.7304 20.8564 23.0825L20.9589 23.1705L24.8907 26.9491L31.4517 20.6451L24.8916 20.6457C24.2349 20.6457 23.7024 20.1133 23.7024 19.4565C23.7024 18.8408 24.1704 18.3344 24.77 18.2735L24.8916 18.2673L34.4423 18.2679L34.4959 18.2707L34.6196 18.2867L34.7346 18.3137L34.8561 18.3558L34.972 18.4109Z" fill="#FFA876"/>
</svg>
