<svg width="17" height="16" viewBox="0 0 17 16" fill="none" xmlns="http://www.w3.org/2000/svg">
<path d="M8.01573 0.446284C8.3094 -0.148761 9.15791 -0.148762 9.45158 0.446283L11.3709 4.33518C11.4875 4.57148 11.7129 4.73526 11.9737 4.77315L16.2653 5.39676C16.922 5.49218 17.1842 6.29917 16.709 6.76234L13.6036 9.78943C13.4149 9.97336 13.3288 10.2384 13.3733 10.4981L14.1064 14.7724C14.2186 15.4264 13.5321 15.9251 12.9448 15.6164L9.10621 13.5983C8.87297 13.4757 8.59434 13.4757 8.3611 13.5983L4.52253 15.6164C3.93518 15.9251 3.24872 15.4264 3.36089 14.7724L4.094 10.4981C4.13854 10.2384 4.05244 9.97336 3.86374 9.78943L0.758273 6.76234C0.283102 6.29917 0.545306 5.49218 1.20198 5.39676L5.49363 4.77315C5.7544 4.73526 5.97982 4.57148 6.09644 4.33518L8.01573 0.446284Z" fill="#C4C4C4"/>
</svg>
