<svg width="209" height="209" viewBox="0 0 209 209" fill="none" xmlns="http://www.w3.org/2000/svg">
<circle cx="104.5" cy="91.6461" r="44.741" fill="#F1F1F1"/>
<rect x="86.9484" y="90.7343" width="43.8024" height="61.3234" rx="4.38024" transform="rotate(2.5 86.9484 90.7343)" fill="#EEEEEE" stroke="#999999" stroke-width="1.2515"/>
<rect x="60.9083" y="87.0661" width="46.3054" height="63.8263" rx="5.63174" transform="rotate(-7.5 60.9083 87.0661)" fill="#FAFAFA" stroke="#999999" stroke-width="1.2515"/>
<path d="M62.2638 92.568C61.9029 89.8269 63.8324 87.3123 66.5735 86.9514L101.316 82.3775C104.057 82.0166 106.571 83.9462 106.932 86.6873L108.157 95.9932L63.4889 101.874L62.2638 92.568Z" fill="#EEEEEE"/>
<rect x="115.992" y="83.6011" width="1.87725" height="6.25748" rx="0.938623" transform="rotate(82.5 115.992 83.6011)" fill="#999999"/>
<rect x="98.8496" y="73.2349" width="1.87725" height="6.25748" rx="0.938623" transform="rotate(-7.5 98.8496 73.2349)" fill="#999999"/>
<rect x="109.849" y="74.9427" width="1.87725" height="6.25748" rx="0.938623" transform="rotate(37.5 109.849 74.9427)" fill="#999999"/>
<rect x="68.1582" y="103.784" width="36.2934" height="2.50299" rx="1.2515" transform="rotate(-7.5 68.1582 103.784)" fill="#DCDCDC"/>
<rect x="69.791" y="116.192" width="36.2934" height="2.50299" rx="1.2515" transform="rotate(-7.5 69.791 116.192)" fill="#DCDCDC"/>
<rect x="71.4248" y="128.6" width="36.2934" height="2.50299" rx="1.2515" transform="rotate(-7.5 71.4248 128.6)" fill="#DCDCDC"/>
<rect x="68.8115" y="108.747" width="13.1407" height="2.50299" rx="1.2515" transform="rotate(-7.5 68.8115 108.747)" fill="#EEEEEE"/>
<rect x="70.4453" y="121.155" width="13.1407" height="2.50299" rx="1.2515" transform="rotate(-7.5 70.4453 121.155)" fill="#EEEEEE"/>
<rect x="72.0781" y="133.563" width="13.1407" height="2.50299" rx="1.2515" transform="rotate(-7.5 72.0781 133.563)" fill="#EEEEEE"/>
</svg>
