<svg width="32" height="32" viewBox="0 0 32 32" fill="none" xmlns="http://www.w3.org/2000/svg">
<path fill-rule="evenodd" clip-rule="evenodd" d="M31.2377 15.9999C31.2377 7.59764 24.4023 0.762207 16 0.762207C7.5977 0.762207 0.762268 7.59764 0.762268 15.9999C0.762268 24.4022 7.5977 31.2376 16 31.2376C24.4023 31.2376 31.2377 24.4034 31.2377 15.9999ZM19.6948 8.55992C18.7303 8.51421 18.4411 8.50621 16 8.50621C13.5588 8.50621 13.2686 8.51306 12.3063 8.55764C9.82627 8.67078 8.67084 9.84564 8.5577 12.3062C8.51541 13.2696 8.50398 13.5588 8.50398 15.9999C8.50398 18.4411 8.51541 18.7314 8.5577 19.6936C8.67198 22.1485 9.82284 23.3279 12.3063 23.4422C13.2697 23.4868 13.5588 23.4959 16 23.4959C18.4423 23.4959 18.7314 23.4845 19.6948 23.4422C22.176 23.3291 23.3291 22.1508 23.4434 19.6936C23.4868 18.7302 23.496 18.4411 23.496 15.9999C23.496 13.5588 23.4868 13.2708 23.4434 12.3062C23.3291 9.84678 22.1748 8.67192 19.6948 8.55878V8.55992ZM16 6.85706C13.5166 6.85706 13.2068 6.86849 12.2297 6.91421C8.90856 7.06621 7.06398 8.90849 6.91198 12.2296C6.86741 13.2068 6.85713 13.5176 6.85713 16.0011C6.85713 18.4834 6.86855 18.7942 6.91198 19.7702C7.06398 23.0902 8.90856 24.9359 12.2297 25.0879C13.2068 25.1325 13.5166 25.1428 16 25.1428C18.4834 25.1428 18.7943 25.1314 19.7714 25.0879C23.0868 24.9359 24.9383 23.0936 25.088 19.7702C25.1326 18.7942 25.1428 18.4834 25.1428 15.9999C25.1428 13.5176 25.1314 13.2068 25.088 12.2296C24.9394 8.91306 23.0937 7.06392 19.7714 6.91306C18.7943 6.86849 18.4834 6.85706 16 6.85706ZM11.3051 15.9999C11.3051 14.7548 11.7998 13.5606 12.6802 12.6802C13.5607 11.7997 14.7548 11.3051 16 11.3051C17.2451 11.3051 18.4393 11.7997 19.3197 12.6802C20.2002 13.5606 20.6948 14.7548 20.6948 15.9999C20.6948 17.2451 20.2002 18.4392 19.3197 19.3197C18.4393 20.2001 17.2451 20.6948 16 20.6948C14.7548 20.6948 13.5607 20.2001 12.6802 19.3197C11.7998 18.4392 11.3051 17.2451 11.3051 15.9999ZM16 19.0479C15.1916 19.0479 14.4163 18.7268 13.8447 18.1552C13.2731 17.5836 12.952 16.8083 12.952 15.9999C12.952 15.1915 13.2731 14.4163 13.8447 13.8447C14.4163 13.273 15.1916 12.9519 16 12.9519C16.4088 12.9382 16.8162 13.0069 17.1979 13.1539C17.5796 13.3008 17.9278 13.5231 18.2218 13.8074C18.5159 14.0918 18.7497 14.4324 18.9094 14.8089C19.0691 15.1855 19.1514 15.5903 19.1514 15.9994C19.1514 16.4084 19.0691 16.8132 18.9094 17.1898C18.7497 17.5663 18.5159 17.9069 18.2218 18.1913C17.9278 18.4756 17.5796 18.6979 17.1979 18.8448C16.8162 18.9918 16.4088 19.0605 16 19.0468V19.0479ZM19.7828 11.1211C19.7828 10.977 19.8112 10.8343 19.8664 10.7012C19.9215 10.5681 20.0023 10.4471 20.1042 10.3453C20.2061 10.2434 20.327 10.1626 20.4601 10.1074C20.5932 10.0523 20.7359 10.0239 20.88 10.0239C21.0241 10.0239 21.1667 10.0523 21.2998 10.1074C21.433 10.1626 21.5539 10.2434 21.6558 10.3453C21.7577 10.4471 21.8385 10.5681 21.8936 10.7012C21.9487 10.8343 21.9771 10.977 21.9771 11.1211C21.9771 11.412 21.8615 11.6911 21.6558 11.8969C21.45 12.1026 21.171 12.2182 20.88 12.2182C20.589 12.2182 20.3099 12.1026 20.1042 11.8969C19.8984 11.6911 19.7828 11.412 19.7828 11.1211Z" fill="white"/>
</svg>
