<svg width="32" height="32" viewBox="0 0 32 32" fill="none" xmlns="http://www.w3.org/2000/svg">
<path fill-rule="evenodd" clip-rule="evenodd" d="M31.2377 15.9999C31.2377 7.59764 24.4023 0.762207 16 0.762207C7.5977 0.762207 0.762268 7.59764 0.762268 15.9999C0.762268 24.4022 7.5977 31.2376 16 31.2376C24.4023 31.2376 31.2377 24.4034 31.2377 15.9999ZM23.7497 11.6811C24.4936 11.5927 25.2201 11.3936 25.9051 11.0902C25.4022 11.8445 24.7677 12.5022 24.032 13.0319C24.2697 18.3085 20.3348 24.1919 13.3691 24.1919C11.3304 24.1941 9.33423 23.6088 7.61941 22.5062C9.60432 22.7441 11.6026 22.1852 13.176 20.9519C12.3932 20.9369 11.6347 20.6777 11.0065 20.2105C10.3783 19.7433 9.91169 19.0915 9.67198 18.3462C10.2341 18.4541 10.8134 18.4322 11.3657 18.2822C9.56227 17.9199 8.31541 16.2936 8.35655 14.5565C8.86284 14.8376 9.43998 15.0068 10.0537 15.0262C9.25958 14.4954 8.6975 13.682 8.4818 12.7514C8.2661 11.8209 8.41297 10.8431 8.89255 10.0171C9.83472 11.1759 11.01 12.1238 12.3421 12.7991C13.6743 13.4744 15.1335 13.8621 16.6251 13.9371C16.4388 13.133 16.5226 12.29 16.8634 11.5384C17.2043 10.7867 17.7832 10.1683 18.5108 9.77867C19.2384 9.38906 20.074 9.24998 20.8886 9.38293C21.7031 9.51589 22.4512 9.91347 23.0171 10.5142C23.8575 10.3491 24.6634 10.0414 25.4 9.60449C25.1195 10.4734 24.5331 11.2109 23.7497 11.6799V11.6811Z" fill="white"/>
</svg>
