<svg width="17" height="16" viewBox="0 0 17 16" fill="none" xmlns="http://www.w3.org/2000/svg">
<path d="M7.75791 0.446284C8.05158 -0.148761 8.9001 -0.148762 9.19377 0.446283L11.1131 4.33518C11.2297 4.57148 11.4551 4.73526 11.7159 4.77315L16.0075 5.39676C16.6642 5.49218 16.9264 6.29917 16.4512 6.76234L13.3458 9.78943C13.1571 9.97336 13.071 10.2384 13.1155 10.4981L13.8486 14.7724C13.9608 15.4264 13.2743 15.9251 12.687 15.6164L8.8484 13.5983C8.61516 13.4757 8.33652 13.4757 8.10329 13.5983L4.26471 15.6164C3.67737 15.9251 2.99091 15.4264 3.10308 14.7724L3.83618 10.4981C3.88073 10.2384 3.79462 9.97336 3.60593 9.78943L0.50046 6.76234C0.0252891 6.29917 0.287494 5.49218 0.944164 5.39676L5.23582 4.77315C5.49659 4.73526 5.72201 4.57148 5.83863 4.33518L7.75791 0.446284Z" fill="#FFD04A"/>
</svg>
