<svg width="48" height="24" viewBox="0 0 48 24" fill="none" xmlns="http://www.w3.org/2000/svg">
<rect width="48" height="24" rx="2" fill="#FBFAF8"/>
<g clip-path="url(#clip0_2039_6631)">
<path d="M18.3589 12.104C18.3594 11.7638 18.329 11.4241 18.2678 11.0889H13.2842V13.0105H16.1379C16.0795 13.3172 15.9559 13.6095 15.7746 13.8699C15.5933 14.1303 15.358 14.3533 15.083 14.5255V15.7761H16.7865C17.7839 14.9077 18.3589 13.623 18.3589 12.104Z" fill="#4285F4"/>
<path d="M13.2845 16.9812C14.7093 16.9812 15.9118 16.5386 16.7868 15.7761L15.0833 14.5279C14.6088 14.8329 13.999 15.0053 13.2845 15.0053C11.9066 15.0053 10.7363 14.128 10.318 12.9458H8.56348V14.2318C9.00312 15.0583 9.67744 15.7531 10.5111 16.2386C11.3448 16.7242 12.305 16.9812 13.2845 16.9812Z" fill="#34A853"/>
<path d="M10.318 12.9458C10.0968 12.3262 10.0968 11.6553 10.318 11.0358V9.74951H8.5634C8.19294 10.4451 8 11.2128 8 11.9914C8 12.77 8.19294 13.5377 8.5634 14.2333L10.318 12.9458Z" fill="#FBBC04"/>
<path d="M23.1343 12.8634V16.3796H21.9521V7.693H25.0853C25.4594 7.68541 25.8314 7.74795 26.1797 7.87701C26.5281 8.00606 26.8459 8.19907 27.1147 8.44487C27.382 8.67998 27.5952 8.96455 27.741 9.28085C27.8867 9.59715 27.9619 9.93841 27.9619 10.2834C27.9619 10.6283 27.8867 10.9696 27.741 11.2859C27.5952 11.6022 27.382 11.8867 27.1147 12.1219C26.5665 12.6156 25.89 12.862 25.0853 12.8612H23.1337L23.1343 12.8634ZM23.1343 8.76361V11.7964H25.1156C25.43 11.8019 25.7391 11.7198 26.0044 11.5604C26.2697 11.401 26.4794 11.1714 26.6074 10.9001C26.7353 10.6289 26.7758 10.3281 26.7239 10.0353C26.672 9.74243 26.5298 9.47052 26.3153 9.25347C26.3046 9.2431 26.2953 9.23303 26.283 9.22297C26.1339 9.07236 25.9526 8.95341 25.7511 8.87401C25.5496 8.7946 25.3326 8.75656 25.1144 8.76239L23.1343 8.76361ZM30.6865 10.2433C31.5603 10.2433 32.2494 10.4635 32.7537 10.9039C33.258 11.3444 33.5105 11.9486 33.5112 12.7166V16.3796H32.3807V15.556H32.3299C31.8405 16.2356 31.1894 16.5752 30.3767 16.5748C29.6838 16.5748 29.1039 16.3807 28.637 15.9925C28.4132 15.8143 28.2342 15.5911 28.1131 15.3394C27.992 15.0876 27.9319 14.8135 27.9371 14.537C27.9371 13.9217 28.1833 13.4326 28.6758 13.0698C29.1683 12.7071 29.825 12.5253 30.6461 12.5245C31.3474 12.5245 31.9265 12.6465 32.3794 12.8878V12.6321C32.3807 12.4437 32.3377 12.2573 32.2533 12.0866C32.169 11.9158 32.0454 11.7649 31.8916 11.6448C31.5791 11.3786 31.1717 11.2335 30.7508 11.2385C30.0912 11.2385 29.5689 11.5013 29.1839 12.027L28.1454 11.4066C28.7163 10.6306 29.563 10.2428 30.6855 10.2433H30.6865ZM29.1571 14.5608C29.1565 14.7026 29.1916 14.8425 29.2597 14.969C29.3277 15.0954 29.4266 15.2048 29.5482 15.2879C29.8097 15.482 30.134 15.5849 30.4665 15.5792C30.9649 15.5779 31.4425 15.3907 31.7954 15.0583C32.1869 14.7101 32.3825 14.3017 32.3823 13.833C32.0136 13.5558 31.4998 13.4171 30.8409 13.4167C30.3609 13.4167 29.9606 13.5259 29.64 13.7442C29.317 13.9672 29.1555 14.2368 29.1555 14.5608H29.1571ZM39.9997 10.4382L36.0548 19H34.8352L36.2987 16.0038L33.7037 10.4382H34.9879L36.8614 14.7084H36.8869L38.7112 10.4382H39.9997Z" fill="#5F6368"/>
<path d="M13.2845 8.97621C14.0378 8.96457 14.7657 9.23321 15.311 9.72411L16.8204 8.30029C15.8637 7.45211 14.5967 6.98627 13.2845 7.00031C12.3051 7.0005 11.3451 7.25766 10.5114 7.74309C9.6778 8.22852 9.0034 8.92314 8.56348 9.74943L10.318 11.0357C10.7363 9.85344 11.9066 8.97621 13.2845 8.97621Z" fill="#EA4335"/>
</g>
<defs>
<clipPath id="clip0_2039_6631">
<rect width="32" height="12" fill="white" transform="translate(8 7)"/>
</clipPath>
</defs>
</svg>
