<svg width="16" height="16" viewBox="0 0 16 16" fill="none" xmlns="http://www.w3.org/2000/svg">
<path fill-rule="evenodd" clip-rule="evenodd" d="M15.68 8.18181C15.68 7.22945 14.8418 6.54541 13.8895 6.54541H9.5473C8.69275 6.54541 8 7.23816 8 8.09271C8 8.94726 8.69275 9.64001 9.5473 9.64001H10.2457C11.3168 9.64001 12.126 10.6716 11.4023 11.4612C11.3538 11.5141 11.3037 11.5657 11.2519 11.616C10.9388 11.9203 10.7091 12.3166 10.7091 12.7532C10.7091 13.4759 11.295 14.0618 12.0177 14.0618H12.5688C13.0355 14.0618 13.4933 13.8935 13.8016 13.5432C15.0006 12.181 15.68 10.3315 15.68 8.18181Z" fill="#4285F4"/>
<path fill-rule="evenodd" clip-rule="evenodd" d="M8.0007 16C9.35776 16 10.577 15.7172 11.6242 15.204C12.579 14.7361 12.5306 13.4682 11.6908 12.8162C11.1051 12.3614 10.2993 12.364 9.59174 12.5858C9.11177 12.7362 8.57935 12.8182 8.0007 12.8182C6.31036 12.8182 4.83063 11.8921 3.99636 10.5329C3.64653 9.96299 3.07311 9.51999 2.40439 9.51999C1.54679 9.51999 0.851562 10.2152 0.851562 11.0728V11.1949C0.851562 11.4564 0.910163 11.716 1.03928 11.9435C2.41437 14.3663 5.01531 16 8.0007 16Z" fill="#34A853"/>
<path fill-rule="evenodd" clip-rule="evenodd" d="M2.5398 10.283C3.12921 9.82588 3.33135 9.04629 3.28263 8.302C3.27608 8.20196 3.27273 8.10125 3.27273 8C3.27273 7.57289 3.33238 7.15535 3.44007 6.75702C3.4901 6.57199 3.52364 6.38228 3.52364 6.1906V6.06005C3.52364 5.14724 2.78366 4.40726 1.87085 4.40726C1.24562 4.40726 0.659859 4.75559 0.452478 5.34542C0.160336 6.17633 0 7.07025 0 8C0 8.53989 0.0540652 9.0677 0.156609 9.5781C0.374618 10.6632 1.66518 10.9612 2.5398 10.283Z" fill="#FBBC05"/>
<path fill-rule="evenodd" clip-rule="evenodd" d="M8.0007 3.18182C8.62224 3.18182 9.21017 3.29485 9.74888 3.51877C10.5577 3.85494 11.5536 3.88337 12.173 3.26405C12.818 2.61898 12.8057 1.54888 12.0224 1.08128C10.8727 0.394954 9.52272 0 8.0007 0C5.31895 0 2.94742 1.31828 1.49601 3.3426C1.07437 3.93067 1.26412 4.72721 1.83593 5.17065C2.66042 5.81005 3.89681 5.41956 4.61379 4.66156C5.47119 3.75512 6.67076 3.18182 8.0007 3.18182Z" fill="#EA4335"/>
</svg>
