<svg width="21" height="19" viewBox="0 0 21 19" fill="none" xmlns="http://www.w3.org/2000/svg">
<path d="M19.1603 2.11C18.0986 1.04801 16.691 0.402327 15.1935 0.290382C13.696 0.178437 12.2081 0.607662 11.0003 1.5C9.72793 0.553638 8.14427 0.124512 6.5682 0.299038C4.99212 0.473564 3.54072 1.23878 2.50625 2.44059C1.47178 3.64239 0.931098 5.19152 0.993077 6.77601C1.05506 8.36051 1.71509 9.86267 2.84028 10.98L10.2903 18.43C10.3832 18.5237 10.4938 18.5981 10.6157 18.6489C10.7376 18.6997 10.8683 18.7258 11.0003 18.7258C11.1323 18.7258 11.263 18.6997 11.3849 18.6489C11.5067 18.5981 11.6173 18.5237 11.7103 18.43L19.1603 10.98C19.7429 10.3977 20.2051 9.70634 20.5205 8.94537C20.8358 8.18439 20.9982 7.36873 20.9982 6.545C20.9982 5.72127 20.8358 4.90561 20.5205 4.14463C20.2051 3.38366 19.7429 2.69228 19.1603 2.11ZM17.7503 9.57L11.0003 16.31L4.25028 9.57C3.65545 8.9727 3.25025 8.21305 3.0855 7.38634C2.92076 6.55963 3.00381 5.70268 3.32423 4.92299C3.64465 4.1433 4.18817 3.47559 4.88662 3.00362C5.58507 2.53165 6.40734 2.27644 7.25028 2.27C8.37639 2.27276 9.45537 2.72234 10.2503 3.52C10.3432 3.61373 10.4538 3.68812 10.5757 3.73889C10.6976 3.78966 10.8283 3.8158 10.9603 3.8158C11.0923 3.8158 11.223 3.78966 11.3449 3.73889C11.4667 3.68812 11.5773 3.61373 11.6703 3.52C12.4886 2.81088 13.5458 2.43915 14.6278 2.48003C15.7099 2.5209 16.736 2.97135 17.4985 3.74019C18.2609 4.50903 18.7029 5.53884 18.7348 6.62119C18.7667 7.70354 18.3862 8.75759 17.6703 9.57H17.7503Z" fill="white"/>
</svg>
