<svg width="60" height="60" viewBox="0 0 60 60" fill="none" xmlns="http://www.w3.org/2000/svg">
<path d="M26.1732 1.58513C28.6234 0.570188 31.3766 0.570187 33.8268 1.58513L47.3864 7.20167C49.8366 8.21661 51.7834 10.1634 52.7983 12.6136L58.4149 26.1732C59.4298 28.6234 59.4298 31.3766 58.4149 33.8268L52.7983 47.3864C51.7834 49.8366 49.8367 51.7834 47.3864 52.7983L33.8268 58.4149C31.3766 59.4298 28.6234 59.4298 26.1732 58.4149L12.6136 52.7983C10.1634 51.7834 8.21661 49.8367 7.20167 47.3864L1.58513 33.8268C0.570188 31.3766 0.570187 28.6234 1.58513 26.1732L7.20167 12.6136C8.21661 10.1634 10.1634 8.21661 12.6136 7.20167L26.1732 1.58513Z" fill="#00B380"/>
</svg>
