<svg width="32" height="32" viewBox="0 0 32 32" fill="none" xmlns="http://www.w3.org/2000/svg">
<path fill-rule="evenodd" clip-rule="evenodd" d="M31.4715 16C31.4715 7.5977 24.6361 0.762268 16.2338 0.762268C7.83152 0.762268 0.996094 7.5977 0.996094 16C0.996094 24.4023 7.83152 31.2377 16.2338 31.2377C24.6361 31.2377 31.4715 24.4034 31.4715 16ZM19.9287 8.55998C18.9641 8.51427 18.675 8.50627 16.2338 8.50627C13.7927 8.50627 13.5024 8.51313 12.5401 8.5577C10.0601 8.67084 8.90467 9.8457 8.79152 12.3063C8.74924 13.2697 8.73781 13.5588 8.73781 16C8.73781 18.4411 8.74924 18.7314 8.79152 19.6937C8.90581 22.1486 10.0567 23.328 12.5401 23.4423C13.5035 23.4868 13.7927 23.496 16.2338 23.496C18.6761 23.496 18.9652 23.4846 19.9287 23.4423C22.4098 23.3291 23.563 22.1508 23.6772 19.6937C23.7207 18.7303 23.7298 18.4411 23.7298 16C23.7298 13.5588 23.7207 13.2708 23.6772 12.3063C23.563 9.84684 22.4087 8.67198 19.9287 8.55884V8.55998ZM16.2338 6.85713C13.7504 6.85713 13.4407 6.86855 12.4635 6.91427C9.14238 7.06627 7.29781 8.90856 7.14581 12.2297C7.10124 13.2068 7.09095 13.5177 7.09095 16.0011C7.09095 18.4834 7.10238 18.7943 7.14581 19.7703C7.29781 23.0903 9.14238 24.936 12.4635 25.088C13.4407 25.1326 13.7504 25.1428 16.2338 25.1428C18.7172 25.1428 19.0281 25.1314 20.0052 25.088C23.3207 24.936 25.1721 23.0937 25.3218 19.7703C25.3664 18.7943 25.3767 18.4834 25.3767 16C25.3767 13.5177 25.3652 13.2068 25.3218 12.2297C25.1732 8.91313 23.3275 7.06398 20.0052 6.91313C19.0281 6.86855 18.7172 6.85713 16.2338 6.85713ZM11.539 16C11.539 14.7548 12.0336 13.5607 12.914 12.6802C13.7945 11.7998 14.9887 11.3051 16.2338 11.3051C17.479 11.3051 18.6731 11.7998 19.5536 12.6802C20.434 13.5607 20.9287 14.7548 20.9287 16C20.9287 17.2451 20.434 18.4393 19.5536 19.3197C18.6731 20.2002 17.479 20.6948 16.2338 20.6948C14.9887 20.6948 13.7945 20.2002 12.914 19.3197C12.0336 18.4393 11.539 17.2451 11.539 16ZM16.2338 19.048C15.4254 19.048 14.6502 18.7269 14.0785 18.1552C13.5069 17.5836 13.1858 16.8084 13.1858 16C13.1858 15.1916 13.5069 14.4163 14.0785 13.8447C14.6502 13.2731 15.4254 12.952 16.2338 12.952C16.6426 12.9383 17.05 13.0069 17.4317 13.1539C17.8134 13.3009 18.1616 13.5232 18.4557 13.8075C18.7497 14.0918 18.9835 14.4324 19.1432 14.809C19.3029 15.1855 19.3852 15.5904 19.3852 15.9994C19.3852 16.4084 19.3029 16.8133 19.1432 17.1898C18.9835 17.5664 18.7497 17.907 18.4557 18.1913C18.1616 18.4757 17.8134 18.6979 17.4317 18.8449C17.05 18.9919 16.6426 19.0606 16.2338 19.0468V19.048ZM20.0167 11.1211C20.0167 10.977 20.045 10.8344 20.1002 10.7013C20.1553 10.5682 20.2361 10.4472 20.338 10.3453C20.4399 10.2434 20.5608 10.1626 20.694 10.1075C20.8271 10.0524 20.9697 10.024 21.1138 10.024C21.2579 10.024 21.4006 10.0524 21.5337 10.1075C21.6668 10.1626 21.7877 10.2434 21.8896 10.3453C21.9915 10.4472 22.0723 10.5682 22.1274 10.7013C22.1826 10.8344 22.211 10.977 22.211 11.1211C22.211 11.4121 22.0954 11.6912 21.8896 11.8969C21.6839 12.1027 21.4048 12.2183 21.1138 12.2183C20.8228 12.2183 20.5438 12.1027 20.338 11.8969C20.1323 11.6912 20.0167 11.4121 20.0167 11.1211Z" fill="black"/>
</svg>
