<svg width="58" height="35" viewBox="0 0 58 35" fill="none" xmlns="http://www.w3.org/2000/svg">
<path d="M28.6667 5.32811C30.947 5.32811 32.2196 4.41215 32.7945 2.9092C33.7118 0.516089 32.9754 -0.00639173 28.6667 5.86976e-05C26.0311 5.86976e-05 23.3115 5.48363e-05 24.5389 2.9092C25.1655 4.3928 26.3864 5.32811 28.6667 5.32811Z" fill="#FFAF0B"/>
<path d="M5.16604 2.77368C-6.1321 3.31551 4.62342 13.7201 4.62342 13.7201C10.5987 21.0929 22.6591 13.72 22.6591 13.7136C29.3967 9.48857 23.8542 6.1279 23.8542 6.1279C17.6592 1.68355 5.16604 2.77368 5.16604 2.77368Z" fill="#FFAF0B"/>
<path d="M53.1105 13.7201C53.1105 13.7201 63.866 3.31551 52.5678 2.77368C52.5678 2.77368 40.0746 1.68355 33.8797 6.1279C33.8797 6.1279 28.3372 9.48857 35.0748 13.7136C35.0812 13.72 47.1352 21.0929 53.1105 13.7201Z" fill="#FFAF0B"/>
<path d="M33.4857 23.7311H21.9098C21.5286 22.0605 21.4963 20.6478 21.7224 19.4545H33.4792C34.6743 19.4545 35.6626 20.4285 35.6303 21.6219V21.7186C35.5851 22.8539 34.6226 23.7311 33.4857 23.7311Z" fill="#FFAF0B"/>
<path d="M34.5903 17.1388L34.5864 17.1324H34.5903V17.1388Z" fill="#FFAF0B"/>
<path d="M34.5864 17.1324C33.5785 15.4786 31.9849 14.5322 30.3721 14.0168C29.2868 13.6685 28.1176 13.6685 27.0259 14.0104C25.3916 14.5264 23.7121 15.4875 22.6527 17.1324H34.5864Z" fill="#FFAF0B"/>
<path d="M28.6926 35C27.504 35 26.4381 34.0711 25.4885 32.652H32C31.0116 34.0776 29.8876 35 28.6926 35Z" fill="#FFAF0B"/>
<path d="M33.8797 29.0012C33.8862 28.9883 33.8926 28.9754 33.8991 28.956C34.4482 27.5627 33.4275 26.0533 31.9289 26.0533H22.5816C23.0596 27.5305 23.6022 29.0076 24.2094 30.33H31.903C32.7751 30.33 33.5632 29.8075 33.8797 29.0012Z" fill="#FFAF0B"/>
</svg>
