<svg width="189" height="35" viewBox="0 0 189 35" fill="none" xmlns="http://www.w3.org/2000/svg">
<path d="M28.6667 5.32811C30.947 5.32811 32.2196 4.41215 32.7945 2.9092C33.7118 0.516089 32.9754 -0.00639173 28.6667 5.86976e-05C26.0311 5.86976e-05 23.3115 5.48363e-05 24.5389 2.9092C25.1655 4.3928 26.3864 5.32811 28.6667 5.32811Z" fill="white"/>
<path d="M5.16604 2.77368C-6.1321 3.31551 4.62342 13.7201 4.62342 13.7201C10.5987 21.0929 22.6591 13.72 22.6591 13.7136C29.3967 9.48857 23.8542 6.1279 23.8542 6.1279C17.6592 1.68355 5.16604 2.77368 5.16604 2.77368Z" fill="white"/>
<path d="M53.1105 13.7201C53.1105 13.7201 63.866 3.31551 52.5678 2.77368C52.5678 2.77368 40.0746 1.68355 33.8797 6.1279C33.8797 6.1279 28.3372 9.48857 35.0748 13.7136C35.0812 13.72 47.1352 21.0929 53.1105 13.7201Z" fill="white"/>
<path d="M33.4857 23.7311H21.9098C21.5286 22.0605 21.4963 20.6478 21.7224 19.4545H33.4792C34.6743 19.4545 35.6626 20.4285 35.6303 21.6219V21.7186C35.5851 22.8539 34.6226 23.7311 33.4857 23.7311Z" fill="white"/>
<path d="M34.5903 17.1388L34.5864 17.1324H34.5903V17.1388Z" fill="white"/>
<path d="M34.5864 17.1324C33.5785 15.4786 31.9849 14.5322 30.3721 14.0168C29.2868 13.6685 28.1176 13.6685 27.0259 14.0104C25.3916 14.5264 23.7121 15.4875 22.6527 17.1324H34.5864Z" fill="white"/>
<path d="M28.6926 35C27.504 35 26.4381 34.0711 25.4885 32.652H32C31.0116 34.0776 29.8876 35 28.6926 35Z" fill="white"/>
<path d="M33.8797 29.0012C33.8862 28.9883 33.8926 28.9754 33.8991 28.956C34.4482 27.5627 33.4275 26.0533 31.9289 26.0533H22.5816C23.0596 27.5305 23.6022 29.0076 24.2094 30.33H31.903C32.7751 30.33 33.5632 29.8075 33.8797 29.0012Z" fill="white"/>
<path fill-rule="evenodd" clip-rule="evenodd" d="M94.0141 17.4028C95.6686 17.7545 96.9977 18.5797 98.0012 19.8784C99.0048 21.15 99.5066 22.611 99.5066 24.2614C99.5066 26.6423 98.6658 28.5362 96.9841 29.9431C95.3296 31.323 93.0105 32.0129 90.027 32.0129H76.723V3.52325H89.5794C92.4816 3.52325 94.7464 4.18612 96.3738 5.51184C98.0284 6.83757 98.8556 8.63678 98.8556 10.9095C98.8556 12.5869 98.4081 13.9803 97.513 15.0896C96.6451 16.1988 95.4788 16.9699 94.0141 17.4028ZM83.6801 15.049H88.2368C89.376 15.049 90.244 14.8055 90.8407 14.3185C91.4645 13.8044 91.7764 13.0604 91.7764 12.0864C91.7764 11.1124 91.4645 10.3683 90.8407 9.85428C90.244 9.34023 89.376 9.0832 88.2368 9.0832H83.6801V15.049ZM88.8064 26.4124C89.9727 26.4124 90.8678 26.1553 91.4916 25.6413C92.1426 25.1002 92.4681 24.3291 92.4681 23.328C92.4681 22.327 92.129 21.5423 91.451 20.9742C90.8 20.406 89.8914 20.1219 88.7251 20.1219H83.6801V26.4124H88.8064Z" fill="white"/>
<path d="M109.767 3.52325V20.5683C109.767 22.2728 110.187 23.585 111.028 24.5049C111.869 25.4248 113.103 25.8848 114.73 25.8848C116.358 25.8848 117.605 25.4248 118.473 24.5049C119.341 23.585 119.775 22.2728 119.775 20.5683V3.52325H126.732V20.5277C126.732 23.071 126.19 25.2219 125.105 26.9805C124.02 28.7391 122.555 30.0649 120.711 30.9577C118.894 31.8505 116.859 32.297 114.608 32.297C112.357 32.297 110.336 31.8641 108.546 30.9983C106.783 30.1055 105.386 28.7797 104.355 27.0211C103.325 25.2354 102.809 23.071 102.809 20.5277V3.52325H109.767Z" fill="white"/>
<path fill-rule="evenodd" clip-rule="evenodd" d="M189 32.0129V26.3312H176.713L189 8.79911V3.52325H130.519V9.20494H142.725L130.519 26.737V32.0129H189ZM169.565 9.20494L157.563 26.3312H169.103L181.026 9.20494H169.565ZM161.875 9.20494H150.414L138.412 26.3312H149.952L161.875 9.20494Z" fill="white"/>
</svg>
