<svg width="17" height="16" viewBox="0 0 17 16" fill="none" xmlns="http://www.w3.org/2000/svg">
<mask id="mask0_1303_14339" style="mask-type:alpha" maskUnits="userSpaceOnUse" x="0" y="0" width="17" height="16">
<path fill-rule="evenodd" clip-rule="evenodd" d="M6.5 12.5C6.5 12.7761 6.72386 13 7 13L15 13C15.2761 13 15.5 12.7761 15.5 12.5L15.5 3.5C15.5 3.22386 15.2761 3 15 3L7 3C6.72386 3 6.5 3.22386 6.5 3.5L6.5 5.5C6.5 5.77614 6.27614 6 6 6C5.72386 6 5.5 5.77614 5.5 5.5L5.5 3.5C5.5 2.67157 6.17157 2 7 2L15 2C15.8284 2 16.5 2.67157 16.5 3.5L16.5 12.5C16.5 13.3284 15.8284 14 15 14L7 14C6.17157 14 5.5 13.3284 5.5 12.5L5.5 10.5C5.5 10.2239 5.72386 10 6 10C6.27614 10 6.5 10.2239 6.5 10.5L6.5 12.5Z" fill="black"/>
<path fill-rule="evenodd" clip-rule="evenodd" d="M0.646446 8.35355C0.451184 8.15829 0.451184 7.84171 0.646446 7.64645L3.64645 4.64645C3.84171 4.45118 4.15829 4.45118 4.35355 4.64645C4.54882 4.84171 4.54882 5.15829 4.35355 5.35355L2.20711 7.5L11 7.5C11.2761 7.5 11.5 7.72386 11.5 8C11.5 8.27614 11.2761 8.5 11 8.5L2.20711 8.5L4.35355 10.6464C4.54882 10.8417 4.54882 11.1583 4.35355 11.3536C4.15829 11.5488 3.84171 11.5488 3.64645 11.3536L0.646446 8.35355Z" fill="black"/>
</mask>
<g mask="url(#mask0_1303_14339)">
<rect x="0.5" width="16" height="16" fill="#A0AEC0"/>
</g>
</svg>
