<svg width="48" height="30" viewBox="0 0 48 30" fill="none" xmlns="http://www.w3.org/2000/svg">
<path d="M23.8335 4.42979C25.7294 4.42979 26.7874 3.66826 27.2654 2.41871C28.028 0.429077 27.4157 -0.00531409 23.8335 4.88012e-05C21.6423 4.88012e-05 19.3812 4.55909e-05 20.4017 2.41871C20.9226 3.65217 21.9377 4.42979 23.8335 4.42979Z" fill="#FFC233"/>
<path d="M4.29505 2.30604C-5.09823 2.75652 3.84392 11.4069 3.84392 11.4069C8.81178 17.5367 18.8388 11.4069 18.8388 11.4015C24.4404 7.8888 19.8324 5.09474 19.8324 5.09474C14.6819 1.39971 4.29505 2.30604 4.29505 2.30604Z" fill="#FFC233"/>
<path d="M44.1561 11.4069C44.1561 11.4069 53.0982 2.75652 43.7049 2.30604C43.7049 2.30604 33.3181 1.39971 28.1676 5.09474C28.1676 5.09474 23.5596 7.8888 29.1612 11.4015C29.1666 11.4069 39.1882 17.5367 44.1561 11.4069Z" fill="#FFC233"/>
<path d="M27.84 19.7301H18.2158C17.8989 18.3411 17.8721 17.1666 18.06 16.1745H27.8347C28.8282 16.1745 29.6499 16.9843 29.6231 17.9764V18.0569C29.5855 19.0007 28.7853 19.7301 27.84 19.7301Z" fill="#FFC233"/>
<path d="M28.7584 14.2492L28.7552 14.2439H28.7584V14.2492Z" fill="#FFC233"/>
<path d="M28.7552 14.2439C27.9172 12.8689 26.5923 12.0821 25.2514 11.6536C24.3491 11.364 23.377 11.364 22.4694 11.6482C21.1106 12.0773 19.7142 12.8763 18.8334 14.2439H28.7552Z" fill="#FFC233"/>
<path d="M23.855 29.099C22.8668 29.099 21.9807 28.3268 21.1912 27.1469H26.6048C25.7831 28.3321 24.8486 29.099 23.855 29.099Z" fill="#FFC233"/>
<path d="M28.1676 24.1116C28.173 24.1009 28.1784 24.0902 28.1837 24.0741C28.6402 22.9157 27.7917 21.6608 26.5457 21.6608H18.7743C19.1718 22.8889 19.6229 24.117 20.1277 25.2164H26.5242C27.2492 25.2164 27.9045 24.782 28.1676 24.1116Z" fill="#FFC233"/>
</svg>
