<svg width="24" height="16" viewBox="0 0 24 16" fill="none" xmlns="http://www.w3.org/2000/svg">
<path d="M11.6748 2.43571C12.6035 2.43571 13.1217 2.01698 13.3559 1.32992C13.7294 0.235926 13.4295 -0.00292194 11.6748 2.68332e-05C10.6014 2.68332e-05 9.49384 2.5068e-05 9.9937 1.32992C10.2489 2.00814 10.7461 2.43571 11.6748 2.43571Z" fill="#FFC233"/>
<path d="M2.10392 1.26797C-2.49736 1.51566 1.88293 6.27202 1.88293 6.27202C4.31643 9.64247 9.22814 6.27202 9.22814 6.26907C11.9721 4.33763 9.71484 2.80132 9.71484 2.80132C7.19189 0.769624 2.10392 1.26797 2.10392 1.26797Z" fill="#FFC233"/>
<path d="M21.6297 6.27202C21.6297 6.27202 26.01 1.51566 21.4088 1.26797C21.4088 1.26797 16.3208 0.769624 13.7978 2.80132C13.7978 2.80132 11.5406 4.33763 14.2845 6.26907C14.2872 6.27202 19.1962 9.64247 21.6297 6.27202Z" fill="#FFC233"/>
<path d="M13.6374 10.8485H8.92296C8.76774 10.0848 8.75459 9.43902 8.84667 8.89349H13.6347C14.1214 8.89349 14.5239 9.33876 14.5108 9.88428V9.92851C14.4924 10.4475 14.1004 10.8485 13.6374 10.8485Z" fill="#FFC233"/>
<path d="M14.0872 7.8349L14.0856 7.83195H14.0872V7.8349Z" fill="#FFC233"/>
<path d="M14.0856 7.83195C13.6751 7.07594 13.0262 6.64329 12.3693 6.40769C11.9273 6.24846 11.4512 6.24846 11.0066 6.40475C10.341 6.64065 9.65696 7.08001 9.22551 7.83195H14.0856Z" fill="#FFC233"/>
<path d="M11.6853 16C11.2013 16 10.7672 15.5754 10.3804 14.9266H13.0323C12.6298 15.5783 12.172 16 11.6853 16Z" fill="#FFC233"/>
<path d="M13.7978 13.2577C13.8005 13.2518 13.8031 13.2459 13.8057 13.237C14.0293 12.6001 13.6137 11.9101 13.0033 11.9101H9.19656C9.39124 12.5854 9.61223 13.2606 9.85952 13.8651H12.9928C13.348 13.8651 13.6689 13.6263 13.7978 13.2577Z" fill="#FFC233"/>
</svg>
