<svg width="24" height="24" viewBox="0 0 24 24" fill="none" xmlns="http://www.w3.org/2000/svg">
<path fill-rule="evenodd" clip-rule="evenodd" d="M21.5812 6.18627C22.0306 6.50728 22.1347 7.13183 21.8137 7.58124L16.8137 14.5812C16.5277 14.9817 15.9929 15.1145 15.5528 14.8944L8.31706 11.2766L3.81372 17.5812C3.49271 18.0307 2.86816 18.1347 2.41875 17.8137C1.96934 17.4927 1.86524 16.8682 2.18625 16.4188L7.18625 9.41876C7.47226 9.01835 8.00708 8.88551 8.4472 9.10557L15.6829 12.7234L20.1863 6.41876C20.5073 5.96935 21.1318 5.86526 21.5812 6.18627Z" fill="#8100F7"/>
<path d="M21 10C22.6569 10 24 8.65685 24 7C24 5.34315 22.6569 4 21 4C19.3431 4 18 5.34315 18 7C18 8.65685 19.3431 10 21 10Z" fill="#8100F7"/>
<path d="M8 13C9.65685 13 11 11.6569 11 10C11 8.34315 9.65685 7 8 7C6.34315 7 5 8.34315 5 10C5 11.6569 6.34315 13 8 13Z" fill="#8100F7"/>
<path d="M3 20C4.65685 20 6 18.6569 6 17C6 15.3431 4.65685 14 3 14C1.34315 14 0 15.3431 0 17C0 18.6569 1.34315 20 3 20Z" fill="#8100F7"/>
<path d="M19 14C19 15.6569 17.6569 17 16 17C14.3431 17 13 15.6569 13 14C13 12.3431 14.3431 11 16 11C17.6569 11 19 12.3431 19 14Z" fill="#8100F7"/>
</svg>
