<svg width="48" height="24" viewBox="0 0 48 24" fill="none" xmlns="http://www.w3.org/2000/svg">
<rect width="48" height="24" rx="2" fill="#FBFAF8"/>
<path fill-rule="evenodd" clip-rule="evenodd" d="M20.5457 20.3898L20.8729 18.4085L20.1441 18.3922H16.6641L19.0826 3.77073C19.0901 3.72646 19.1145 3.68536 19.15 3.65612C19.1858 3.62688 19.2313 3.61084 19.279 3.61084H25.1468C27.095 3.61084 28.4394 3.99729 29.1412 4.76017C29.4702 5.11805 29.6798 5.49214 29.7813 5.90365C29.8876 6.33555 29.8894 6.85149 29.7857 7.48087L29.7781 7.52665V7.92998L30.1072 8.10775C30.3842 8.24793 30.6045 8.40832 30.7734 8.59194C31.0548 8.89803 31.2369 9.28699 31.3138 9.74795C31.3934 10.2221 31.3671 10.7865 31.2369 11.4254C31.0867 12.1602 30.844 12.8003 30.5162 13.3239C30.2148 13.8064 29.8307 14.2068 29.3746 14.5169C28.9391 14.8116 28.4219 15.0353 27.8369 15.1785C27.2701 15.3192 26.6238 15.3902 25.915 15.3902H25.4584C25.132 15.3902 24.8148 15.5023 24.5658 15.7033C24.3161 15.9085 24.151 16.1888 24.1004 16.4954L24.0659 16.6738L23.4878 20.1663L23.4617 20.2944C23.4547 20.335 23.4428 20.3552 23.4252 20.3689C23.4096 20.3815 23.3872 20.3898 23.3653 20.3898H20.5457Z" fill="#28356A"/>
<path fill-rule="evenodd" clip-rule="evenodd" d="M30.418 7.57324C30.4007 7.68001 30.3805 7.78911 30.3581 7.90122C29.5843 11.6895 26.9368 12.9983 23.5556 12.9983H21.834C21.4204 12.9983 21.0719 13.2845 21.0076 13.6734L19.8765 20.5144C19.8346 20.7699 20.041 21 20.3112 21H23.3648C23.7263 21 24.0334 20.7495 24.0904 20.4095L24.1204 20.2617L24.6953 16.7829L24.7323 16.5921C24.7885 16.2509 25.0964 16.0003 25.4579 16.0003H25.9145C28.8729 16.0003 31.1889 14.8552 31.8658 11.541C32.1484 10.1566 32.0021 9.00059 31.2539 8.18759C31.0275 7.94248 30.7466 7.73898 30.418 7.57324Z" fill="#019DDE"/>
<path fill-rule="evenodd" clip-rule="evenodd" d="M29.6089 7.26543C29.4906 7.23251 29.3686 7.20277 29.2435 7.17588C29.1177 7.14964 28.9889 7.12642 28.8563 7.10604C28.3921 7.03453 27.8834 7.00061 27.3386 7.00061H22.7394C22.626 7.00061 22.5185 7.025 22.4223 7.06911C22.2101 7.16635 22.0525 7.35782 22.0143 7.59223L21.0358 13.5011L21.0078 13.6734C21.0721 13.2844 21.4206 12.9982 21.8342 12.9982H23.5558C26.937 12.9982 29.5845 11.6888 30.3583 7.90116C30.3815 7.78905 30.4009 7.67995 30.4183 7.57319C30.2225 7.47411 30.0105 7.3894 29.7822 7.31722C29.7258 7.29935 29.6676 7.28214 29.6089 7.26543Z" fill="#00164C"/>
<path fill-rule="evenodd" clip-rule="evenodd" d="M22.0143 7.59231C22.0525 7.3579 22.21 7.16643 22.4222 7.06986C22.5191 7.02558 22.626 7.00119 22.7394 7.00119H27.3386C27.8834 7.00119 28.3921 7.03527 28.8562 7.10678C28.9889 7.127 29.1177 7.15039 29.2435 7.17662C29.3686 7.20335 29.4906 7.23326 29.6089 7.26601C29.6676 7.28271 29.7257 7.30009 29.7827 7.3173C30.011 7.38948 30.2232 7.47485 30.4189 7.57326C30.6492 6.17332 30.417 5.22013 29.6232 4.35701C28.748 3.40667 27.1685 3 25.1472 3H19.2792C18.8663 3 18.5141 3.2862 18.4503 3.67583L16.0063 18.4477C15.9581 18.7399 16.1944 19.0036 16.5036 19.0036H20.1262L22.0143 7.59231Z" fill="#012F86"/>
</svg>
