<svg width="48" height="24" viewBox="0 0 48 24" fill="none" xmlns="http://www.w3.org/2000/svg">
<rect width="48" height="24" rx="2" fill="#FBFAF8"/>
<g clip-path="url(#clip0_2039_6597)">
<path d="M34.5012 16.8353C31.6542 18.9025 27.5267 20.0001 23.9744 20.0001C19.2275 20.0251 14.6417 18.3057 11.1142 15.1777C10.8477 14.9409 11.0849 14.6177 11.4067 14.8001C15.3255 17.0033 19.7608 18.1604 24.2734 18.1569C27.6408 18.1393 30.9717 17.4683 34.0754 16.1825C34.5694 15.9809 34.9724 16.4801 34.5012 16.8353Z" fill="#00A8E1"/>
<path d="M35.7005 15.52C35.3365 15.0624 33.2955 15.3024 32.3757 15.4112C32.0962 15.4432 32.0507 15.2064 32.3042 15.0336C33.9292 13.9072 36.604 14.2336 36.9127 14.6112C37.2215 14.9888 36.8315 17.6224 35.2877 18.88C35.0537 19.072 34.8295 18.9696 34.9335 18.7136C35.2812 17.8528 36.0515 15.9648 35.7005 15.52Z" fill="#00A8E1"/>
<path d="M17.3506 11.3216C17.2342 11.343 17.1221 11.2675 17.1003 11.1526C17.0955 11.127 17.0955 11.1008 17.1003 11.0752V6.55999C17.0922 6.49087 17.1133 6.42143 17.1588 6.36799C17.2128 6.32767 17.2797 6.30847 17.3473 6.31359H18.0656C18.2021 6.30015 18.3249 6.39455 18.3451 6.52799L18.4751 7.05279C18.6886 6.80671 18.9437 6.59871 19.2291 6.43839C19.4618 6.31839 19.7205 6.25599 19.9831 6.25599H20.1228C20.1934 6.24991 20.2639 6.26911 20.3211 6.31039C20.3666 6.36383 20.3877 6.43327 20.3796 6.50239V7.32798C20.3851 7.39454 20.3656 7.46046 20.3243 7.51358C20.2701 7.55838 20.1995 7.57919 20.1293 7.57118H19.9506C19.8768 7.57118 19.7839 7.57118 19.6711 7.57118C19.4832 7.57502 19.296 7.59646 19.1121 7.63518C18.9203 7.67006 18.7331 7.72478 18.5531 7.79839V11.0784C18.5583 11.1449 18.5388 11.2109 18.4978 11.264C18.4436 11.3088 18.373 11.3296 18.3028 11.3216H17.3506Z" fill="#00A8E1"/>
<path d="M11.374 13.3439C11.3042 13.3471 11.2356 13.3244 11.1823 13.2799C11.1368 13.2265 11.1157 13.1571 11.1238 13.0879V6.55993C11.1157 6.49081 11.1368 6.42137 11.1823 6.36793C11.2362 6.32761 11.3032 6.30841 11.3708 6.31353H12.0923C12.2288 6.30009 12.3516 6.39449 12.3718 6.52793L12.4433 6.78393C12.651 6.58649 12.8963 6.43097 13.1648 6.32633C13.4394 6.21689 13.7329 6.16025 14.0293 6.15993C14.6201 6.14073 15.185 6.39961 15.5503 6.85753C15.9526 7.40345 16.1525 8.06873 16.1158 8.74233C16.1268 9.23129 16.0316 9.71673 15.8363 10.1663C15.6751 10.5407 15.4131 10.8649 15.079 11.1039C14.756 11.3209 14.3715 11.4329 13.9805 11.4239C13.715 11.4252 13.4511 11.382 13.2005 11.2959C12.9701 11.2198 12.7572 11.1001 12.5733 10.9439V13.0943C12.5804 13.1628 12.5609 13.2316 12.518 13.2863C12.4625 13.3286 12.3926 13.3478 12.323 13.3407L11.374 13.3439ZM13.5613 10.3487C13.8824 10.3715 14.1931 10.23 14.3835 9.97433C14.586 9.61657 14.6777 9.20825 14.6468 8.79993C14.678 8.38777 14.5876 7.97561 14.3868 7.61273C14.1957 7.35449 13.8817 7.21273 13.558 7.23833C13.2145 7.23865 12.8778 7.33017 12.583 7.50393V10.0799C12.8755 10.2591 13.2135 10.3532 13.558 10.3519L13.5613 10.3487Z" fill="#00A8E1"/>
<path d="M24.0322 11.3217C23.9159 11.3432 23.8038 11.2676 23.782 11.1528C23.7771 11.1272 23.7771 11.1009 23.782 11.0753V6.56011C23.7739 6.49099 23.795 6.42155 23.8405 6.36811C23.8944 6.32779 23.9614 6.30859 24.029 6.31371H24.7472C24.8837 6.30027 25.0066 6.39467 25.0267 6.52811L25.108 6.79371C25.4037 6.59307 25.7235 6.42987 26.0602 6.30731C26.3381 6.21195 26.6303 6.16235 26.9247 6.16011C27.4369 6.11691 27.929 6.36555 28.1922 6.80011C28.489 6.59915 28.8114 6.43787 29.151 6.32011C29.4506 6.22187 29.7646 6.17227 30.0805 6.17291C30.4796 6.14923 30.8709 6.28811 31.1627 6.55691C31.4318 6.84747 31.5703 7.23307 31.5462 7.62571V11.0785C31.5514 11.1451 31.5319 11.211 31.491 11.2641C31.4367 11.3089 31.3662 11.3297 31.296 11.3217H30.3502C30.2339 11.3432 30.1218 11.2676 30.1 11.1528C30.0951 11.1272 30.0951 11.1009 30.1 11.0753V7.92651C30.1 7.48075 29.8975 7.25771 29.4922 7.25771C29.1146 7.26187 28.7425 7.34955 28.4035 7.51371V11.0785C28.409 11.1451 28.3895 11.211 28.3482 11.2641C28.294 11.3089 28.2234 11.3297 28.1532 11.3217H27.1977C27.0814 11.3432 26.9693 11.2676 26.9475 11.1528C26.9426 11.1272 26.9426 11.1009 26.9475 11.0753V7.92651C26.9475 7.48075 26.745 7.25771 26.3397 7.25771C25.9575 7.25995 25.5812 7.35115 25.2412 7.52331V11.0753C25.2464 11.1419 25.2269 11.2078 25.186 11.2609C25.1317 11.3057 25.0612 11.3265 24.991 11.3185L24.0322 11.3217Z" fill="#00A8E1"/>
<path d="M35.0235 11.4687C34.3232 11.5138 33.6351 11.2719 33.1223 10.7999C32.6533 10.2713 32.419 9.57973 32.4723 8.87989C32.4255 8.15445 32.6627 7.43861 33.1353 6.87989C33.6277 6.37941 34.317 6.11413 35.0235 6.15349C35.5461 6.12277 36.0622 6.27989 36.4763 6.59509C36.8266 6.88949 37.0197 7.32629 36.9995 7.77909C37.0233 8.22229 36.8084 8.64533 36.434 8.89269C35.93 9.17621 35.3524 9.30741 34.7733 9.27029C34.445 9.27413 34.1174 9.23765 33.7983 9.16149C33.8002 9.51541 33.9452 9.85397 34.2013 10.1023C34.5045 10.3141 34.8737 10.4149 35.2445 10.3871C35.4259 10.3871 35.6072 10.3753 35.7873 10.3519C36.0349 10.3141 36.28 10.2626 36.5218 10.1983H36.5803H36.629C36.7418 10.1983 36.798 10.2741 36.798 10.4255V10.8767C36.8042 10.9532 36.7886 11.0297 36.7525 11.0975C36.7064 11.1509 36.6453 11.1897 36.577 11.2095C36.0798 11.3897 35.5533 11.4777 35.0235 11.4687ZM34.6985 8.38709C34.9543 8.40533 35.2101 8.35221 35.4363 8.23349C35.5916 8.12885 35.6794 7.95125 35.667 7.76629C35.667 7.35445 35.4178 7.14869 34.9195 7.14869C34.2803 7.14869 33.9111 7.53493 33.8113 8.30709C34.1015 8.36181 34.3966 8.38869 34.692 8.38709H34.6985Z" fill="#00A8E1"/>
<path d="M21.819 5.53286C21.5973 5.54374 21.3799 5.47046 21.2112 5.32806C21.0546 5.18374 20.9704 4.97894 20.9805 4.76806C20.9694 4.5559 21.0536 4.34982 21.2112 4.20486C21.5674 3.92422 22.0738 3.92422 22.43 4.20486C22.5866 4.34918 22.6708 4.55398 22.6607 4.76486C22.6708 4.97574 22.5866 5.18054 22.43 5.32486C22.261 5.46918 22.0422 5.54374 21.819 5.53286ZM21.3412 11.3249C21.2249 11.3463 21.1127 11.2708 21.091 11.1559C21.0861 11.1303 21.0861 11.1041 21.091 11.0785V6.56006C21.0828 6.49094 21.104 6.4215 21.1495 6.36806C21.2034 6.32774 21.2704 6.30854 21.338 6.31366H22.2967C22.3663 6.30662 22.4361 6.32582 22.4917 6.36806C22.5346 6.42278 22.5541 6.49158 22.547 6.56006V11.0785C22.5525 11.145 22.533 11.2109 22.4917 11.2641C22.4374 11.3089 22.3669 11.3297 22.2967 11.3217L21.3412 11.3249Z" fill="#00A8E1"/>
</g>
<defs>
<clipPath id="clip0_2039_6597">
<rect width="26" height="16" fill="white" transform="translate(11 4)"/>
</clipPath>
</defs>
</svg>
