<svg width="31" height="31" viewBox="0 0 31 31" fill="none" xmlns="http://www.w3.org/2000/svg">
<g clip-path="url(#clip0_2227_12629)">
<path d="M15.4344 30.4C23.8291 30.4 30.6344 23.5947 30.6344 15.2C30.6344 6.80527 23.8291 0 15.4344 0C7.03965 0 0.234375 6.80527 0.234375 15.2C0.234375 23.5947 7.03965 30.4 15.4344 30.4Z" fill="black"/>
<path d="M25.5734 15.2C25.5764 15.4082 25.5506 15.6161 25.4959 15.8171C25.4412 16.0181 25.3583 16.2108 25.2496 16.3886C25.1413 16.5665 25.0083 16.7284 24.8548 16.8693C24.7013 17.0103 24.5288 17.1289 24.3422 17.2216C24.3464 17.2771 24.3498 17.3329 24.3517 17.3888C24.3563 17.5002 24.3563 17.6118 24.3517 17.7232C24.3498 17.7791 24.3464 17.8349 24.3422 17.8904C24.3422 21.2952 20.375 24.0616 15.4806 24.0616C10.5862 24.0616 6.61899 21.2952 6.61899 17.8904C6.61481 17.8349 6.61139 17.7791 6.60949 17.7232C6.60492 17.6118 6.60492 17.5002 6.60949 17.3888C6.61139 17.3329 6.61481 17.2771 6.61899 17.2216C6.32668 17.0872 6.06705 16.891 5.85808 16.6464C5.6491 16.4018 5.49577 16.1147 5.40869 15.805C5.32176 15.4951 5.30324 15.1701 5.35442 14.8524C5.4056 14.5347 5.52526 14.2319 5.70509 13.965C5.88477 13.6982 6.12035 13.4736 6.39549 13.307C6.67063 13.1403 6.97873 13.0355 7.29843 12.9998C7.61817 12.964 7.94188 12.9981 8.24712 13.0998C8.55237 13.2015 8.83185 13.3683 9.06619 13.5888C9.50123 13.2939 9.95703 13.0309 10.43 12.8018C10.9031 12.5731 11.3922 12.3785 11.8934 12.2204C12.3946 12.0623 12.9069 11.9411 13.4256 11.8571C13.9443 11.7732 14.4687 11.7272 14.9942 11.7192L16.119 6.4448C16.1315 6.38362 16.1562 6.32586 16.1916 6.27418C16.2265 6.22288 16.2718 6.1788 16.3238 6.14498C16.3763 6.11116 16.4348 6.08798 16.4963 6.07658C16.5575 6.06556 16.6206 6.0667 16.6814 6.08L20.4054 6.8248C20.7812 6.17918 21.5701 5.90254 22.2666 6.17158C22.9632 6.44062 23.3614 7.17592 23.2056 7.90628C23.0502 8.63664 22.3867 9.14584 21.6412 9.10746C20.8952 9.06908 20.2876 8.49452 20.2078 7.752L16.955 7.068L15.967 11.8104C16.4861 11.8214 17.004 11.8701 17.5163 11.9556C18.542 12.1265 19.5378 12.4447 20.4727 12.9002C20.9396 13.1275 21.3895 13.3881 21.819 13.68C22.1278 13.3835 22.5158 13.1828 22.9362 13.102C23.3566 13.021 23.7915 13.0633 24.1883 13.224C24.5852 13.3846 24.9271 13.6566 25.1729 14.0072C25.4187 14.3578 25.5578 14.7721 25.5734 15.2ZM10.4889 17.3018C10.5657 17.4861 10.6774 17.6537 10.8188 17.7946C10.9597 17.936 11.1273 18.0477 11.3116 18.1245C11.4961 18.2008 11.6938 18.24 11.8934 18.24C12.5082 18.24 13.0623 17.8695 13.2979 17.3018C13.5331 16.7337 13.4028 16.0801 12.968 15.6454C12.5333 15.2106 11.8797 15.0803 11.3116 15.3155C10.7439 15.5511 10.3734 16.1052 10.3734 16.72C10.3734 16.9195 10.4125 17.1171 10.4889 17.3018ZM19.1947 20.9505C19.2726 20.8745 19.3171 20.7708 19.3186 20.6621C19.3201 20.5531 19.2779 20.4482 19.2019 20.3703C19.1259 20.2924 19.0222 20.2479 18.9135 20.2464C18.8045 20.2449 18.6996 20.2871 18.6118 20.3528C18.3832 20.5167 18.1412 20.661 17.8883 20.7841C17.6353 20.9072 17.3725 21.0088 17.1024 21.0877C16.8326 21.1664 16.5564 21.2222 16.2771 21.2545C15.9974 21.2868 15.7158 21.2952 15.435 21.28C15.1546 21.2925 14.8734 21.2811 14.5948 21.2462C14.3162 21.2116 14.0411 21.1531 13.7725 21.0714C13.5035 20.9901 13.2424 20.8859 12.9912 20.7605C12.74 20.6351 12.4999 20.4885 12.2734 20.3224C12.1947 20.2578 12.0948 20.2247 11.993 20.2297C11.8911 20.2346 11.795 20.2776 11.7228 20.3494C11.651 20.4216 11.608 20.5177 11.6031 20.6196C11.5981 20.7214 11.6312 20.8213 11.6958 20.9C11.9629 21.1014 12.2468 21.2792 12.5443 21.432C12.8419 21.5848 13.1523 21.7113 13.4715 21.8109C13.7907 21.9104 14.1179 21.9822 14.4497 22.0259C14.7814 22.0693 15.1162 22.0841 15.4502 22.0704C15.7842 22.0841 16.119 22.0693 16.4507 22.0259C17.1152 21.9385 17.7597 21.7376 18.3561 21.432C18.6536 21.2792 18.9375 21.1014 19.2046 20.9L19.1947 20.9505ZM18.9158 18.3616C19.1218 18.3639 19.3262 18.324 19.5166 18.2449C19.707 18.1655 19.8791 18.0485 20.0227 17.9007C20.1664 17.7528 20.2781 17.5773 20.3518 17.3846C20.4256 17.1922 20.4593 16.9867 20.451 16.7808C20.451 16.166 20.0805 15.6119 19.5128 15.3763C18.9447 15.1411 18.2911 15.2714 17.8564 15.7062C17.4216 16.1409 17.2913 16.7945 17.5265 17.3626C17.7621 17.9303 18.3162 18.3008 18.931 18.3008L18.9158 18.3616Z" fill="white"/>
</g>
<defs>
<clipPath id="clip0_2227_12629">
<rect width="30.4" height="30.4" fill="white" transform="translate(0.234375)"/>
</clipPath>
</defs>
</svg>
