<svg width="74" height="74" viewBox="0 0 74 74" fill="none" xmlns="http://www.w3.org/2000/svg">
<path d="M64.4724 34.2868C64.4724 49.3643 53.5266 63.4859 38.5724 67.6176C37.5549 67.8951 36.4448 67.8951 35.4273 67.6176C20.4732 63.4859 9.52734 49.3643 9.52734 34.2868V20.7509C9.52734 18.2225 11.4391 15.3551 13.8132 14.3992L30.9873 7.36932C34.8415 5.79682 39.189 5.79682 43.0432 7.36932L60.2173 14.3992C62.5607 15.3551 64.5032 18.2225 64.5032 20.7509L64.4724 34.2868Z" stroke="#507E48" stroke-width="4.625" stroke-linecap="round" stroke-linejoin="round"/>
<path d="M37.0007 38.5416C40.4064 38.5416 43.1673 35.7807 43.1673 32.3749C43.1673 28.9692 40.4064 26.2083 37.0007 26.2083C33.5949 26.2083 30.834 28.9692 30.834 32.3749C30.834 35.7807 33.5949 38.5416 37.0007 38.5416Z" stroke="#507E48" stroke-width="4.625" stroke-miterlimit="10" stroke-linecap="round" stroke-linejoin="round"/>
<path d="M37.001 38.5416V47.7916" stroke="#507E48" stroke-width="4.625" stroke-miterlimit="10" stroke-linecap="round" stroke-linejoin="round"/>
</svg>
