<svg width="87" height="88" viewBox="0 0 87 88" fill="none" xmlns="http://www.w3.org/2000/svg">
<path fill-rule="evenodd" clip-rule="evenodd" d="M52.3206 80.1737C65.2738 80.1737 75.7741 69.6735 75.7741 56.7203C75.7741 43.7671 65.2738 33.2668 52.3206 33.2668C39.3675 33.2668 28.8672 43.7671 28.8672 56.7203C28.8672 69.6735 39.3675 80.1737 52.3206 80.1737Z" fill="#9BD9F0"/>
<path fill-rule="evenodd" clip-rule="evenodd" d="M43.2988 13.4216C26.3602 13.4216 12.6289 27.153 12.6289 44.0915C12.6289 61.03 26.3602 74.7614 43.2988 74.7614C60.2372 74.7614 73.9687 61.03 73.9687 44.0915C73.9687 27.153 60.2372 13.4216 43.2988 13.4216ZM16.2371 44.0915C16.2371 29.1458 28.3531 17.0299 43.2988 17.0299C58.2444 17.0299 70.3605 29.1458 70.3605 44.0915C70.3605 59.0371 58.2444 71.1532 43.2988 71.1532C28.3531 71.1532 16.2371 59.0371 16.2371 44.0915ZM45.1029 24.2463C45.1029 23.2499 44.295 22.4422 43.2988 22.4422C42.3026 22.4422 41.4947 23.2499 41.4947 24.2463V42.2874H27.0618C26.0654 42.2874 25.2577 43.0953 25.2577 44.0915C25.2577 45.0878 26.0654 45.8956 27.0618 45.8956H43.2988C44.295 45.8956 45.1029 45.0878 45.1029 44.0915V24.2463Z" fill="#384A62"/>
</svg>
