<svg width="88" height="88" viewBox="0 0 88 88" fill="none" xmlns="http://www.w3.org/2000/svg">
<path fill-rule="evenodd" clip-rule="evenodd" d="M60.7349 58.8746H74.4461C75.6369 58.8746 76.6111 57.9004 76.6111 56.7096V42.2767C76.6111 41.086 75.6369 40.1118 74.4461 40.1118H60.7349C55.5751 40.1118 51.3535 44.3334 51.3535 49.4932C51.3535 54.653 55.5751 58.8746 60.7349 58.8746ZM55.6834 49.4932C55.6834 46.7149 57.9566 44.4417 60.7349 44.4417H72.2812V54.5447H60.7349C57.9566 54.5447 55.6834 52.2715 55.6834 49.4932ZM63.9823 49.4932C63.9823 50.2109 63.6972 50.8992 63.1897 51.4067C62.6822 51.9142 61.9938 52.1994 61.2761 52.1994C60.5584 52.1994 59.8701 51.9142 59.3626 51.4067C58.8551 50.8992 58.57 50.2109 58.57 49.4932C58.57 48.7755 58.8551 48.0871 59.3626 47.5796C59.8701 47.0721 60.5584 46.787 61.2761 46.787C61.9938 46.787 62.6822 47.0721 63.1897 47.5796C63.6972 48.0871 63.9823 48.7755 63.9823 49.4932Z" fill="#E384B6"/>
<path fill-rule="evenodd" clip-rule="evenodd" d="M65.4607 18.3167L65.3284 24.2354H38.6456L65.4607 18.3167ZM18.4215 24.2342L67.1926 13.4805C67.8421 13.3362 68.5277 13.5166 69.0328 13.9135C69.538 14.3465 69.8266 14.9599 69.8266 15.6455L69.6535 24.2342H70.837C74.0122 24.2342 76.6101 26.8321 76.6101 30.0074V42.2753C76.6101 41.0846 75.6359 40.1104 74.4452 40.1104H72.2802V30.0074C72.2802 29.2136 71.6308 28.5641 70.837 28.5641H17.4353C16.6415 28.5641 15.992 29.2136 15.992 30.0074V68.9762C15.992 69.77 16.6415 70.4195 17.4353 70.4195H70.837C71.6308 70.4195 72.2802 69.77 72.2802 68.9762V58.8732H74.4452C75.6359 58.8732 76.6101 57.8989 76.6101 56.7082V68.9762C76.6101 72.1514 74.0122 74.7493 70.837 74.7493H17.4353C14.26 74.7493 11.6621 72.1514 11.6621 68.9762V30.0074C11.6621 26.8321 14.26 24.2342 17.4353 24.2342H18.4215Z" fill="#384A62"/>
<path fill-rule="evenodd" clip-rule="evenodd" d="M65.4611 18.3168L65.3288 24.2354H69.655L69.827 15.6467C69.827 14.9611 69.5384 14.3477 69.0332 13.9147C68.5281 13.5178 67.8425 13.3374 67.193 13.4817L18.4219 24.2342H38.6472L65.4611 18.3168ZM63.9817 49.4918C63.9817 50.2095 63.6966 50.8978 63.1891 51.4053C62.6816 51.9128 61.9932 52.198 61.2755 52.198C60.5578 52.198 59.8695 51.9128 59.362 51.4053C58.8545 50.8978 58.5694 50.2095 58.5694 49.4918C58.5694 48.7741 58.8545 48.0858 59.362 47.5782C59.8695 47.0707 60.5578 46.7856 61.2755 46.7856C61.9932 46.7856 62.6816 47.0707 63.1891 47.5782C63.6966 48.0858 63.9817 48.7741 63.9817 49.4918Z" fill="black" fill-opacity="0.3"/>
</svg>
