<svg width="88" height="88" viewBox="0 0 88 88" fill="none" xmlns="http://www.w3.org/2000/svg">
<path fill-rule="evenodd" clip-rule="evenodd" d="M43.8983 12.4062V75.3336L27.9139 64.0399C22.7181 59.8183 19.3624 53.5761 18.749 46.9008L15.9707 17.0248L43.8983 12.4062Z" fill="#A7F5E7"/>
<path fill-rule="evenodd" clip-rule="evenodd" d="M74.5319 13.0921L44.2589 8.07662C44.0424 8.04054 43.7898 8.04054 43.5733 8.07662L13.3003 13.0921C12.1818 13.2725 11.388 14.2828 11.4962 15.4013L14.4189 47.298C15.1405 55.1278 19.0735 62.4525 25.3157 67.468L42.6712 79.7359C43.0321 80.0246 43.4651 80.1328 43.898 80.1328C44.331 80.1328 44.764 80.0246 45.1609 79.7359L62.4804 67.468C62.5165 67.468 62.5526 67.4319 62.5886 67.3958C68.7226 62.4525 72.6556 55.1278 73.3772 47.298L76.336 15.4013C76.4081 14.2828 75.6504 13.2725 74.5319 13.0921ZM69.0834 46.9011C68.47 53.5763 65.1144 59.7824 59.9546 64.0041L43.898 75.3339L27.9136 64.0401C22.7178 59.8185 19.3621 53.5763 18.7487 46.9011L15.9704 17.025L43.898 12.4065L71.8257 17.025L69.0834 46.9011Z" fill="#384A62"/>
<path fill-rule="evenodd" clip-rule="evenodd" d="M43.898 80.133V75.334L27.9136 64.0403C22.7178 59.8187 19.3621 53.5764 18.7487 46.9012L15.9704 17.0251L43.898 12.4066V8.05029C43.7862 8.05029 43.6755 8.05992 43.5733 8.07675L13.3003 13.0922C12.1818 13.2726 11.388 14.2829 11.4962 15.4014L14.4189 47.2981C15.1405 55.128 19.0735 62.4527 25.3157 67.4681L42.6712 79.7361C43.0321 80.0247 43.465 80.133 43.898 80.133Z" fill="black" fill-opacity="0.3"/>
</svg>
