<svg width="16" height="16" viewBox="0 0 16 16" fill="none" xmlns="http://www.w3.org/2000/svg">
<path d="M6.10671 7.74668C6.08671 7.74668 6.07337 7.74668 6.05337 7.74668C6.02004 7.74001 5.97337 7.74001 5.93337 7.74668C4.00004 7.68668 2.54004 6.16668 2.54004 4.29334C2.54004 2.38668 4.09337 0.833344 6.00004 0.833344C7.90671 0.833344 9.46004 2.38668 9.46004 4.29334C9.45337 6.16668 7.98671 7.68668 6.12671 7.74668C6.12004 7.74668 6.11337 7.74668 6.10671 7.74668ZM6.00004 1.83334C4.64671 1.83334 3.54004 2.94001 3.54004 4.29334C3.54004 5.62668 4.58004 6.70001 5.90671 6.74668C5.94671 6.74001 6.03337 6.74001 6.12004 6.74668C7.42671 6.68668 8.45337 5.61334 8.46004 4.29334C8.46004 2.94001 7.35337 1.83334 6.00004 1.83334Z" fill="#787486"/>
<path d="M11.0266 7.83332C11.0066 7.83332 10.9866 7.83332 10.9666 7.82666C10.6932 7.85332 10.4132 7.65999 10.3866 7.38666C10.3599 7.11332 10.5266 6.86666 10.7999 6.83332C10.8799 6.82666 10.9666 6.82666 11.0399 6.82666C12.0132 6.77332 12.7732 5.97332 12.7732 4.99332C12.7732 3.97999 11.9532 3.15999 10.9399 3.15999C10.6666 3.16666 10.4399 2.93999 10.4399 2.66666C10.4399 2.39332 10.6666 2.16666 10.9399 2.16666C12.4999 2.16666 13.7732 3.43999 13.7732 4.99999C13.7732 6.53332 12.5732 7.77332 11.0466 7.83332C11.0399 7.83332 11.0332 7.83332 11.0266 7.83332Z" fill="#787486"/>
<path d="M6.11307 15.0333C4.80641 15.0333 3.49307 14.7 2.49974 14.0333C1.57307 13.42 1.06641 12.58 1.06641 11.6667C1.06641 10.7533 1.57307 9.90666 2.49974 9.28666C4.49974 7.95999 7.73974 7.95999 9.72641 9.28666C10.6464 9.89999 11.1597 10.74 11.1597 11.6533C11.1597 12.5667 10.6531 13.4133 9.72641 14.0333C8.72641 14.7 7.41974 15.0333 6.11307 15.0333ZM3.05307 10.1267C2.41307 10.5533 2.06641 11.1 2.06641 11.6733C2.06641 12.24 2.41974 12.7867 3.05307 13.2067C4.71307 14.32 7.51307 14.32 9.17307 13.2067C9.81307 12.78 10.1597 12.2333 10.1597 11.66C10.1597 11.0933 9.80641 10.5467 9.17307 10.1267C7.51307 9.01999 4.71307 9.01999 3.05307 10.1267Z" fill="#787486"/>
<path d="M12.2268 13.8333C11.9934 13.8333 11.7868 13.6733 11.7401 13.4333C11.6868 13.16 11.8601 12.9 12.1268 12.84C12.5468 12.7533 12.9334 12.5867 13.2334 12.3533C13.6134 12.0667 13.8201 11.7067 13.8201 11.3267C13.8201 10.9467 13.6134 10.5867 13.2401 10.3067C12.9468 10.08 12.5801 9.92001 12.1468 9.82001C11.8801 9.76001 11.7068 9.49335 11.7668 9.22001C11.8268 8.95335 12.0934 8.78001 12.3668 8.84001C12.9401 8.96668 13.4401 9.19335 13.8468 9.50668C14.4668 9.97335 14.8201 10.6333 14.8201 11.3267C14.8201 12.02 14.4601 12.68 13.8401 13.1533C13.4268 13.4733 12.9068 13.7067 12.3334 13.82C12.2934 13.8333 12.2601 13.8333 12.2268 13.8333Z" fill="#787486"/>
</svg>
