<svg width="65" height="64" viewBox="0 0 65 64" fill="none" xmlns="http://www.w3.org/2000/svg">
<path fill-rule="evenodd" clip-rule="evenodd" d="M32.3791 8.69689V54.9872L20.6207 46.6794C16.7985 43.5739 14.3301 38.982 13.8789 34.0716L11.8351 12.0943L32.3791 8.69689Z" fill="#A7F5E7"/>
<path fill-rule="evenodd" clip-rule="evenodd" d="M54.9131 9.20134L32.6438 5.51192C32.4846 5.48537 32.2988 5.48537 32.1395 5.51192L9.87028 9.20134C9.04746 9.33405 8.46352 10.0772 8.54315 10.9001L10.6931 34.3637C11.224 40.1235 14.1171 45.5116 18.709 49.201L31.476 58.2255C31.7414 58.4379 32.0599 58.5175 32.3784 58.5175C32.6969 58.5175 33.0154 58.4379 33.3074 58.2255L46.0479 49.201C46.0744 49.201 46.1009 49.1745 46.1275 49.148C50.6397 45.5116 53.5329 40.1235 54.0637 34.3637L56.2402 10.9001C56.2933 10.0772 55.7359 9.33405 54.9131 9.20134ZM50.9052 34.0718C50.4539 38.9821 47.9855 43.5475 44.1899 46.653L32.3784 54.9873L20.62 46.6795C16.7979 43.574 14.3294 38.9821 13.8782 34.0718L11.8344 12.0945L32.3784 8.69703L52.9224 12.0945L50.9052 34.0718Z" fill="#384A62"/>
<path fill-rule="evenodd" clip-rule="evenodd" d="M32.3784 58.5176V54.9874L20.62 46.6796C16.7979 43.5741 14.3294 38.9823 13.8782 34.0719L11.8344 12.0946L32.3784 8.69714V5.49256C32.2961 5.49256 32.2147 5.49964 32.1395 5.51203L9.87028 9.20145C9.04746 9.33416 8.46352 10.0774 8.54315 10.9002L10.6931 34.3638C11.224 40.1236 14.1171 45.5117 18.709 49.2012L31.476 58.2256C31.7414 58.438 32.0599 58.5176 32.3784 58.5176Z" fill="black" fill-opacity="0.3"/>
</svg>
