<svg width="27" height="26" viewBox="0 0 27 26" fill="none" xmlns="http://www.w3.org/2000/svg">
<path fill-rule="evenodd" clip-rule="evenodd" d="M20.9666 21.6893L13.0934 16.3781L23.6681 4.64515L20.9666 21.6893ZM9.94963 20.1859L9.2006 14.9642C9.16263 14.6972 8.97751 14.4757 8.72214 14.3904L4.92032 12.8163L20.5468 5.21727L10.8114 15.608C10.6491 15.7566 10.5345 15.9566 10.5155 16.194C10.4965 16.4314 10.6491 16.6144 10.8114 16.7701L12.1654 17.976L9.94963 20.1859ZM25.9864 1.0925C25.7478 0.90584 25.4286 0.87077 25.1562 0.997476L1.18728 12.3104C0.881131 12.4553 0.692649 12.7788 0.708991 13.1272C0.727513 13.4768 0.947591 13.7777 1.26681 13.8886L7.3255 15.9849L8.34309 23.3858C8.38667 23.7049 8.59913 23.9696 8.89329 24.0714C9.18854 24.1732 9.51104 24.0918 9.73003 23.8655L13.6282 19.8177L21.7755 25.1054L21.7875 25.1133L21.7929 25.1167C21.9248 25.2027 22.0751 25.2457 22.2255 25.2457C22.342 25.2457 22.4586 25.2197 22.5676 25.1688C22.8171 25.0477 22.9925 24.8056 23.0339 24.5228L26.3024 1.89573C26.347 1.58914 26.225 1.2803 25.9864 1.0925Z" fill="#1ED67D"/>
</svg>
