<svg width="31" height="18" viewBox="0 0 31 18" fill="none" xmlns="http://www.w3.org/2000/svg">
<path fill-rule="evenodd" clip-rule="evenodd" d="M29.7698 0.43606L29.8374 0.474898C29.9169 0.523484 29.9928 0.579999 30.0641 0.644423L30.1418 0.719804L30.2083 0.793615L30.3008 0.915099L30.3823 1.04824L30.4509 1.19186L30.5018 1.33434L30.5288 1.43691L30.5586 1.61903L30.5665 1.77469V13.4791C30.5665 14.3199 29.8849 15.0015 29.0441 15.0015C28.2559 15.0015 27.6076 14.4024 27.5296 13.6348L27.5218 13.4791L27.5215 5.34838L17.9201 14.5768C17.3729 15.1026 16.5308 15.1402 15.9416 14.6894L15.8103 14.5768L10.7755 9.73809L2.69639 17.5029C2.13059 18.0466 1.25337 18.0662 0.665246 17.5735L0.543863 17.4601C0.000108182 16.8943 -0.0194633 16.0171 0.473218 15.429L0.586629 15.3076L9.72083 6.52926C10.268 6.00341 11.11 5.96585 11.6993 6.41657L11.8306 6.52926L16.864 11.3665L25.2632 3.29626L16.8652 3.29705C16.0244 3.29705 15.3428 2.61547 15.3428 1.77469C15.3428 0.986454 15.9419 0.338137 16.7095 0.260177L16.8652 0.252319L29.0917 0.253062L29.1603 0.256683L29.3186 0.277154L29.4659 0.311661L29.6215 0.365631L29.7698 0.43606Z" fill="#FFA876"/>
</svg>
