<svg width="19" height="32" viewBox="0 0 19 32" fill="none" xmlns="http://www.w3.org/2000/svg">
<path fill-rule="evenodd" clip-rule="evenodd" d="M3.99335 31.0868C3.78596 31.0868 3.57473 31.0355 3.38014 30.9293C2.81175 30.6195 2.56595 29.9333 2.80535 29.3316L7.08112 18.6409L1.64423 19.5473C1.19489 19.6177 0.732748 19.45 0.443429 19.0941C0.15155 18.7382 0.0734592 18.2543 0.238601 17.8254L6.63946 1.1832C6.83021 0.689054 7.30515 0.36261 7.83514 0.36261H15.5162C15.9694 0.36261 16.3905 0.603282 16.6197 0.993735C16.8501 1.38419 16.8552 1.86809 16.635 2.26367L11.5246 11.4655L16.5864 10.6219C17.0972 10.5425 17.6093 10.7679 17.8832 11.207C18.1559 11.6448 18.1393 12.2068 17.8371 12.6279L5.03541 30.5504C4.78833 30.8986 4.39532 31.0868 3.99335 31.0868Z" fill="#9F72FF"/>
</svg>
