<svg width="15" height="16" viewBox="0 0 15 16" fill="none" xmlns="http://www.w3.org/2000/svg">
<path d="M1.25 1.29953H2.3375C3.0125 1.29953 3.54375 1.88078 3.4875 2.54953L2.96875 8.77452C2.88125 9.79327 3.6875 10.6683 4.7125 10.6683H11.3688C12.2688 10.6683 13.0563 9.93078 13.125 9.03703L13.4625 4.34953C13.5375 3.31203 12.75 2.46828 11.7062 2.46828H3.6375" stroke="#292D32" stroke-width="1.25" stroke-miterlimit="10" stroke-linecap="round" stroke-linejoin="round"/>
<path d="M10.1562 13.7995C10.5877 13.7995 10.9375 13.4498 10.9375 13.0183C10.9375 12.5868 10.5877 12.237 10.1562 12.237C9.72478 12.237 9.375 12.5868 9.375 13.0183C9.375 13.4498 9.72478 13.7995 10.1562 13.7995Z" stroke="#292D32" stroke-width="1.25" stroke-miterlimit="10" stroke-linecap="round" stroke-linejoin="round"/>
<path d="M5.15625 13.7995C5.58772 13.7995 5.9375 13.4498 5.9375 13.0183C5.9375 12.5868 5.58772 12.237 5.15625 12.237C4.72478 12.237 4.375 12.5868 4.375 13.0183C4.375 13.4498 4.72478 13.7995 5.15625 13.7995Z" stroke="#292D32" stroke-width="1.25" stroke-miterlimit="10" stroke-linecap="round" stroke-linejoin="round"/>
<path d="M5.625 5.04953H13.125" stroke="#292D32" stroke-width="1.25" stroke-miterlimit="10" stroke-linecap="round" stroke-linejoin="round"/>
</svg>
