<svg width="61" height="61" viewBox="0 0 61 61" fill="none" xmlns="http://www.w3.org/2000/svg">
<path d="M53.4004 28.5175V39.9295C53.4004 51.3416 48.8507 55.9167 37.4132 55.9167H23.7137C22.2396 55.9167 20.8924 55.8405 19.647 55.6626" stroke="#292D32" stroke-width="1.5" stroke-linecap="round" stroke-linejoin="round"/>
<path d="M7.72656 39.4467V28.5175" stroke="#292D32" stroke-width="1.5" stroke-linecap="round" stroke-linejoin="round"/>
<path d="M30.5764 30.5C35.2276 30.5 38.6589 26.7131 38.2014 22.0618L36.4983 5.08337H24.6288L22.9259 22.0618C22.4684 26.7131 25.9251 30.5 30.5764 30.5Z" stroke="#292D32" stroke-width="1.5" stroke-linecap="round" stroke-linejoin="round"/>
<path d="M46.5888 30.5C51.723 30.5 55.4846 26.3316 54.9763 21.2229L54.2646 14.2333C53.3496 7.62498 50.8079 5.08337 44.1488 5.08337H36.3967L38.1759 22.9005C38.6334 27.0942 42.3951 30.5 46.5888 30.5Z" stroke="#292D32" stroke-width="1.5" stroke-linecap="round" stroke-linejoin="round"/>
<path d="M14.4112 30.5C18.6049 30.5 22.392 27.0942 22.7986 22.9005L23.3579 17.2835L24.5778 5.08337H16.8258C10.1666 5.08337 7.625 7.62498 6.71 14.2333L5.99826 21.2229C5.48993 26.3316 9.27701 30.5 14.4112 30.5Z" stroke="#292D32" stroke-width="1.5" stroke-linecap="round" stroke-linejoin="round"/>
<path d="M22.875 48.2917C22.875 50.1979 22.3412 52.0026 21.4007 53.5276C20.9178 54.341 20.3332 55.078 19.647 55.6626C19.5707 55.7642 19.4946 55.8404 19.3929 55.9167C17.6137 57.5179 15.2754 58.4583 12.7083 58.4583C9.60746 58.4583 6.83697 57.0603 5.00697 54.8745C4.95613 54.7982 4.88002 54.7475 4.82919 54.6713C4.52419 54.3154 4.24459 53.9343 4.01584 53.5276C3.07542 52.0026 2.54163 50.1979 2.54163 48.2917C2.54163 45.0892 4.01579 42.2171 6.35413 40.3617C6.78621 40.0058 7.24365 39.7009 7.72657 39.4467C9.20074 38.608 10.9037 38.125 12.7083 38.125C15.25 38.125 17.5374 39.0399 19.3166 40.5903C19.6216 40.8191 19.9012 41.0988 20.1554 41.3784C21.8329 43.2084 22.875 45.6229 22.875 48.2917Z" stroke="#292D32" stroke-width="1.5" stroke-miterlimit="10" stroke-linecap="round" stroke-linejoin="round"/>
<path d="M16.4954 48.2407H8.92126" stroke="#292D32" stroke-width="1.5" stroke-miterlimit="10" stroke-linecap="round" stroke-linejoin="round"/>
<path d="M12.7084 44.53V52.1296" stroke="#292D32" stroke-width="1.5" stroke-miterlimit="10" stroke-linecap="round" stroke-linejoin="round"/>
</svg>
