<svg width="16" height="16" viewBox="0 0 16 16" fill="none" xmlns="http://www.w3.org/2000/svg">
<path d="M8.00065 15.1667C4.04732 15.1667 0.833984 11.9533 0.833984 8C0.833984 4.04667 4.04732 0.833332 8.00065 0.833332C11.954 0.833332 15.1673 4.04667 15.1673 8C15.1673 11.9533 11.954 15.1667 8.00065 15.1667ZM8.00065 1.83333C4.60065 1.83333 1.83398 4.6 1.83398 8C1.83398 11.4 4.60065 14.1667 8.00065 14.1667C11.4007 14.1667 14.1673 11.4 14.1673 8C14.1673 4.6 11.4007 1.83333 8.00065 1.83333Z" fill="#292D32"/>
<path d="M7.05297 10.3867C6.91964 10.3867 6.79297 10.3333 6.69964 10.24L4.81297 8.35333C4.61964 8.16 4.61964 7.84 4.81297 7.64667C5.0063 7.45333 5.3263 7.45333 5.51964 7.64667L7.05297 9.18L10.4796 5.75333C10.673 5.56 10.993 5.56 11.1863 5.75333C11.3796 5.94667 11.3796 6.26667 11.1863 6.46L7.4063 10.24C7.31297 10.3333 7.1863 10.3867 7.05297 10.3867Z" fill="#292D32"/>
</svg>
