<svg width="65" height="65" viewBox="0 0 65 65" fill="none" xmlns="http://www.w3.org/2000/svg">
<path fill-rule="evenodd" clip-rule="evenodd" d="M39.0277 58.8432C48.5562 58.8432 56.2804 51.119 56.2804 41.5905C56.2804 32.0619 48.5562 24.3378 39.0277 24.3378C29.4992 24.3378 21.775 32.0619 21.775 41.5905C21.775 51.119 29.4992 58.8432 39.0277 58.8432Z" fill="#9BD9F0"/>
<path fill-rule="evenodd" clip-rule="evenodd" d="M32.3909 9.73932C19.9307 9.73932 9.82971 19.8403 9.82971 32.3005C9.82971 44.7607 19.9307 54.8618 32.3909 54.8618C44.8511 54.8618 54.9521 44.7607 54.9521 32.3005C54.9521 19.8403 44.8511 9.73932 32.3909 9.73932ZM12.484 32.3005C12.484 21.3062 21.3966 12.3936 32.3909 12.3936C43.3851 12.3936 52.2979 21.3062 52.2979 32.3005C52.2979 43.2948 43.3851 52.2075 32.3909 52.2075C21.3966 52.2075 12.484 43.2948 12.484 32.3005ZM33.7181 17.7021C33.7181 16.9692 33.1238 16.375 32.3909 16.375C31.6581 16.375 31.0638 16.9692 31.0638 17.7021V30.9734H20.4468C19.7138 30.9734 19.1196 31.5677 19.1196 32.3005C19.1196 33.0334 19.7138 33.6277 20.4468 33.6277H32.3909C33.1238 33.6277 33.7181 33.0334 33.7181 32.3005V17.7021Z" fill="#384A62"/>
</svg>
