<svg width="32" height="32" viewBox="0 0 32 32" fill="none" xmlns="http://www.w3.org/2000/svg">
<path fill-rule="evenodd" clip-rule="evenodd" d="M31.4715 16C31.4715 7.5977 24.6361 0.762268 16.2338 0.762268C7.83152 0.762268 0.996094 7.5977 0.996094 16C0.996094 24.4023 7.83152 31.2377 16.2338 31.2377C24.6361 31.2377 31.4715 24.4034 31.4715 16ZM23.9835 11.6811C24.7275 11.5928 25.454 11.3936 26.139 11.0903C25.636 11.8446 25.0015 12.5023 24.2658 13.032C24.5035 18.3086 20.5687 24.192 13.603 24.192C11.5642 24.1941 9.56805 23.6089 7.85324 22.5063C9.83815 22.7442 11.8364 22.1852 13.4098 20.952C12.6271 20.9369 11.8686 20.6777 11.2403 20.2105C10.6121 19.7434 10.1455 19.0916 9.90581 18.3463C10.4679 18.4541 11.0472 18.4322 11.5995 18.2823C9.79609 17.92 8.54924 16.2937 8.59038 14.5566C9.09667 14.8377 9.67381 15.0068 10.2875 15.0263C9.4934 14.4954 8.93132 13.682 8.71562 12.7515C8.49992 11.821 8.6468 10.8432 9.12638 10.0171C10.0685 11.176 11.2438 12.1238 12.5759 12.7991C13.9081 13.4745 15.3673 13.8622 16.859 13.9371C16.6726 13.1331 16.7564 12.2901 17.0972 11.5384C17.4381 10.7868 18.017 10.1683 18.7446 9.77873C19.4722 9.38912 20.3079 9.25004 21.1224 9.38299C21.937 9.51595 22.685 9.91353 23.251 10.5143C24.0913 10.3492 24.8972 10.0415 25.6338 9.60456C25.3533 10.4735 24.7669 11.211 23.9835 11.68V11.6811Z" fill="black"/>
</svg>
