<svg width="18" height="15" viewBox="0 0 18 15" fill="none" xmlns="http://www.w3.org/2000/svg">
<path d="M5.42799 14.9985C5.42799 14.9993 5.42869 15 5.42951 15C11.942 14.9991 15.5036 9.22801 15.5036 4.22393C15.5036 3.94418 15.7002 3.69618 15.9531 3.58077C16.5843 3.29254 17.3522 2.63852 17.2746 1.59945C17.2147 0.797828 16.2517 0.57537 15.5 0.860031C14.9288 1.07629 14.289 0.867767 13.775 0.538021C12.4495 -0.312249 10.7064 -0.159209 9.52445 1.02913C8.13284 2.4279 6.50358 4.53018 4.73939 3.64656C3.89947 3.22587 3.11483 2.68132 2.40973 2.02609C1.79045 1.4506 0.763252 1.56909 0.725988 2.41366C0.685351 3.33467 0.960197 4.25228 1.51008 4.97956C1.7098 5.24372 1.52952 5.64861 1.22014 5.53049C1.05264 5.46654 0.889466 5.38894 0.732107 5.29817C0.713772 5.2876 0.690691 5.30073 0.690691 5.3219C0.690691 6.7143 1.39961 7.95729 2.48345 8.61554C2.7385 8.77044 2.70919 9.17937 2.41129 9.16224C2.19372 9.14974 2.01158 9.35263 2.09925 9.55215C2.27325 9.94815 2.50755 10.3032 2.78801 10.606C3.44154 11.3117 3.74505 12.7691 2.82632 13.0537C2.18597 13.2521 1.5185 13.3545 0.842842 13.3538C0.628772 13.3533 0.530233 13.6415 0.716429 13.7471C2.16347 14.568 3.78033 14.9993 5.42649 14.997C5.42732 14.997 5.42799 14.9977 5.42799 14.9985Z" fill="#00ACFF"/>
</svg>
