<svg width="65" height="64" viewBox="0 0 65 64" fill="none" xmlns="http://www.w3.org/2000/svg">
<path fill-rule="evenodd" clip-rule="evenodd" d="M44.601 42.7536H54.6872C55.5631 42.7536 56.2798 42.0369 56.2798 41.161V30.544C56.2798 29.6681 55.5631 28.9514 54.6872 28.9514H44.601C40.8054 28.9514 37.7 32.0569 37.7 35.8525C37.7 39.6481 40.8054 42.7536 44.601 42.7536ZM40.8851 35.8525C40.8851 33.8087 42.5572 32.1365 44.601 32.1365H53.0947V39.5684H44.601C42.5572 39.5684 40.8851 37.8963 40.8851 35.8525ZM46.9899 35.8525C46.9899 36.3804 46.7801 36.8868 46.4068 37.2601C46.0335 37.6334 45.5271 37.8432 44.9992 37.8432C44.4712 37.8432 43.9649 37.6334 43.5915 37.2601C43.2182 36.8868 43.0085 36.3804 43.0085 35.8525C43.0085 35.3245 43.2182 34.8182 43.5915 34.4448C43.9649 34.0715 44.4712 33.8618 44.9992 33.8618C45.5271 33.8618 46.0335 34.0715 46.4068 34.4448C46.7801 34.8182 46.9899 35.3245 46.9899 35.8525Z" fill="#E384B6"/>
<path fill-rule="evenodd" clip-rule="evenodd" d="M48.0767 12.9187L47.9794 17.2726H28.3512L48.0767 12.9187ZM13.474 17.2717L49.3508 9.36115C49.8285 9.25498 50.3329 9.38769 50.7044 9.67966C51.076 9.99817 51.2884 10.4494 51.2884 10.9537L51.161 17.2717H52.0316C54.3673 17.2717 56.2784 19.1828 56.2784 21.5185V30.543C56.2784 29.6671 55.5617 28.9505 54.6858 28.9505H53.0933V21.5185C53.0933 20.9346 52.6155 20.4568 52.0316 20.4568H12.7485C12.1646 20.4568 11.6868 20.9346 11.6868 21.5185V50.1846C11.6868 50.7685 12.1646 51.2463 12.7485 51.2463H52.0316C52.6155 51.2463 53.0933 50.7685 53.0933 50.1846V42.7526H54.6858C55.5617 42.7526 56.2784 42.036 56.2784 41.1601V50.1846C56.2784 52.5203 54.3673 54.4314 52.0316 54.4314H12.7485C10.4128 54.4314 8.50171 52.5203 8.50171 50.1846V21.5185C8.50171 19.1828 10.4128 17.2717 12.7485 17.2717H13.474Z" fill="#384A62"/>
<path fill-rule="evenodd" clip-rule="evenodd" d="M48.0779 12.9188L47.9806 17.2726H51.1631L51.2896 10.9546C51.2896 10.4503 51.0772 9.99908 50.7057 9.68057C50.3341 9.3886 49.8297 9.25589 49.352 9.36206L13.4752 17.2718H28.3532L48.0779 12.9188ZM46.9897 35.8516C46.9897 36.3795 46.78 36.8859 46.4066 37.2592C46.0333 37.6325 45.527 37.8423 44.999 37.8423C44.471 37.8423 43.9647 37.6325 43.5914 37.2592C43.218 36.8859 43.0083 36.3795 43.0083 35.8516C43.0083 35.3236 43.218 34.8173 43.5914 34.4439C43.9647 34.0706 44.471 33.8609 44.999 33.8609C45.527 33.8609 46.0333 34.0706 46.4066 34.4439C46.78 34.8173 46.9897 35.3236 46.9897 35.8516Z" fill="black" fill-opacity="0.3"/>
</svg>
