<svg width="26" height="25" viewBox="0 0 26 25" fill="none" xmlns="http://www.w3.org/2000/svg">
<path d="M23.4697 2.90123C22.1168 1.54789 20.323 0.72508 18.4147 0.582424C16.5064 0.439768 14.6103 0.986746 13.0711 2.12389C11.4498 0.917901 9.43163 0.37105 7.42319 0.593455C5.41474 0.81586 3.56516 1.791 2.2469 3.32251C0.928643 4.85401 0.239629 6.82812 0.318611 8.8473C0.397593 10.8665 1.2387 12.7807 2.67256 14.2046L12.1664 23.6984C12.2848 23.8178 12.4258 23.9126 12.5811 23.9773C12.7364 24.042 12.9029 24.0753 13.0711 24.0753C13.2394 24.0753 13.4059 24.042 13.5612 23.9773C13.7165 23.9126 13.8575 23.8178 13.9759 23.6984L23.4697 14.2046C24.2122 13.4626 24.8012 12.5815 25.2031 11.6118C25.605 10.642 25.8118 9.60262 25.8118 8.55291C25.8118 7.5032 25.605 6.46378 25.2031 5.49404C24.8012 4.5243 24.2122 3.64325 23.4697 2.90123ZM21.6729 12.4078L13.0711 20.9968L4.46938 12.4078C3.71137 11.6466 3.19501 10.6786 2.98507 9.62506C2.77513 8.57156 2.88096 7.47952 3.28928 6.48593C3.6976 5.49234 4.39024 4.64146 5.2803 4.04001C6.17035 3.43856 7.2182 3.11333 8.29239 3.10512C9.72743 3.10864 11.1024 3.68155 12.1154 4.69804C12.2339 4.81749 12.3748 4.91229 12.5301 4.97699C12.6854 5.04168 12.8519 5.07499 13.0202 5.07499C13.1884 5.07499 13.355 5.04168 13.5103 4.97699C13.6655 4.91229 13.8065 4.81749 13.925 4.69804C14.9678 3.79439 16.315 3.32067 17.6939 3.37277C19.0728 3.42486 20.3804 3.99888 21.352 4.97864C22.3237 5.9584 22.8868 7.27072 22.9275 8.65C22.9681 10.0293 22.4832 11.3725 21.571 12.4078H21.6729Z" fill="white"/>
</svg>
