<svg width="16" height="17" viewBox="0 0 16 17" fill="none" xmlns="http://www.w3.org/2000/svg">
<path d="M3.28809 4.66296C3.16924 4.56402 3.16924 4.40223 3.28809 4.30329L7.76895 0.5734C7.83238 0.520477 7.91724 0.496717 8.00075 0.500363C8.08426 0.496718 8.16913 0.520603 8.23255 0.5734L12.7134 4.30361C12.8323 4.40255 12.8323 4.56434 12.7134 4.66328L11.4798 5.69021C11.361 5.78914 11.1666 5.78914 11.0478 5.69021L9.1789 4.1344V10.4646C9.1789 10.6044 9.04148 10.719 8.87326 10.719H7.12881C6.96089 10.719 6.82317 10.6046 6.82317 10.4646L6.82302 4.1344L4.95413 5.69021C4.83529 5.78914 4.64094 5.78914 4.52209 5.69021L3.28809 4.66296ZM15.9339 8.52415C15.8655 8.46092 15.7776 8.46092 15.7776 8.46092H11.8616V10.1933H13.9192V14.7677H2.08133V10.1933H4.13899V8.46092H0.234516C0.234516 8.46092 0.139231 8.46054 0.0608558 8.52993C1.33644e-07 8.58386 0 8.66017 0 8.66017V16.2793C0 16.4007 0.119295 16.5 0.265172 16.5H15.73C15.8784 16.5 16 16.3989 16 16.2752V8.64199C16.0001 8.64199 16 8.58504 15.9337 8.52394L15.9339 8.52415Z" fill="black"/>
</svg>
