<svg width="17" height="17" viewBox="0 0 17 17" fill="none" xmlns="http://www.w3.org/2000/svg">
<path d="M7.20193 0.500119C3.65078 0.500119 0.757812 3.3931 0.757812 6.94426C0.757812 10.4954 3.65094 13.3884 7.20193 13.3884C8.73777 13.3884 10.1485 12.8455 11.2575 11.944L15.6183 16.3048C15.8785 16.5651 16.3023 16.5651 16.5626 16.3048C16.8229 16.0445 16.8229 15.6277 16.5626 15.3673L12.2019 11.0065C13.1051 9.89709 13.6462 8.48167 13.6462 6.94414C13.6462 3.39298 10.7531 0.5 7.20212 0.5L7.20193 0.500119ZM7.20193 1.83339C10.0324 1.83339 12.3127 4.11378 12.3127 6.94418C12.3127 9.77458 10.0323 12.055 7.20193 12.055C4.37154 12.055 2.09116 9.77458 2.09116 6.94418C2.09116 4.11378 4.37154 1.83339 7.20193 1.83339Z" fill="#C4C4C4"/>
</svg>
