<svg width="29" height="28" viewBox="0 0 29 28" fill="none" xmlns="http://www.w3.org/2000/svg">
<path d="M14.7583 2.55423C8.38356 2.55539 3.19727 7.74168 3.19727 14.1164C3.19727 20.4901 8.38356 25.6763 14.7583 25.6775C21.1331 25.6775 26.3194 20.4912 26.3194 14.1164C26.3194 7.74168 21.1343 2.55539 14.7583 2.55423ZM14.7583 23.3653C9.65874 23.3641 5.50948 19.2149 5.50948 14.1164C5.50948 9.01686 9.65874 4.8676 14.7583 4.86644C19.8579 4.8676 24.0072 9.01686 24.0072 14.1164C24.0072 19.216 19.8579 23.3653 14.7583 23.3653Z" fill="black"/>
<path d="M15.915 9.49884H13.6027V14.1233H10.124L14.7542 18.7535L19.3833 14.1233H15.915V9.49884Z" fill="black"/>
</svg>
