<svg width="148" height="143" viewBox="0 0 148 143" fill="none" xmlns="http://www.w3.org/2000/svg">
<rect y="0.237183" width="147.105" height="142.147" rx="8.26434" fill="#F7FAFC"/>
<path d="M92.892 51.0773V60.5086C92.892 69.94 89.132 73.721 79.6797 73.721H68.358C67.1397 73.721 66.0263 73.658 64.9971 73.511" stroke="#292D32" stroke-width="1.23965" stroke-linecap="round" stroke-linejoin="round"/>
<path d="M55.1455 60.1097V51.0773" stroke="#292D32" stroke-width="1.23965" stroke-linecap="round" stroke-linejoin="round"/>
<path d="M74.029 52.7158C77.873 52.7158 80.7087 49.5861 80.3306 45.7422L78.9232 31.7106H69.1138L67.7065 45.7422C67.3284 49.5861 70.1851 52.7158 74.029 52.7158Z" stroke="#292D32" stroke-width="1.23965" stroke-linecap="round" stroke-linejoin="round"/>
<path d="M87.262 52.7158C91.505 52.7158 94.6138 49.2709 94.1937 45.0488L93.6055 39.2724C92.8493 33.811 90.7488 31.7106 85.2454 31.7106H78.8389L80.3093 46.4352C80.6874 49.9011 83.7961 52.7158 87.262 52.7158Z" stroke="#292D32" stroke-width="1.23965" stroke-linecap="round" stroke-linejoin="round"/>
<path d="M60.6702 52.7158C64.1361 52.7158 67.2658 49.9011 67.6019 46.4352L68.0641 41.7932L69.0723 31.7106H62.6657C57.1624 31.7106 55.0619 33.811 54.3057 39.2724L53.7175 45.0488C53.2974 49.2709 56.4272 52.7158 60.6702 52.7158Z" stroke="#292D32" stroke-width="1.23965" stroke-linecap="round" stroke-linejoin="round"/>
<path d="M67.6645 67.4194C67.6645 68.9948 67.2234 70.4863 66.4462 71.7466C66.0471 72.4188 65.564 73.0279 64.9968 73.511C64.9338 73.595 64.8708 73.658 64.7868 73.721C63.3164 75.0443 61.384 75.8215 59.2624 75.8215C56.6998 75.8215 54.4102 74.6661 52.8978 72.8597C52.8558 72.7967 52.7929 72.7548 52.7509 72.6917C52.4988 72.3977 52.2677 72.0827 52.0787 71.7466C51.3015 70.4863 50.8604 68.9948 50.8604 67.4194C50.8604 64.7728 52.0787 62.3992 54.0111 60.8658C54.3682 60.5717 54.7463 60.3197 55.1454 60.1096C56.3637 59.4165 57.7711 59.0173 59.2624 59.0173C61.363 59.0173 63.2534 59.7735 64.7237 61.0548C64.9758 61.2438 65.2069 61.475 65.4169 61.7061C66.8033 63.2184 67.6645 65.2139 67.6645 67.4194Z" stroke="#292D32" stroke-width="1.23965" stroke-miterlimit="10" stroke-linecap="round" stroke-linejoin="round"/>
<path d="M62.3923 67.3774H56.1328" stroke="#292D32" stroke-width="1.23965" stroke-miterlimit="10" stroke-linecap="round" stroke-linejoin="round"/>
<path d="M59.2627 64.3107V70.5912" stroke="#292D32" stroke-width="1.23965" stroke-miterlimit="10" stroke-linecap="round" stroke-linejoin="round"/>
<path d="M40.4503 111.93V100.294H44.7116C45.5374 100.294 46.2211 100.43 46.7628 100.703C47.3045 100.972 47.7098 101.337 47.9787 101.799C48.2476 102.258 48.3821 102.775 48.3821 103.351C48.3821 103.835 48.2931 104.244 48.1151 104.578C47.937 104.907 47.6984 105.172 47.3991 105.373C47.1037 105.57 46.7779 105.714 46.4219 105.805V105.919C46.8082 105.938 47.1851 106.063 47.5526 106.294C47.9238 106.521 48.2306 106.845 48.473 107.265C48.7154 107.686 48.8366 108.197 48.8366 108.799C48.8366 109.394 48.6965 109.928 48.4162 110.402C48.1397 110.871 47.7116 111.244 47.1321 111.521C46.5526 111.794 45.812 111.93 44.9105 111.93H40.4503ZM42.206 110.424H44.7401C45.581 110.424 46.1832 110.261 46.5469 109.936C46.9105 109.61 47.0923 109.203 47.0923 108.714C47.0923 108.347 46.9995 108.01 46.8139 107.703C46.6283 107.396 46.3632 107.152 46.0185 106.97C45.6776 106.788 45.2723 106.697 44.8026 106.697H42.206V110.424ZM42.206 105.328H44.5582C44.9522 105.328 45.3063 105.252 45.6207 105.101C45.9389 104.949 46.1908 104.737 46.3764 104.464C46.5658 104.188 46.6605 103.862 46.6605 103.487C46.6605 103.006 46.492 102.602 46.1548 102.277C45.8177 101.951 45.3007 101.788 44.6037 101.788H42.206V105.328ZM56.3111 108.311V103.203H58.0156V111.93H56.3452V110.419H56.2543C56.0535 110.885 55.7315 111.273 55.2884 111.583C54.849 111.89 54.3016 112.044 53.6463 112.044C53.0857 112.044 52.5895 111.921 52.1577 111.674C51.7296 111.424 51.3925 111.055 51.1463 110.566C50.9039 110.078 50.7827 109.474 50.7827 108.754V103.203H52.4815V108.549C52.4815 109.144 52.6463 109.618 52.9759 109.97C53.3054 110.322 53.7334 110.498 54.2599 110.498C54.5781 110.498 54.8944 110.419 55.2088 110.26C55.527 110.101 55.7902 109.86 55.9986 109.538C56.2107 109.216 56.3149 108.807 56.3111 108.311ZM66.8381 105.333L65.2983 105.606C65.2339 105.409 65.1316 105.222 64.9915 105.044C64.8551 104.866 64.6695 104.72 64.4347 104.606C64.1998 104.493 63.9063 104.436 63.554 104.436C63.0729 104.436 62.6714 104.544 62.3494 104.76C62.0275 104.972 61.8665 105.246 61.8665 105.583C61.8665 105.875 61.9744 106.11 62.1903 106.288C62.4063 106.466 62.7547 106.612 63.2358 106.726L64.6222 107.044C65.4252 107.229 66.0237 107.515 66.4176 107.902C66.8116 108.288 67.0085 108.79 67.0085 109.407C67.0085 109.93 66.857 110.396 66.554 110.805C66.2547 111.21 65.8362 111.529 65.2983 111.76C64.7642 111.991 64.1449 112.106 63.4403 112.106C62.4631 112.106 61.6657 111.898 61.0483 111.481C60.4309 111.061 60.0521 110.464 59.9119 109.691L61.554 109.441C61.6563 109.869 61.8665 110.193 62.1847 110.413C62.5028 110.629 62.9176 110.737 63.429 110.737C63.9858 110.737 64.4309 110.621 64.7642 110.39C65.0975 110.155 65.2642 109.869 65.2642 109.532C65.2642 109.26 65.1619 109.03 64.9574 108.845C64.7566 108.659 64.4479 108.519 64.0312 108.424L62.554 108.101C61.7396 107.915 61.1373 107.619 60.7472 107.214C60.3608 106.809 60.1676 106.296 60.1676 105.674C60.1676 105.159 60.3116 104.708 60.5994 104.322C60.8873 103.936 61.285 103.635 61.7926 103.419C62.3002 103.199 62.8816 103.089 63.5369 103.089C64.4801 103.089 65.2225 103.294 65.7642 103.703C66.3059 104.108 66.6638 104.652 66.8381 105.333ZM68.8764 111.93V103.203H70.5753V111.93H68.8764ZM69.7344 101.856C69.4389 101.856 69.1851 101.758 68.973 101.561C68.7647 101.36 68.6605 101.121 68.6605 100.845C68.6605 100.565 68.7647 100.326 68.973 100.129C69.1851 99.9282 69.4389 99.8278 69.7344 99.8278C70.0298 99.8278 70.2817 99.9282 70.4901 100.129C70.7022 100.326 70.8082 100.565 70.8082 100.845C70.8082 101.121 70.7022 101.36 70.4901 101.561C70.2817 101.758 70.0298 101.856 69.7344 101.856ZM74.5597 106.748V111.93H72.8608V103.203H74.4915V104.623H74.5994C74.8002 104.161 75.1146 103.79 75.5426 103.51C75.9744 103.229 76.518 103.089 77.1733 103.089C77.768 103.089 78.2888 103.214 78.7358 103.464C79.1828 103.71 79.5294 104.078 79.7756 104.566C80.0218 105.055 80.1449 105.659 80.1449 106.379V111.93H78.446V106.583C78.446 105.951 78.2813 105.457 77.9517 105.101C77.6222 104.741 77.1695 104.561 76.5938 104.561C76.1998 104.561 75.8494 104.646 75.5426 104.816C75.2396 104.987 74.9991 105.237 74.821 105.566C74.6468 105.892 74.5597 106.286 74.5597 106.748ZM86.1847 112.106C85.3248 112.106 84.5843 111.922 83.9631 111.555C83.3456 111.184 82.8684 110.663 82.5312 109.993C82.1979 109.318 82.0312 108.529 82.0312 107.623C82.0312 106.729 82.1979 105.941 82.5312 105.26C82.8684 104.578 83.3381 104.046 83.9403 103.663C84.5464 103.28 85.2547 103.089 86.0653 103.089C86.5578 103.089 87.035 103.171 87.4972 103.333C87.9593 103.496 88.3741 103.752 88.7415 104.101C89.1089 104.449 89.3987 104.902 89.6108 105.458C89.8229 106.011 89.929 106.684 89.929 107.476V108.078H82.9915V106.805H88.2642C88.2642 106.358 88.1733 105.962 87.9915 105.618C87.8097 105.269 87.554 104.994 87.2244 104.794C86.8987 104.593 86.5161 104.493 86.0767 104.493C85.5994 104.493 85.1828 104.61 84.8267 104.845C84.4744 105.076 84.2017 105.379 84.0085 105.754C83.8191 106.125 83.7244 106.529 83.7244 106.964V107.958C83.7244 108.542 83.8267 109.038 84.0312 109.447C84.2396 109.856 84.5294 110.169 84.9006 110.385C85.2718 110.597 85.7055 110.703 86.2017 110.703C86.5237 110.703 86.8172 110.657 87.0824 110.566C87.3475 110.472 87.5767 110.332 87.7699 110.146C87.9631 109.96 88.1108 109.731 88.2131 109.458L89.821 109.748C89.6922 110.222 89.4612 110.636 89.1278 110.993C88.7983 111.345 88.3835 111.619 87.8835 111.816C87.3873 112.01 86.821 112.106 86.1847 112.106ZM98.3537 105.333L96.8139 105.606C96.7495 105.409 96.6473 105.222 96.5071 105.044C96.3707 104.866 96.1851 104.72 95.9503 104.606C95.7154 104.493 95.4219 104.436 95.0696 104.436C94.5885 104.436 94.187 104.544 93.8651 104.76C93.5431 104.972 93.3821 105.246 93.3821 105.583C93.3821 105.875 93.4901 106.11 93.706 106.288C93.9219 106.466 94.2704 106.612 94.7514 106.726L96.1378 107.044C96.9408 107.229 97.5393 107.515 97.9332 107.902C98.3272 108.288 98.5241 108.79 98.5241 109.407C98.5241 109.93 98.3726 110.396 98.0696 110.805C97.7704 111.21 97.3518 111.529 96.8139 111.76C96.2798 111.991 95.6605 112.106 94.956 112.106C93.9787 112.106 93.1813 111.898 92.5639 111.481C91.9465 111.061 91.5677 110.464 91.4276 109.691L93.0696 109.441C93.1719 109.869 93.3821 110.193 93.7003 110.413C94.0185 110.629 94.4332 110.737 94.9446 110.737C95.5014 110.737 95.9465 110.621 96.2798 110.39C96.6132 110.155 96.7798 109.869 96.7798 109.532C96.7798 109.26 96.6776 109.03 96.473 108.845C96.2723 108.659 95.9635 108.519 95.5469 108.424L94.0696 108.101C93.2552 107.915 92.6529 107.619 92.2628 107.214C91.8764 106.809 91.6832 106.296 91.6832 105.674C91.6832 105.159 91.8272 104.708 92.1151 104.322C92.4029 103.936 92.8007 103.635 93.3082 103.419C93.8158 103.199 94.3973 103.089 95.0526 103.089C95.9957 103.089 96.7382 103.294 97.2798 103.703C97.8215 104.108 98.1795 104.652 98.3537 105.333ZM106.932 105.333L105.392 105.606C105.328 105.409 105.225 105.222 105.085 105.044C104.949 104.866 104.763 104.72 104.528 104.606C104.294 104.493 104 104.436 103.648 104.436C103.167 104.436 102.765 104.544 102.443 104.76C102.121 104.972 101.96 105.246 101.96 105.583C101.96 105.875 102.068 106.11 102.284 106.288C102.5 106.466 102.848 106.612 103.33 106.726L104.716 107.044C105.519 107.229 106.117 107.515 106.511 107.902C106.905 108.288 107.102 108.79 107.102 109.407C107.102 109.93 106.951 110.396 106.648 110.805C106.348 111.21 105.93 111.529 105.392 111.76C104.858 111.991 104.239 112.106 103.534 112.106C102.557 112.106 101.759 111.898 101.142 111.481C100.525 111.061 100.146 110.464 100.006 109.691L101.648 109.441C101.75 109.869 101.96 110.193 102.278 110.413C102.597 110.629 103.011 110.737 103.523 110.737C104.08 110.737 104.525 110.621 104.858 110.39C105.191 110.155 105.358 109.869 105.358 109.532C105.358 109.26 105.256 109.03 105.051 108.845C104.85 108.659 104.542 108.519 104.125 108.424L102.648 108.101C101.833 107.915 101.231 107.619 100.841 107.214C100.455 106.809 100.261 106.296 100.261 105.674C100.261 105.159 100.405 104.708 100.693 104.322C100.981 103.936 101.379 103.635 101.886 103.419C102.394 103.199 102.975 103.089 103.631 103.089C104.574 103.089 105.316 103.294 105.858 103.703C106.4 104.108 106.758 104.652 106.932 105.333Z" fill="#020202"/>
</svg>
