<svg width="148" height="143" viewBox="0 0 148 143" fill="none" xmlns="http://www.w3.org/2000/svg">
<rect width="147.105" height="142.147" rx="8.26434" fill="#F7FAFC"/>
<path d="M92.892 50.8401V60.2714C92.892 69.7027 89.132 73.4838 79.6797 73.4838H68.358C67.1397 73.4838 66.0263 73.4208 64.9971 73.2738" stroke="#292D32" stroke-width="1.23965" stroke-linecap="round" stroke-linejoin="round"/>
<path d="M55.1455 59.8724V50.8401" stroke="#292D32" stroke-width="1.23965" stroke-linecap="round" stroke-linejoin="round"/>
<path d="M74.029 52.4786C77.873 52.4786 80.7087 49.3489 80.3306 45.505L78.9232 31.4734H69.1138L67.7065 45.505C67.3284 49.3489 70.1851 52.4786 74.029 52.4786Z" stroke="#292D32" stroke-width="1.23965" stroke-linecap="round" stroke-linejoin="round"/>
<path d="M87.262 52.4786C91.505 52.4786 94.6138 49.0337 94.1937 44.8116L93.6055 39.0352C92.8493 33.5739 90.7488 31.4734 85.2454 31.4734H78.8389L80.3093 46.1981C80.6874 49.6639 83.7961 52.4786 87.262 52.4786Z" stroke="#292D32" stroke-width="1.23965" stroke-linecap="round" stroke-linejoin="round"/>
<path d="M60.6702 52.4786C64.1361 52.4786 67.2658 49.6639 67.6019 46.1981L68.0641 41.556L69.0723 31.4734H62.6657C57.1624 31.4734 55.0619 33.5739 54.3057 39.0352L53.7175 44.8116C53.2974 49.0337 56.4272 52.4786 60.6702 52.4786Z" stroke="#292D32" stroke-width="1.23965" stroke-linecap="round" stroke-linejoin="round"/>
<path d="M67.6645 67.1822C67.6645 68.7576 67.2234 70.2491 66.4462 71.5094C66.0471 72.1816 65.564 72.7907 64.9968 73.2738C64.9338 73.3578 64.8708 73.4208 64.7868 73.4838C63.3164 74.8071 61.384 75.5843 59.2624 75.5843C56.6998 75.5843 54.4102 74.429 52.8978 72.6225C52.8558 72.5595 52.7929 72.5176 52.7509 72.4546C52.4988 72.1605 52.2677 71.8455 52.0787 71.5094C51.3015 70.2491 50.8604 68.7576 50.8604 67.1822C50.8604 64.5356 52.0787 62.162 54.0111 60.6286C54.3682 60.3345 54.7463 60.0825 55.1454 59.8725C56.3637 59.1793 57.7711 58.7802 59.2624 58.7802C61.363 58.7802 63.2534 59.5363 64.7237 60.8176C64.9758 61.0066 65.2069 61.2378 65.4169 61.4689C66.8033 62.9813 67.6645 64.9767 67.6645 67.1822Z" stroke="#292D32" stroke-width="1.23965" stroke-miterlimit="10" stroke-linecap="round" stroke-linejoin="round"/>
<path d="M62.3923 67.1401H56.1328" stroke="#292D32" stroke-width="1.23965" stroke-miterlimit="10" stroke-linecap="round" stroke-linejoin="round"/>
<path d="M59.2627 64.0735V70.354" stroke="#292D32" stroke-width="1.23965" stroke-miterlimit="10" stroke-linecap="round" stroke-linejoin="round"/>
<path d="M56.1229 103.841H54.3501C54.282 103.462 54.1551 103.128 53.9695 102.841C53.7839 102.553 53.5566 102.308 53.2876 102.108C53.0187 101.907 52.7176 101.755 52.3842 101.653C52.0547 101.551 51.7043 101.5 51.3331 101.5C50.6626 101.5 50.0623 101.668 49.532 102.005C49.0054 102.342 48.5888 102.837 48.282 103.488C47.9789 104.14 47.8274 104.935 47.8274 105.875C47.8274 106.822 47.9789 107.621 48.282 108.272C48.5888 108.924 49.0073 109.416 49.5376 109.75C50.0679 110.083 50.6645 110.25 51.3274 110.25C51.6948 110.25 52.0433 110.2 52.3729 110.102C52.7062 110 53.0073 109.85 53.2763 109.653C53.5452 109.456 53.7725 109.216 53.9581 108.932C54.1475 108.644 54.2782 108.314 54.3501 107.943L56.1229 107.949C56.0282 108.521 55.8445 109.047 55.5717 109.528C55.3028 110.005 54.9562 110.418 54.532 110.767C54.1115 111.111 53.6304 111.378 53.0888 111.568C52.5471 111.757 51.9562 111.852 51.3161 111.852C50.3085 111.852 49.4107 111.613 48.6229 111.136C47.835 110.655 47.2138 109.967 46.7592 109.074C46.3085 108.18 46.0831 107.113 46.0831 105.875C46.0831 104.632 46.3104 103.566 46.7649 102.676C47.2195 101.782 47.8407 101.096 48.6286 100.619C49.4164 100.138 50.3123 99.8974 51.3161 99.8974C51.9335 99.8974 52.5092 99.9864 53.0433 100.164C53.5812 100.339 54.0642 100.596 54.4922 100.937C54.9202 101.274 55.2744 101.687 55.5547 102.176C55.835 102.661 56.0244 103.216 56.1229 103.841ZM59.7862 106.511V111.693H58.0874V100.057H59.7635V104.386H59.8714C60.076 103.916 60.3885 103.543 60.8089 103.267C61.2294 102.99 61.7786 102.852 62.4567 102.852C63.0552 102.852 63.5779 102.975 64.0249 103.221C64.4756 103.467 64.8241 103.835 65.0703 104.324C65.3203 104.808 65.4453 105.414 65.4453 106.142V111.693H63.7464V106.346C63.7464 105.706 63.5817 105.21 63.2521 104.858C62.9226 104.502 62.4643 104.324 61.8771 104.324C61.4756 104.324 61.1158 104.409 60.7976 104.579C60.4832 104.75 60.2351 105 60.0533 105.329C59.8752 105.655 59.7862 106.049 59.7862 106.511ZM70.2521 111.886C69.6991 111.886 69.1991 111.784 68.7521 111.579C68.3052 111.371 67.951 111.07 67.6896 110.676C67.4321 110.282 67.3033 109.799 67.3033 109.227C67.3033 108.735 67.398 108.329 67.5874 108.011C67.7768 107.693 68.0324 107.441 68.3544 107.255C68.6764 107.07 69.0362 106.93 69.4339 106.835C69.8317 106.74 70.237 106.668 70.6499 106.619C71.1726 106.558 71.5968 106.509 71.9226 106.471C72.2483 106.43 72.4851 106.363 72.6328 106.272C72.7805 106.182 72.8544 106.034 72.8544 105.829V105.789C72.8544 105.293 72.7143 104.909 72.4339 104.636C72.1574 104.363 71.7446 104.227 71.1953 104.227C70.6233 104.227 70.1726 104.354 69.843 104.608C69.5173 104.858 69.2919 105.136 69.1669 105.443L67.5703 105.079C67.7597 104.549 68.0362 104.121 68.3999 103.795C68.7673 103.466 69.1896 103.227 69.6669 103.079C70.1442 102.928 70.6461 102.852 71.1726 102.852C71.5211 102.852 71.8904 102.894 72.2805 102.977C72.6745 103.057 73.0419 103.204 73.3828 103.42C73.7275 103.636 74.0097 103.945 74.2294 104.346C74.4491 104.744 74.5589 105.261 74.5589 105.897V111.693H72.8999V110.5H72.8317C72.7218 110.719 72.5571 110.935 72.3374 111.147C72.1177 111.36 71.8355 111.536 71.4908 111.676C71.1461 111.816 70.7332 111.886 70.2521 111.886ZM70.6214 110.522C71.0911 110.522 71.4927 110.43 71.826 110.244C72.1631 110.058 72.4188 109.816 72.593 109.517C72.7711 109.214 72.8601 108.89 72.8601 108.545V107.42C72.7995 107.481 72.6821 107.538 72.5078 107.591C72.3374 107.64 72.1423 107.683 71.9226 107.721C71.7029 107.755 71.4889 107.788 71.2805 107.818C71.0722 107.844 70.898 107.867 70.7578 107.886C70.4283 107.928 70.1271 107.998 69.8544 108.096C69.5855 108.195 69.3696 108.337 69.2067 108.522C69.0476 108.704 68.968 108.947 68.968 109.25C68.968 109.67 69.1233 109.988 69.4339 110.204C69.7446 110.416 70.1404 110.522 70.6214 110.522ZM76.8217 111.693V102.966H78.4638V104.352H78.5547C78.7138 103.882 78.9941 103.513 79.3956 103.244C79.8009 102.971 80.2592 102.835 80.7706 102.835C80.8767 102.835 81.0017 102.839 81.1456 102.846C81.2933 102.854 81.4089 102.863 81.4922 102.875V104.5C81.424 104.481 81.3028 104.46 81.1286 104.437C80.9543 104.411 80.7801 104.397 80.6058 104.397C80.2043 104.397 79.8464 104.483 79.532 104.653C79.2214 104.82 78.9751 105.053 78.7933 105.352C78.6115 105.647 78.5206 105.985 78.5206 106.363V111.693H76.8217ZM82.9624 111.693V102.966H84.6612V111.693H82.9624ZM83.8203 101.619C83.5249 101.619 83.2711 101.521 83.0589 101.324C82.8506 101.123 82.7464 100.884 82.7464 100.608C82.7464 100.327 82.8506 100.089 83.0589 99.8917C83.2711 99.691 83.5249 99.5906 83.8203 99.5906C84.1158 99.5906 84.3677 99.691 84.576 99.8917C84.7881 100.089 84.8942 100.327 84.8942 100.608C84.8942 100.884 84.7881 101.123 84.576 101.324C84.3677 101.521 84.1158 101.619 83.8203 101.619ZM91.0206 102.966V104.329H86.2536V102.966H91.0206ZM87.532 100.875H89.2308V109.13C89.2308 109.46 89.2801 109.708 89.3786 109.875C89.477 110.038 89.6039 110.149 89.7592 110.21C89.9183 110.267 90.0907 110.295 90.2763 110.295C90.4126 110.295 90.532 110.286 90.6342 110.267C90.7365 110.248 90.8161 110.233 90.8729 110.221L91.1797 111.625C91.0812 111.663 90.9411 111.7 90.7592 111.738C90.5774 111.78 90.3501 111.803 90.0774 111.807C89.6304 111.814 89.2138 111.735 88.8274 111.568C88.4411 111.401 88.1286 111.144 87.8899 110.795C87.6513 110.447 87.532 110.009 87.532 109.483V100.875ZM93.9737 114.966C93.7199 114.966 93.4889 114.945 93.2805 114.903C93.0722 114.865 92.9169 114.824 92.8146 114.778L93.2237 113.386C93.5343 113.469 93.8108 113.505 94.0533 113.494C94.2957 113.483 94.5097 113.392 94.6953 113.221C94.8847 113.051 95.0514 112.772 95.1953 112.386L95.4055 111.807L92.2124 102.966H94.0305L96.2408 109.738H96.3317L98.5419 102.966H100.366L96.7692 112.858C96.6025 113.312 96.3904 113.697 96.1328 114.011C95.8752 114.329 95.5684 114.568 95.2124 114.727C94.8563 114.886 94.4434 114.966 93.9737 114.966Z" fill="#020202"/>
</svg>
