<svg width="148" height="143" viewBox="0 0 148 143" fill="none" xmlns="http://www.w3.org/2000/svg">
<rect y="0.237183" width="147.105" height="142.147" rx="8.26434" fill="#F7FAFC"/>
<path d="M92.892 51.0773V60.5086C92.892 69.94 89.132 73.721 79.6797 73.721H68.358C67.1397 73.721 66.0263 73.658 64.9971 73.511" stroke="#292D32" stroke-width="1.23965" stroke-linecap="round" stroke-linejoin="round"/>
<path d="M55.1455 60.1097V51.0773" stroke="#292D32" stroke-width="1.23965" stroke-linecap="round" stroke-linejoin="round"/>
<path d="M74.029 52.7158C77.873 52.7158 80.7087 49.5861 80.3306 45.7422L78.9232 31.7106H69.1138L67.7065 45.7422C67.3284 49.5861 70.1851 52.7158 74.029 52.7158Z" stroke="#292D32" stroke-width="1.23965" stroke-linecap="round" stroke-linejoin="round"/>
<path d="M87.262 52.7158C91.505 52.7158 94.6138 49.2709 94.1937 45.0488L93.6055 39.2724C92.8493 33.811 90.7488 31.7106 85.2454 31.7106H78.8389L80.3093 46.4352C80.6874 49.9011 83.7961 52.7158 87.262 52.7158Z" stroke="#292D32" stroke-width="1.23965" stroke-linecap="round" stroke-linejoin="round"/>
<path d="M60.6702 52.7158C64.1361 52.7158 67.2658 49.9011 67.6019 46.4352L68.0641 41.7932L69.0723 31.7106H62.6657C57.1624 31.7106 55.0619 33.811 54.3057 39.2724L53.7175 45.0488C53.2974 49.2709 56.4272 52.7158 60.6702 52.7158Z" stroke="#292D32" stroke-width="1.23965" stroke-linecap="round" stroke-linejoin="round"/>
<path d="M67.6645 67.4194C67.6645 68.9948 67.2234 70.4863 66.4462 71.7466C66.0471 72.4188 65.564 73.0279 64.9968 73.511C64.9338 73.595 64.8708 73.658 64.7868 73.721C63.3164 75.0443 61.384 75.8215 59.2624 75.8215C56.6998 75.8215 54.4102 74.6661 52.8978 72.8597C52.8558 72.7967 52.7929 72.7548 52.7509 72.6917C52.4988 72.3977 52.2677 72.0827 52.0787 71.7466C51.3015 70.4863 50.8604 68.9948 50.8604 67.4194C50.8604 64.7728 52.0787 62.3992 54.0111 60.8658C54.3682 60.5717 54.7463 60.3197 55.1454 60.1096C56.3637 59.4165 57.7711 59.0173 59.2624 59.0173C61.363 59.0173 63.2534 59.7735 64.7237 61.0548C64.9758 61.2438 65.2069 61.475 65.4169 61.7061C66.8033 63.2184 67.6645 65.2139 67.6645 67.4194Z" stroke="#292D32" stroke-width="1.23965" stroke-miterlimit="10" stroke-linecap="round" stroke-linejoin="round"/>
<path d="M62.3923 67.3774H56.1328" stroke="#292D32" stroke-width="1.23965" stroke-miterlimit="10" stroke-linecap="round" stroke-linejoin="round"/>
<path d="M59.2627 64.3107V70.5912" stroke="#292D32" stroke-width="1.23965" stroke-miterlimit="10" stroke-linecap="round" stroke-linejoin="round"/>
<path d="M55.4276 104.078H53.6548C53.5866 103.699 53.4598 103.366 53.2741 103.078C53.0885 102.79 52.8613 102.546 52.5923 102.345C52.3234 102.144 52.0223 101.993 51.6889 101.89C51.3594 101.788 51.009 101.737 50.6378 101.737C49.9673 101.737 49.367 101.905 48.8366 102.243C48.3101 102.58 47.8935 103.074 47.5866 103.726C47.2836 104.377 47.1321 105.172 47.1321 106.112C47.1321 107.059 47.2836 107.858 47.5866 108.51C47.8935 109.161 48.312 109.654 48.8423 109.987C49.3726 110.32 49.9692 110.487 50.6321 110.487C50.9995 110.487 51.348 110.438 51.6776 110.339C52.0109 110.237 52.312 110.087 52.581 109.89C52.8499 109.693 53.0772 109.453 53.2628 109.169C53.4522 108.881 53.5829 108.551 53.6548 108.18L55.4276 108.186C55.3329 108.758 55.1491 109.284 54.8764 109.765C54.6075 110.243 54.2609 110.655 53.8366 111.004C53.4162 111.349 52.9351 111.616 52.3935 111.805C51.8518 111.994 51.2609 112.089 50.6207 112.089C49.6132 112.089 48.7154 111.851 47.9276 111.373C47.1397 110.892 46.5185 110.205 46.0639 109.311C45.6132 108.417 45.3878 107.351 45.3878 106.112C45.3878 104.869 45.6151 103.803 46.0696 102.913C46.5241 102.019 47.1454 101.333 47.9332 100.856C48.7211 100.375 49.617 100.135 50.6207 100.135C51.2382 100.135 51.8139 100.224 52.348 100.402C52.8859 100.576 53.3688 100.833 53.7969 101.174C54.2249 101.511 54.5791 101.924 54.8594 102.413C55.1397 102.898 55.3291 103.453 55.4276 104.078ZM61.0682 112.106C60.25 112.106 59.536 111.919 58.9261 111.544C58.3163 111.169 57.8428 110.644 57.5057 109.97C57.1686 109.296 57 108.508 57 107.606C57 106.701 57.1686 105.909 57.5057 105.231C57.8428 104.553 58.3163 104.027 58.9261 103.652C59.536 103.277 60.25 103.089 61.0682 103.089C61.8864 103.089 62.6004 103.277 63.2102 103.652C63.8201 104.027 64.2936 104.553 64.6307 105.231C64.9678 105.909 65.1364 106.701 65.1364 107.606C65.1364 108.508 64.9678 109.296 64.6307 109.97C64.2936 110.644 63.8201 111.169 63.2102 111.544C62.6004 111.919 61.8864 112.106 61.0682 112.106ZM61.0739 110.68C61.6042 110.68 62.0436 110.54 62.392 110.26C62.7405 109.979 62.9981 109.606 63.1648 109.14C63.3352 108.674 63.4205 108.161 63.4205 107.601C63.4205 107.044 63.3352 106.532 63.1648 106.066C62.9981 105.597 62.7405 105.22 62.392 104.936C62.0436 104.652 61.6042 104.51 61.0739 104.51C60.5398 104.51 60.0966 104.652 59.7443 104.936C59.3958 105.22 59.1364 105.597 58.9659 106.066C58.7992 106.532 58.7159 107.044 58.7159 107.601C58.7159 108.161 58.7992 108.674 58.9659 109.14C59.1364 109.606 59.3958 109.979 59.7443 110.26C60.0966 110.54 60.5398 110.68 61.0739 110.68ZM68.7315 100.294V111.93H67.0327V100.294H68.7315ZM72.7159 100.294V111.93H71.017V100.294H72.7159ZM78.7628 112.106C77.9029 112.106 77.1624 111.922 76.5412 111.555C75.9238 111.184 75.4465 110.663 75.1094 109.993C74.776 109.318 74.6094 108.529 74.6094 107.623C74.6094 106.729 74.776 105.941 75.1094 105.26C75.4465 104.578 75.9162 104.046 76.5185 103.663C77.1245 103.28 77.8329 103.089 78.6435 103.089C79.1359 103.089 79.6132 103.171 80.0753 103.333C80.5374 103.496 80.9522 103.752 81.3196 104.101C81.687 104.449 81.9768 104.902 82.1889 105.458C82.401 106.011 82.5071 106.684 82.5071 107.476V108.078H75.5696V106.805H80.8423C80.8423 106.358 80.7514 105.962 80.5696 105.618C80.3878 105.269 80.1321 104.994 79.8026 104.794C79.4768 104.593 79.0942 104.493 78.6548 104.493C78.1776 104.493 77.7609 104.61 77.4048 104.845C77.0526 105.076 76.7798 105.379 76.5866 105.754C76.3973 106.125 76.3026 106.529 76.3026 106.964V107.958C76.3026 108.542 76.4048 109.038 76.6094 109.447C76.8177 109.856 77.1075 110.169 77.4787 110.385C77.8499 110.597 78.2836 110.703 78.7798 110.703C79.1018 110.703 79.3954 110.657 79.6605 110.566C79.9257 110.472 80.1548 110.332 80.348 110.146C80.5412 109.96 80.6889 109.731 80.7912 109.458L82.3991 109.748C82.2704 110.222 82.0393 110.636 81.706 110.993C81.3764 111.345 80.9616 111.619 80.4616 111.816C79.9654 112.01 79.3991 112.106 78.7628 112.106ZM88.0511 115.385C87.358 115.385 86.7614 115.294 86.2614 115.112C85.7652 114.93 85.3598 114.69 85.0455 114.39C84.7311 114.091 84.4962 113.763 84.3409 113.407L85.8011 112.805C85.9034 112.972 86.0398 113.148 86.2102 113.333C86.3845 113.523 86.6193 113.684 86.9148 113.816C87.214 113.949 87.5985 114.015 88.0682 114.015C88.7121 114.015 89.2443 113.858 89.6648 113.544C90.0852 113.233 90.2955 112.737 90.2955 112.055V110.339H90.1875C90.0852 110.525 89.9375 110.731 89.7443 110.958C89.5549 111.186 89.2936 111.383 88.9602 111.549C88.6269 111.716 88.1932 111.799 87.6591 111.799C86.9697 111.799 86.3485 111.638 85.7955 111.316C85.2462 110.991 84.8106 110.511 84.4886 109.879C84.1705 109.243 84.0114 108.46 84.0114 107.532C84.0114 106.604 84.1686 105.809 84.483 105.146C84.8011 104.483 85.2367 103.976 85.7898 103.623C86.3428 103.267 86.9697 103.089 87.6705 103.089C88.2121 103.089 88.6496 103.18 88.983 103.362C89.3163 103.54 89.5758 103.748 89.7614 103.987C89.9508 104.226 90.0966 104.436 90.1989 104.618H90.3239V103.203H91.9886V112.123C91.9886 112.873 91.8144 113.489 91.4659 113.97C91.1174 114.451 90.6458 114.807 90.0511 115.038C89.4602 115.269 88.7936 115.385 88.0511 115.385ZM88.0341 110.39C88.5227 110.39 88.9356 110.277 89.2727 110.049C89.6136 109.818 89.8712 109.489 90.0455 109.061C90.2235 108.629 90.3125 108.112 90.3125 107.51C90.3125 106.922 90.2254 106.405 90.0511 105.958C89.8769 105.511 89.6212 105.163 89.2841 104.913C88.947 104.659 88.5303 104.532 88.0341 104.532C87.5227 104.532 87.0966 104.665 86.7557 104.93C86.4148 105.191 86.1572 105.547 85.983 105.998C85.8125 106.449 85.7273 106.953 85.7273 107.51C85.7273 108.082 85.8144 108.583 85.9886 109.015C86.1629 109.447 86.4205 109.784 86.7614 110.027C87.1061 110.269 87.5303 110.39 88.0341 110.39ZM98.0284 112.106C97.1686 112.106 96.428 111.922 95.8068 111.555C95.1894 111.184 94.7121 110.663 94.375 109.993C94.0417 109.318 93.875 108.529 93.875 107.623C93.875 106.729 94.0417 105.941 94.375 105.26C94.7121 104.578 95.1818 104.046 95.7841 103.663C96.3902 103.28 97.0985 103.089 97.9091 103.089C98.4015 103.089 98.8788 103.171 99.3409 103.333C99.803 103.496 100.218 103.752 100.585 104.101C100.953 104.449 101.242 104.902 101.455 105.458C101.667 106.011 101.773 106.684 101.773 107.476V108.078H94.8352V106.805H100.108C100.108 106.358 100.017 105.962 99.8352 105.618C99.6534 105.269 99.3977 104.994 99.0682 104.794C98.7424 104.593 98.3598 104.493 97.9205 104.493C97.4432 104.493 97.0265 104.61 96.6705 104.845C96.3182 105.076 96.0455 105.379 95.8523 105.754C95.6629 106.125 95.5682 106.529 95.5682 106.964V107.958C95.5682 108.542 95.6705 109.038 95.875 109.447C96.0833 109.856 96.3731 110.169 96.7443 110.385C97.1155 110.597 97.5492 110.703 98.0455 110.703C98.3674 110.703 98.661 110.657 98.9261 110.566C99.1913 110.472 99.4205 110.332 99.6136 110.146C99.8068 109.96 99.9545 109.731 100.057 109.458L101.665 109.748C101.536 110.222 101.305 110.636 100.972 110.993C100.642 111.345 100.227 111.619 99.7273 111.816C99.2311 112.01 98.6648 112.106 98.0284 112.106Z" fill="#020202"/>
</svg>
