<svg width="148" height="143" viewBox="0 0 148 143" fill="none" xmlns="http://www.w3.org/2000/svg">
<rect width="147.105" height="142.147" rx="8.26434" fill="#F7FAFC"/>
<path d="M92.892 50.8401V60.2715C92.892 69.7028 89.132 73.4838 79.6797 73.4838H68.358C67.1397 73.4838 66.0263 73.4209 64.9971 73.2738" stroke="#292D32" stroke-width="1.23965" stroke-linecap="round" stroke-linejoin="round"/>
<path d="M55.1455 59.8725V50.8401" stroke="#292D32" stroke-width="1.23965" stroke-linecap="round" stroke-linejoin="round"/>
<path d="M74.029 52.4786C77.873 52.4786 80.7087 49.3489 80.3306 45.505L78.9232 31.4734H69.1138L67.7065 45.505C67.3284 49.3489 70.1851 52.4786 74.029 52.4786Z" stroke="#292D32" stroke-width="1.23965" stroke-linecap="round" stroke-linejoin="round"/>
<path d="M87.262 52.4786C91.505 52.4786 94.6138 49.0337 94.1937 44.8116L93.6055 39.0352C92.8493 33.5739 90.7488 31.4734 85.2454 31.4734H78.8389L80.3093 46.1981C80.6874 49.6639 83.7961 52.4786 87.262 52.4786Z" stroke="#292D32" stroke-width="1.23965" stroke-linecap="round" stroke-linejoin="round"/>
<path d="M60.6702 52.4786C64.1361 52.4786 67.2658 49.6639 67.6019 46.1981L68.0641 41.556L69.0723 31.4734H62.6657C57.1624 31.4734 55.0619 33.5739 54.3057 39.0352L53.7175 44.8116C53.2974 49.0337 56.4272 52.4786 60.6702 52.4786Z" stroke="#292D32" stroke-width="1.23965" stroke-linecap="round" stroke-linejoin="round"/>
<path d="M67.6645 67.1822C67.6645 68.7576 67.2234 70.2491 66.4462 71.5094C66.0471 72.1816 65.564 72.7907 64.9968 73.2738C64.9338 73.3578 64.8708 73.4208 64.7868 73.4838C63.3164 74.8071 61.384 75.5843 59.2624 75.5843C56.6998 75.5843 54.4102 74.429 52.8978 72.6225C52.8558 72.5595 52.7929 72.5176 52.7509 72.4546C52.4988 72.1605 52.2677 71.8455 52.0787 71.5094C51.3015 70.2491 50.8604 68.7576 50.8604 67.1822C50.8604 64.5356 52.0787 62.162 54.0111 60.6286C54.3682 60.3345 54.7463 60.0825 55.1454 59.8725C56.3637 59.1793 57.7711 58.7802 59.2624 58.7802C61.363 58.7802 63.2534 59.5363 64.7237 60.8176C64.9758 61.0066 65.2069 61.2378 65.4169 61.4689C66.8033 62.9813 67.6645 64.9767 67.6645 67.1822Z" stroke="#292D32" stroke-width="1.23965" stroke-miterlimit="10" stroke-linecap="round" stroke-linejoin="round"/>
<path d="M62.3923 67.1402H56.1328" stroke="#292D32" stroke-width="1.23965" stroke-miterlimit="10" stroke-linecap="round" stroke-linejoin="round"/>
<path d="M59.2627 64.0735V70.354" stroke="#292D32" stroke-width="1.23965" stroke-miterlimit="10" stroke-linecap="round" stroke-linejoin="round"/>
<path d="M29.7159 111.693V100.057H37.0114V101.568H31.4716V105.113H36.6307V106.619H31.4716V110.182H37.0795V111.693H29.7159ZM46.6861 102.966L43.5213 111.693H41.7031L38.5327 102.966H40.3565L42.5668 109.682H42.6577L44.8622 102.966H46.6861ZM51.7472 111.869C50.8873 111.869 50.1468 111.685 49.5256 111.318C48.9081 110.947 48.4309 110.426 48.0938 109.755C47.7604 109.081 47.5938 108.291 47.5938 107.386C47.5938 106.492 47.7604 105.704 48.0938 105.022C48.4309 104.341 48.9006 103.808 49.5028 103.426C50.1089 103.043 50.8172 102.852 51.6278 102.852C52.1203 102.852 52.5975 102.933 53.0597 103.096C53.5218 103.259 53.9366 103.515 54.304 103.863C54.6714 104.212 54.9612 104.664 55.1733 105.221C55.3854 105.774 55.4915 106.447 55.4915 107.238V107.841H48.554V106.568H53.8267C53.8267 106.121 53.7358 105.725 53.554 105.38C53.3722 105.032 53.1165 104.757 52.7869 104.557C52.4612 104.356 52.0786 104.255 51.6392 104.255C51.1619 104.255 50.7453 104.373 50.3892 104.608C50.0369 104.839 49.7642 105.142 49.571 105.517C49.3816 105.888 49.2869 106.291 49.2869 106.727V107.721C49.2869 108.305 49.3892 108.801 49.5938 109.21C49.8021 109.619 50.0919 109.932 50.4631 110.147C50.8343 110.36 51.268 110.466 51.7642 110.466C52.0862 110.466 52.3797 110.42 52.6449 110.329C52.91 110.235 53.1392 110.094 53.3324 109.909C53.5256 109.723 53.6733 109.494 53.7756 109.221L55.3835 109.511C55.2547 109.985 55.0237 110.399 54.6903 110.755C54.3608 111.108 53.946 111.382 53.446 111.579C52.9498 111.772 52.3835 111.869 51.7472 111.869ZM59.0753 106.511V111.693H57.3764V102.966H59.0071V104.386H59.1151C59.3158 103.924 59.6302 103.553 60.0582 103.272C60.4901 102.992 61.0336 102.852 61.6889 102.852C62.2836 102.852 62.8045 102.977 63.2514 103.227C63.6984 103.473 64.045 103.841 64.2912 104.329C64.5374 104.818 64.6605 105.422 64.6605 106.142V111.693H62.9616V106.346C62.9616 105.714 62.7969 105.219 62.4673 104.863C62.1378 104.503 61.6851 104.324 61.1094 104.324C60.7154 104.324 60.3651 104.409 60.0582 104.579C59.7552 104.75 59.5147 105 59.3366 105.329C59.1624 105.655 59.0753 106.049 59.0753 106.511ZM71.0128 102.966V104.329H66.2457V102.966H71.0128ZM67.5241 100.875H69.223V109.13C69.223 109.46 69.2723 109.708 69.3707 109.875C69.4692 110.038 69.5961 110.149 69.7514 110.21C69.9105 110.267 70.0829 110.295 70.2685 110.295C70.4048 110.295 70.5241 110.286 70.6264 110.267C70.7287 110.248 70.8082 110.233 70.8651 110.221L71.1719 111.625C71.0734 111.663 70.9332 111.7 70.7514 111.738C70.5696 111.78 70.3423 111.803 70.0696 111.807C69.6226 111.814 69.206 111.735 68.8196 111.568C68.4332 111.401 68.1207 111.144 67.8821 110.795C67.6435 110.447 67.5241 110.009 67.5241 109.483V100.875ZM77.3239 99.5111L73.5739 113.443H72.0568L75.8068 99.5111H77.3239ZM78.9034 111.693V100.057H83.0511C83.9564 100.057 84.7064 100.221 85.3011 100.551C85.8958 100.88 86.3409 101.331 86.6364 101.903C86.9318 102.471 87.0795 103.111 87.0795 103.824C87.0795 104.539 86.9299 105.183 86.6307 105.755C86.3352 106.324 85.8883 106.774 85.2898 107.108C84.6951 107.437 83.947 107.602 83.0455 107.602H80.1932V106.113H82.8864C83.4583 106.113 83.9223 106.015 84.2784 105.818C84.6345 105.617 84.8958 105.344 85.0625 105C85.2292 104.655 85.3125 104.263 85.3125 103.824C85.3125 103.384 85.2292 102.994 85.0625 102.653C84.8958 102.312 84.6326 102.045 84.2727 101.852C83.9167 101.659 83.447 101.562 82.8636 101.562H80.6591V111.693H78.9034ZM91.4631 111.886C90.91 111.886 90.41 111.784 89.9631 111.579C89.5161 111.371 89.1619 111.07 88.9006 110.676C88.643 110.282 88.5142 109.799 88.5142 109.227C88.5142 108.735 88.6089 108.329 88.7983 108.011C88.9877 107.693 89.2434 107.441 89.5653 107.255C89.8873 107.07 90.2472 106.93 90.6449 106.835C91.0426 106.74 91.4479 106.668 91.8608 106.619C92.3835 106.558 92.8078 106.509 93.1335 106.471C93.4593 106.43 93.696 106.363 93.8438 106.272C93.9915 106.182 94.0653 106.034 94.0653 105.829V105.789C94.0653 105.293 93.9252 104.909 93.6449 104.636C93.3684 104.363 92.9555 104.227 92.4062 104.227C91.8343 104.227 91.3835 104.354 91.054 104.608C90.7282 104.858 90.5028 105.136 90.3778 105.443L88.7812 105.079C88.9706 104.549 89.2472 104.121 89.6108 103.795C89.9782 103.466 90.4006 103.227 90.8778 103.079C91.3551 102.928 91.857 102.852 92.3835 102.852C92.732 102.852 93.1013 102.894 93.4915 102.977C93.8854 103.057 94.2528 103.204 94.5938 103.42C94.9384 103.636 95.2206 103.945 95.4403 104.346C95.66 104.744 95.7699 105.261 95.7699 105.897V111.693H94.1108V110.5H94.0426C93.9328 110.719 93.768 110.935 93.5483 111.147C93.3286 111.36 93.0464 111.536 92.7017 111.676C92.357 111.816 91.9441 111.886 91.4631 111.886ZM91.8324 110.522C92.3021 110.522 92.7036 110.43 93.0369 110.244C93.3741 110.058 93.6297 109.816 93.804 109.517C93.982 109.214 94.071 108.89 94.071 108.545V107.42C94.0104 107.481 93.893 107.538 93.7188 107.591C93.5483 107.64 93.3532 107.683 93.1335 107.721C92.9138 107.755 92.6998 107.788 92.4915 107.818C92.2831 107.844 92.1089 107.867 91.9688 107.886C91.6392 107.928 91.3381 107.998 91.0653 108.096C90.7964 108.195 90.5805 108.337 90.4176 108.522C90.2585 108.704 90.179 108.947 90.179 109.25C90.179 109.67 90.3343 109.988 90.6449 110.204C90.9555 110.416 91.3513 110.522 91.8324 110.522ZM98.0327 111.693V102.966H99.6747V104.352H99.7656C99.9247 103.882 100.205 103.513 100.607 103.244C101.012 102.971 101.47 102.835 101.982 102.835C102.088 102.835 102.213 102.839 102.357 102.846C102.504 102.854 102.62 102.863 102.703 102.875V104.5C102.635 104.481 102.514 104.46 102.339 104.437C102.165 104.411 101.991 104.397 101.817 104.397C101.415 104.397 101.057 104.483 100.743 104.653C100.432 104.82 100.186 105.053 100.004 105.352C99.8224 105.647 99.7315 105.985 99.7315 106.363V111.693H98.0327ZM108.763 102.966V104.329H103.996V102.966H108.763ZM105.274 100.875H106.973V109.13C106.973 109.46 107.022 109.708 107.121 109.875C107.219 110.038 107.346 110.149 107.501 110.21C107.661 110.267 107.833 110.295 108.018 110.295C108.155 110.295 108.274 110.286 108.376 110.267C108.479 110.248 108.558 110.233 108.615 110.221L108.922 111.625C108.823 111.663 108.683 111.7 108.501 111.738C108.32 111.78 108.092 111.803 107.82 111.807C107.373 111.814 106.956 111.735 106.57 111.568C106.183 111.401 105.871 111.144 105.632 110.795C105.393 110.447 105.274 110.009 105.274 109.483V100.875ZM111.716 114.966C111.462 114.966 111.231 114.945 111.023 114.903C110.814 114.865 110.659 114.824 110.557 114.778L110.966 113.386C111.277 113.469 111.553 113.505 111.795 113.494C112.038 113.483 112.252 113.392 112.438 113.221C112.627 113.051 112.794 112.772 112.938 112.386L113.148 111.807L109.955 102.966H111.773L113.983 109.738H114.074L116.284 102.966H118.108L114.511 112.858C114.345 113.312 114.133 113.697 113.875 114.011C113.617 114.329 113.311 114.568 112.955 114.727C112.598 114.886 112.186 114.966 111.716 114.966Z" fill="#020202"/>
</svg>
