<svg width="148" height="143" viewBox="0 0 148 143" fill="none" xmlns="http://www.w3.org/2000/svg">
<rect width="147.105" height="142.147" rx="8.26434" fill="#F7FAFC"/>
<path d="M92.892 50.8401V60.2714C92.892 69.7027 89.132 73.4838 79.6797 73.4838H68.358C67.1397 73.4838 66.0263 73.4208 64.9971 73.2738" stroke="#292D32" stroke-width="1.23965" stroke-linecap="round" stroke-linejoin="round"/>
<path d="M55.1455 59.8724V50.8401" stroke="#292D32" stroke-width="1.23965" stroke-linecap="round" stroke-linejoin="round"/>
<path d="M74.029 52.4786C77.873 52.4786 80.7087 49.3489 80.3306 45.505L78.9232 31.4734H69.1138L67.7065 45.505C67.3284 49.3489 70.1851 52.4786 74.029 52.4786Z" stroke="#292D32" stroke-width="1.23965" stroke-linecap="round" stroke-linejoin="round"/>
<path d="M87.262 52.4786C91.505 52.4786 94.6138 49.0337 94.1937 44.8116L93.6055 39.0352C92.8493 33.5739 90.7488 31.4734 85.2454 31.4734H78.8389L80.3093 46.1981C80.6874 49.6639 83.7961 52.4786 87.262 52.4786Z" stroke="#292D32" stroke-width="1.23965" stroke-linecap="round" stroke-linejoin="round"/>
<path d="M60.6702 52.4786C64.1361 52.4786 67.2658 49.6639 67.6019 46.1981L68.0641 41.556L69.0723 31.4734H62.6657C57.1624 31.4734 55.0619 33.5739 54.3057 39.0352L53.7175 44.8116C53.2974 49.0337 56.4272 52.4786 60.6702 52.4786Z" stroke="#292D32" stroke-width="1.23965" stroke-linecap="round" stroke-linejoin="round"/>
<path d="M67.6645 67.1822C67.6645 68.7576 67.2234 70.2491 66.4462 71.5094C66.0471 72.1816 65.564 72.7907 64.9968 73.2738C64.9338 73.3578 64.8708 73.4208 64.7868 73.4838C63.3164 74.8071 61.384 75.5843 59.2624 75.5843C56.6998 75.5843 54.4102 74.429 52.8978 72.6225C52.8558 72.5595 52.7929 72.5176 52.7509 72.4546C52.4988 72.1605 52.2677 71.8455 52.0787 71.5094C51.3015 70.2491 50.8604 68.7576 50.8604 67.1822C50.8604 64.5356 52.0787 62.162 54.0111 60.6286C54.3682 60.3345 54.7463 60.0825 55.1454 59.8725C56.3637 59.1793 57.7711 58.7802 59.2624 58.7802C61.363 58.7802 63.2534 59.5363 64.7237 60.8176C64.9758 61.0066 65.2069 61.2378 65.4169 61.4689C66.8033 62.9813 67.6645 64.9767 67.6645 67.1822Z" stroke="#292D32" stroke-width="1.23965" stroke-miterlimit="10" stroke-linecap="round" stroke-linejoin="round"/>
<path d="M62.3923 67.1401H56.1328" stroke="#292D32" stroke-width="1.23965" stroke-miterlimit="10" stroke-linecap="round" stroke-linejoin="round"/>
<path d="M59.2627 64.0735V70.354" stroke="#292D32" stroke-width="1.23965" stroke-miterlimit="10" stroke-linecap="round" stroke-linejoin="round"/>
<path d="M46.4503 111.693V100.057H53.6662V101.568H48.206V105.113H53.1491V106.619H48.206V111.693H46.4503ZM58.7244 111.869C57.9063 111.869 57.1922 111.682 56.5824 111.307C55.9725 110.932 55.4991 110.407 55.1619 109.733C54.8248 109.058 54.6562 108.271 54.6562 107.369C54.6562 106.464 54.8248 105.672 55.1619 104.994C55.4991 104.316 55.9725 103.789 56.5824 103.414C57.1922 103.039 57.9063 102.852 58.7244 102.852C59.5426 102.852 60.2566 103.039 60.8665 103.414C61.4763 103.789 61.9498 104.316 62.2869 104.994C62.6241 105.672 62.7926 106.464 62.7926 107.369C62.7926 108.271 62.6241 109.058 62.2869 109.733C61.9498 110.407 61.4763 110.932 60.8665 111.307C60.2566 111.682 59.5426 111.869 58.7244 111.869ZM58.7301 110.443C59.2604 110.443 59.6998 110.303 60.0483 110.022C60.3968 109.742 60.6544 109.369 60.821 108.903C60.9915 108.437 61.0767 107.924 61.0767 107.363C61.0767 106.807 60.9915 106.295 60.821 105.829C60.6544 105.36 60.3968 104.983 60.0483 104.699C59.6998 104.414 59.2604 104.272 58.7301 104.272C58.196 104.272 57.7528 104.414 57.4006 104.699C57.0521 104.983 56.7926 105.36 56.6222 105.829C56.4555 106.295 56.3722 106.807 56.3722 107.363C56.3722 107.924 56.4555 108.437 56.6222 108.903C56.7926 109.369 57.0521 109.742 57.4006 110.022C57.7528 110.303 58.196 110.443 58.7301 110.443ZM64.6889 111.693V102.966H66.331V104.352H66.4219C66.581 103.882 66.8613 103.513 67.2628 103.244C67.6681 102.971 68.1264 102.835 68.6378 102.835C68.7438 102.835 68.8688 102.839 69.0128 102.846C69.1605 102.854 69.276 102.863 69.3594 102.875V104.5C69.2912 104.481 69.17 104.46 68.9957 104.437C68.8215 104.411 68.6473 104.397 68.473 104.397C68.0715 104.397 67.7135 104.483 67.3991 104.653C67.0885 104.82 66.8423 105.053 66.6605 105.352C66.4787 105.647 66.3878 105.985 66.3878 106.363V111.693H64.6889ZM75.2003 111.693V100.057H82.4162V101.568H76.956V105.113H81.8991V106.619H76.956V111.693H75.2003ZM89.4205 108.074V102.966H91.125V111.693H89.4545V110.182H89.3636C89.1629 110.647 88.8409 111.036 88.3977 111.346C87.9583 111.653 87.411 111.807 86.7557 111.807C86.1951 111.807 85.6989 111.683 85.267 111.437C84.839 111.187 84.5019 110.818 84.2557 110.329C84.0133 109.841 83.892 109.236 83.892 108.517V102.966H85.5909V108.312C85.5909 108.907 85.7557 109.38 86.0852 109.733C86.4148 110.085 86.8428 110.261 87.3693 110.261C87.6875 110.261 88.0038 110.182 88.3182 110.022C88.6364 109.863 88.8996 109.623 89.108 109.301C89.3201 108.979 89.4242 108.57 89.4205 108.074ZM95.1065 106.511V111.693H93.4077V102.966H95.0384V104.386H95.1463C95.3471 103.924 95.6615 103.553 96.0895 103.272C96.5213 102.992 97.0649 102.852 97.7202 102.852C98.3149 102.852 98.8357 102.977 99.2827 103.227C99.7296 103.473 100.076 103.841 100.322 104.329C100.569 104.818 100.692 105.422 100.692 106.142V111.693H98.9929V106.346C98.9929 105.714 98.8281 105.219 98.4986 104.863C98.169 104.503 97.7164 104.324 97.1406 104.324C96.7467 104.324 96.3963 104.409 96.0895 104.579C95.7865 104.75 95.5459 105 95.3679 105.329C95.1937 105.655 95.1065 106.049 95.1065 106.511Z" fill="#020202"/>
</svg>
