<svg width="148" height="143" viewBox="0 0 148 143" fill="none" xmlns="http://www.w3.org/2000/svg">
<rect width="147.105" height="142.147" rx="8.26434" fill="#F7FAFC"/>
<path d="M92.892 50.8401V60.2715C92.892 69.7028 89.132 73.4838 79.6797 73.4838H68.358C67.1397 73.4838 66.0263 73.4209 64.9971 73.2738" stroke="#292D32" stroke-width="1.23965" stroke-linecap="round" stroke-linejoin="round"/>
<path d="M55.1455 59.8725V50.8401" stroke="#292D32" stroke-width="1.23965" stroke-linecap="round" stroke-linejoin="round"/>
<path d="M74.029 52.4786C77.873 52.4786 80.7087 49.3489 80.3306 45.505L78.9232 31.4734H69.1138L67.7065 45.505C67.3284 49.3489 70.1851 52.4786 74.029 52.4786Z" stroke="#292D32" stroke-width="1.23965" stroke-linecap="round" stroke-linejoin="round"/>
<path d="M87.262 52.4786C91.505 52.4786 94.6138 49.0337 94.1937 44.8116L93.6055 39.0352C92.8493 33.5739 90.7488 31.4734 85.2454 31.4734H78.8389L80.3093 46.1981C80.6874 49.6639 83.7961 52.4786 87.262 52.4786Z" stroke="#292D32" stroke-width="1.23965" stroke-linecap="round" stroke-linejoin="round"/>
<path d="M60.6702 52.4786C64.1361 52.4786 67.2658 49.6639 67.6019 46.1981L68.0641 41.556L69.0723 31.4734H62.6657C57.1624 31.4734 55.0619 33.5739 54.3057 39.0352L53.7175 44.8116C53.2974 49.0337 56.4272 52.4786 60.6702 52.4786Z" stroke="#292D32" stroke-width="1.23965" stroke-linecap="round" stroke-linejoin="round"/>
<path d="M67.6645 67.1822C67.6645 68.7576 67.2234 70.2491 66.4462 71.5094C66.0471 72.1816 65.564 72.7907 64.9968 73.2738C64.9338 73.3578 64.8708 73.4208 64.7868 73.4838C63.3164 74.8071 61.384 75.5843 59.2624 75.5843C56.6998 75.5843 54.4102 74.429 52.8978 72.6225C52.8558 72.5595 52.7929 72.5176 52.7509 72.4546C52.4988 72.1605 52.2677 71.8455 52.0787 71.5094C51.3015 70.2491 50.8604 68.7576 50.8604 67.1822C50.8604 64.5356 52.0787 62.162 54.0111 60.6286C54.3682 60.3345 54.7463 60.0825 55.1454 59.8725C56.3637 59.1793 57.7711 58.7802 59.2624 58.7802C61.363 58.7802 63.2534 59.5363 64.7237 60.8176C64.9758 61.0066 65.2069 61.2378 65.4169 61.4689C66.8033 62.9813 67.6645 64.9767 67.6645 67.1822Z" stroke="#292D32" stroke-width="1.23965" stroke-miterlimit="10" stroke-linecap="round" stroke-linejoin="round"/>
<path d="M62.3923 67.1402H56.1328" stroke="#292D32" stroke-width="1.23965" stroke-miterlimit="10" stroke-linecap="round" stroke-linejoin="round"/>
<path d="M59.2627 64.0735V70.354" stroke="#292D32" stroke-width="1.23965" stroke-miterlimit="10" stroke-linecap="round" stroke-linejoin="round"/>
<path d="M39.7003 111.693V100.057H43.848C44.7495 100.057 45.4976 100.212 46.0923 100.522C46.6908 100.833 47.1378 101.263 47.4332 101.812C47.7287 102.358 47.8764 102.988 47.8764 103.704C47.8764 104.416 47.7268 105.043 47.4276 105.585C47.1321 106.123 46.6851 106.541 46.0866 106.841C45.492 107.14 44.7438 107.289 43.8423 107.289H40.7003V105.778H43.6832C44.2514 105.778 44.7135 105.697 45.0696 105.534C45.4295 105.371 45.6927 105.134 45.8594 104.824C46.026 104.513 46.1094 104.14 46.1094 103.704C46.1094 103.265 46.0241 102.884 45.8537 102.562C45.687 102.24 45.4238 101.994 45.0639 101.824C44.7079 101.649 44.2401 101.562 43.6605 101.562H41.456V111.693H39.7003ZM45.4446 106.443L48.3196 111.693H46.3196L43.5014 106.443H45.4446ZM53.5284 111.869C52.6686 111.869 51.928 111.685 51.3068 111.318C50.6894 110.947 50.2121 110.426 49.875 109.755C49.5417 109.081 49.375 108.291 49.375 107.386C49.375 106.492 49.5417 105.704 49.875 105.022C50.2121 104.341 50.6818 103.808 51.2841 103.426C51.8902 103.043 52.5985 102.852 53.4091 102.852C53.9015 102.852 54.3788 102.933 54.8409 103.096C55.303 103.259 55.7178 103.515 56.0852 103.863C56.4527 104.212 56.7424 104.664 56.9545 105.221C57.1667 105.774 57.2727 106.447 57.2727 107.238V107.841H50.3352V106.568H55.608C55.608 106.121 55.517 105.725 55.3352 105.38C55.1534 105.032 54.8977 104.757 54.5682 104.557C54.2424 104.356 53.8598 104.255 53.4205 104.255C52.9432 104.255 52.5265 104.373 52.1705 104.608C51.8182 104.839 51.5455 105.142 51.3523 105.517C51.1629 105.888 51.0682 106.291 51.0682 106.727V107.721C51.0682 108.305 51.1705 108.801 51.375 109.21C51.5833 109.619 51.8731 109.932 52.2443 110.147C52.6155 110.36 53.0492 110.466 53.5455 110.466C53.8674 110.466 54.161 110.42 54.4261 110.329C54.6913 110.235 54.9205 110.094 55.1136 109.909C55.3068 109.723 55.4545 109.494 55.5568 109.221L57.1648 109.511C57.036 109.985 56.8049 110.399 56.4716 110.755C56.142 111.108 55.7273 111.382 55.2273 111.579C54.7311 111.772 54.1648 111.869 53.5284 111.869ZM60.8565 100.057V111.693H59.1577V100.057H60.8565ZM63.142 111.693V102.966H64.8409V111.693H63.142ZM64 101.619C63.7045 101.619 63.4508 101.521 63.2386 101.324C63.0303 101.123 62.9261 100.884 62.9261 100.608C62.9261 100.327 63.0303 100.089 63.2386 99.8917C63.4508 99.691 63.7045 99.5906 64 99.5906C64.2955 99.5906 64.5473 99.691 64.7557 99.8917C64.9678 100.089 65.0739 100.327 65.0739 100.608C65.0739 100.884 64.9678 101.123 64.7557 101.324C64.5473 101.521 64.2955 101.619 64 101.619ZM70.7855 115.147C70.0923 115.147 69.4957 115.057 68.9957 114.875C68.4995 114.693 68.0942 114.452 67.7798 114.153C67.4654 113.854 67.2306 113.526 67.0753 113.17L68.5355 112.568C68.6378 112.735 68.7741 112.911 68.9446 113.096C69.1188 113.286 69.3537 113.447 69.6491 113.579C69.9484 113.712 70.3329 113.778 70.8026 113.778C71.4465 113.778 71.9787 113.621 72.3991 113.307C72.8196 112.996 73.0298 112.5 73.0298 111.818V110.102H72.9219C72.8196 110.288 72.6719 110.494 72.4787 110.721C72.2893 110.949 72.0279 111.146 71.6946 111.312C71.3613 111.479 70.9276 111.562 70.3935 111.562C69.7041 111.562 69.0829 111.401 68.5298 111.079C67.9806 110.753 67.545 110.274 67.223 109.642C66.9048 109.005 66.7457 108.223 66.7457 107.295C66.7457 106.367 66.9029 105.572 67.2173 104.909C67.5355 104.246 67.9711 103.738 68.5241 103.386C69.0772 103.03 69.7041 102.852 70.4048 102.852C70.9465 102.852 71.384 102.943 71.7173 103.125C72.0507 103.303 72.3101 103.511 72.4957 103.75C72.6851 103.988 72.831 104.199 72.9332 104.38H73.0582V102.966H74.723V111.886C74.723 112.636 74.5488 113.252 74.2003 113.733C73.8518 114.214 73.3802 114.57 72.7855 114.801C72.1946 115.032 71.5279 115.147 70.7855 115.147ZM70.7685 110.153C71.2571 110.153 71.67 110.039 72.0071 109.812C72.348 109.581 72.6056 109.252 72.7798 108.824C72.9579 108.392 73.0469 107.875 73.0469 107.272C73.0469 106.685 72.9598 106.168 72.7855 105.721C72.6113 105.274 72.3556 104.926 72.0185 104.676C71.6813 104.422 71.2647 104.295 70.7685 104.295C70.2571 104.295 69.831 104.428 69.4901 104.693C69.1491 104.954 68.8916 105.31 68.7173 105.761C68.5469 106.212 68.4616 106.716 68.4616 107.272C68.4616 107.844 68.5488 108.346 68.723 108.778C68.8973 109.21 69.1548 109.547 69.4957 109.789C69.8404 110.032 70.2647 110.153 70.7685 110.153ZM77.0014 111.693V102.966H78.7003V111.693H77.0014ZM77.8594 101.619C77.5639 101.619 77.3101 101.521 77.098 101.324C76.8897 101.123 76.7855 100.884 76.7855 100.608C76.7855 100.327 76.8897 100.089 77.098 99.8917C77.3101 99.691 77.5639 99.5906 77.8594 99.5906C78.1548 99.5906 78.4067 99.691 78.6151 99.8917C78.8272 100.089 78.9332 100.327 78.9332 100.608C78.9332 100.884 78.8272 101.123 78.6151 101.324C78.4067 101.521 78.1548 101.619 77.8594 101.619ZM84.6619 111.869C83.8438 111.869 83.1297 111.682 82.5199 111.307C81.91 110.932 81.4366 110.407 81.0994 109.733C80.7623 109.058 80.5938 108.271 80.5938 107.369C80.5938 106.464 80.7623 105.672 81.0994 104.994C81.4366 104.316 81.91 103.789 82.5199 103.414C83.1297 103.039 83.8438 102.852 84.6619 102.852C85.4801 102.852 86.1941 103.039 86.804 103.414C87.4138 103.789 87.8873 104.316 88.2244 104.994C88.5616 105.672 88.7301 106.464 88.7301 107.369C88.7301 108.271 88.5616 109.058 88.2244 109.733C87.8873 110.407 87.4138 110.932 86.804 111.307C86.1941 111.682 85.4801 111.869 84.6619 111.869ZM84.6676 110.443C85.1979 110.443 85.6373 110.303 85.9858 110.022C86.3343 109.742 86.5919 109.369 86.7585 108.903C86.929 108.437 87.0142 107.924 87.0142 107.363C87.0142 106.807 86.929 106.295 86.7585 105.829C86.5919 105.36 86.3343 104.983 85.9858 104.699C85.6373 104.414 85.1979 104.272 84.6676 104.272C84.1335 104.272 83.6903 104.414 83.3381 104.699C82.9896 104.983 82.7301 105.36 82.5597 105.829C82.393 106.295 82.3097 106.807 82.3097 107.363C82.3097 107.924 82.393 108.437 82.5597 108.903C82.7301 109.369 82.9896 109.742 83.3381 110.022C83.6903 110.303 84.1335 110.443 84.6676 110.443ZM96.1548 108.074V102.966H97.8594V111.693H96.1889V110.182H96.098C95.8973 110.647 95.5753 111.036 95.1321 111.346C94.6927 111.653 94.1454 111.807 93.4901 111.807C92.9295 111.807 92.4332 111.683 92.0014 111.437C91.5734 111.187 91.2363 110.818 90.9901 110.329C90.7476 109.841 90.6264 109.236 90.6264 108.517V102.966H92.3253V108.312C92.3253 108.907 92.4901 109.38 92.8196 109.733C93.1491 110.085 93.5772 110.261 94.1037 110.261C94.4219 110.261 94.7382 110.182 95.0526 110.022C95.3707 109.863 95.634 109.623 95.8423 109.301C96.0545 108.979 96.1586 108.57 96.1548 108.074ZM106.682 105.096L105.142 105.369C105.078 105.172 104.975 104.985 104.835 104.807C104.699 104.628 104.513 104.483 104.278 104.369C104.044 104.255 103.75 104.199 103.398 104.199C102.917 104.199 102.515 104.307 102.193 104.522C101.871 104.735 101.71 105.009 101.71 105.346C101.71 105.638 101.818 105.873 102.034 106.051C102.25 106.229 102.598 106.375 103.08 106.488L104.466 106.807C105.269 106.992 105.867 107.278 106.261 107.664C106.655 108.051 106.852 108.553 106.852 109.17C106.852 109.693 106.701 110.159 106.398 110.568C106.098 110.973 105.68 111.291 105.142 111.522C104.608 111.753 103.989 111.869 103.284 111.869C102.307 111.869 101.509 111.661 100.892 111.244C100.275 110.824 99.8958 110.227 99.7557 109.454L101.398 109.204C101.5 109.632 101.71 109.956 102.028 110.176C102.347 110.392 102.761 110.5 103.273 110.5C103.83 110.5 104.275 110.384 104.608 110.153C104.941 109.918 105.108 109.632 105.108 109.295C105.108 109.022 105.006 108.793 104.801 108.608C104.6 108.422 104.292 108.282 103.875 108.187L102.398 107.863C101.583 107.678 100.981 107.382 100.591 106.977C100.205 106.572 100.011 106.058 100.011 105.437C100.011 104.922 100.155 104.471 100.443 104.085C100.731 103.699 101.129 103.397 101.636 103.182C102.144 102.962 102.725 102.852 103.381 102.852C104.324 102.852 105.066 103.057 105.608 103.466C106.15 103.871 106.508 104.414 106.682 105.096Z" fill="#020202"/>
</svg>
