<svg width="31" height="5" viewBox="0 0 31 5" fill="none" xmlns="http://www.w3.org/2000/svg">
<path d="M2.23813 0.619787C2.3213 0.451282 2.56158 0.451282 2.64474 0.619786L3.18824 1.72104C3.22127 1.78796 3.2851 1.83434 3.35895 1.84507L4.57426 2.02166C4.76021 2.04868 4.83446 2.2772 4.69991 2.40837L3.8205 3.26558C3.76706 3.31766 3.74268 3.3927 3.7553 3.46625L3.9629 4.67665C3.99466 4.86185 3.80027 5.00309 3.63394 4.91565L2.54694 4.34417C2.48089 4.30945 2.40199 4.30945 2.33594 4.34417L1.24893 4.91565C1.08261 5.00309 0.888215 4.86185 0.91998 4.67665L1.12758 3.46625C1.14019 3.3927 1.11581 3.31766 1.06238 3.26558L0.182971 2.40837C0.0484119 2.27721 0.122663 2.04868 0.308619 2.02166L1.52393 1.84507C1.59777 1.83434 1.66161 1.78796 1.69463 1.72104L2.23813 0.619787Z" fill="#FFD04A"/>
<path d="M8.64609 0.619787C8.72926 0.451282 8.96954 0.451282 9.0527 0.619786L9.5962 1.72104C9.62923 1.78796 9.69306 1.83434 9.76691 1.84507L10.9822 2.02166C11.1682 2.04868 11.2424 2.2772 11.1079 2.40837L10.2285 3.26558C10.175 3.31766 10.1506 3.3927 10.1633 3.46625L10.3709 4.67665C10.4026 4.86185 10.2082 5.00309 10.0419 4.91565L8.9549 4.34417C8.88885 4.30945 8.80994 4.30945 8.7439 4.34417L7.65689 4.91565C7.49057 5.00309 7.29617 4.86185 7.32794 4.67665L7.53554 3.46625C7.54815 3.3927 7.52377 3.31766 7.47034 3.26558L6.59093 2.40837C6.45637 2.27721 6.53062 2.04868 6.71658 2.02166L7.93189 1.84507C8.00573 1.83434 8.06957 1.78796 8.10259 1.72104L8.64609 0.619787Z" fill="#FFD04A"/>
<path d="M15.0541 0.619787C15.1372 0.451282 15.3775 0.451282 15.4607 0.619786L16.0042 1.72104C16.0372 1.78796 16.101 1.83434 16.1749 1.84507L17.3902 2.02166C17.5761 2.04868 17.6504 2.2772 17.5158 2.40837L16.6364 3.26558C16.583 3.31766 16.5586 3.3927 16.5712 3.46625L16.7788 4.67665C16.8106 4.86185 16.6162 5.00309 16.4499 4.91565L15.3629 4.34417C15.2968 4.30945 15.2179 4.30945 15.1519 4.34417L14.0648 4.91565C13.8985 5.00309 13.7041 4.86185 13.7359 4.67665L13.9435 3.46625C13.9561 3.3927 13.9317 3.31766 13.8783 3.26558L12.9989 2.40837C12.8643 2.27721 12.9386 2.04868 13.1245 2.02166L14.3398 1.84507C14.4137 1.83434 14.4775 1.78796 14.5105 1.72104L15.0541 0.619787Z" fill="#FFD04A"/>
<path d="M21.4623 0.619787C21.5454 0.451282 21.7857 0.451282 21.8689 0.619786L22.4124 1.72104C22.4454 1.78796 22.5092 1.83434 22.5831 1.84507L23.7984 2.02166C23.9843 2.04868 24.0586 2.2772 23.924 2.40837L23.0446 3.26558C22.9912 3.31766 22.9668 3.3927 22.9794 3.46625L23.187 4.67665C23.2188 4.86185 23.0244 5.00309 22.8581 4.91565L21.7711 4.34417C21.705 4.30945 21.6261 4.30945 21.5601 4.34417L20.4731 4.91565C20.3067 5.00309 20.1123 4.86185 20.1441 4.67665L20.3517 3.46625C20.3643 3.3927 20.3399 3.31766 20.2865 3.26558L19.4071 2.40837C19.2725 2.27721 19.3468 2.04868 19.5327 2.02166L20.7481 1.84507C20.8219 1.83434 20.8857 1.78796 20.9188 1.72104L21.4623 0.619787Z" fill="#FFD04A"/>
<path d="M27.8702 0.619787C27.9534 0.451282 28.1937 0.451282 28.2768 0.619786L28.8203 1.72104C28.8533 1.78796 28.9172 1.83434 28.991 1.84507L30.2063 2.02166C30.3923 2.04868 30.4665 2.2772 30.332 2.40837L29.4526 3.26558C29.3991 3.31766 29.3748 3.3927 29.3874 3.46625L29.595 4.67665C29.6267 4.86185 29.4323 5.00309 29.266 4.91565L28.179 4.34417C28.113 4.30945 28.0341 4.30945 27.968 4.34417L26.881 4.91565C26.7147 5.00309 26.5203 4.86185 26.5521 4.67665L26.7597 3.46625C26.7723 3.3927 26.7479 3.31766 26.6945 3.26558L25.8151 2.40837C25.6805 2.27721 25.7547 2.04868 25.9407 2.02166L27.156 1.84507C27.2299 1.83434 27.2937 1.78796 27.3267 1.72104L27.8702 0.619787Z" fill="#C4C4C4"/>
</svg>
