<svg width="148" height="143" viewBox="0 0 148 143" fill="none" xmlns="http://www.w3.org/2000/svg">
<rect width="147.105" height="142.147" rx="8.26434" fill="#F7FAFC"/>
<path d="M92.892 50.8401V60.2715C92.892 69.7028 89.132 73.4838 79.6797 73.4838H68.358C67.1397 73.4838 66.0263 73.4209 64.9971 73.2738" stroke="#292D32" stroke-width="1.23965" stroke-linecap="round" stroke-linejoin="round"/>
<path d="M55.1455 59.8725V50.8401" stroke="#292D32" stroke-width="1.23965" stroke-linecap="round" stroke-linejoin="round"/>
<path d="M74.029 52.4786C77.873 52.4786 80.7087 49.3489 80.3306 45.505L78.9232 31.4734H69.1138L67.7065 45.505C67.3284 49.3489 70.1851 52.4786 74.029 52.4786Z" stroke="#292D32" stroke-width="1.23965" stroke-linecap="round" stroke-linejoin="round"/>
<path d="M87.262 52.4786C91.505 52.4786 94.6138 49.0337 94.1937 44.8116L93.6055 39.0352C92.8493 33.5739 90.7488 31.4734 85.2454 31.4734H78.8389L80.3093 46.1981C80.6874 49.6639 83.7961 52.4786 87.262 52.4786Z" stroke="#292D32" stroke-width="1.23965" stroke-linecap="round" stroke-linejoin="round"/>
<path d="M60.6702 52.4786C64.1361 52.4786 67.2658 49.6639 67.6019 46.1981L68.0641 41.556L69.0723 31.4734H62.6657C57.1624 31.4734 55.0619 33.5739 54.3057 39.0352L53.7175 44.8116C53.2974 49.0337 56.4272 52.4786 60.6702 52.4786Z" stroke="#292D32" stroke-width="1.23965" stroke-linecap="round" stroke-linejoin="round"/>
<path d="M67.6645 67.1822C67.6645 68.7576 67.2234 70.2491 66.4462 71.5094C66.0471 72.1816 65.564 72.7907 64.9968 73.2738C64.9338 73.3578 64.8708 73.4208 64.7868 73.4838C63.3164 74.8071 61.384 75.5843 59.2624 75.5843C56.6998 75.5843 54.4102 74.429 52.8978 72.6225C52.8558 72.5595 52.7929 72.5176 52.7509 72.4546C52.4988 72.1605 52.2677 71.8455 52.0787 71.5094C51.3015 70.2491 50.8604 68.7576 50.8604 67.1822C50.8604 64.5356 52.0787 62.162 54.0111 60.6286C54.3682 60.3345 54.7463 60.0825 55.1454 59.8725C56.3637 59.1793 57.7711 58.7802 59.2624 58.7802C61.363 58.7802 63.2534 59.5363 64.7237 60.8176C64.9758 61.0066 65.2069 61.2378 65.4169 61.4689C66.8033 62.9813 67.6645 64.9767 67.6645 67.1822Z" stroke="#292D32" stroke-width="1.23965" stroke-miterlimit="10" stroke-linecap="round" stroke-linejoin="round"/>
<path d="M62.3923 67.1402H56.1328" stroke="#292D32" stroke-width="1.23965" stroke-miterlimit="10" stroke-linecap="round" stroke-linejoin="round"/>
<path d="M59.2627 64.0735V70.354" stroke="#292D32" stroke-width="1.23965" stroke-miterlimit="10" stroke-linecap="round" stroke-linejoin="round"/>
<path d="M54.9922 103.113C54.9316 102.575 54.6816 102.159 54.2422 101.863C53.8028 101.564 53.2498 101.414 52.5831 101.414C52.1058 101.414 51.6929 101.49 51.3445 101.642C50.996 101.789 50.7251 101.994 50.532 102.255C50.3426 102.513 50.2479 102.807 50.2479 103.136C50.2479 103.413 50.3123 103.651 50.4411 103.852C50.5736 104.053 50.746 104.221 50.9581 104.358C51.174 104.49 51.4051 104.602 51.6513 104.693C51.8975 104.78 52.1342 104.852 52.3615 104.909L53.4979 105.204C53.8691 105.295 54.2498 105.418 54.6399 105.574C55.0301 105.729 55.3918 105.933 55.7251 106.187C56.0585 106.441 56.3274 106.755 56.532 107.13C56.7403 107.505 56.8445 107.954 56.8445 108.477C56.8445 109.136 56.674 109.721 56.3331 110.233C55.996 110.744 55.5054 111.147 54.8615 111.443C54.2214 111.738 53.4467 111.886 52.5376 111.886C51.6664 111.886 50.9126 111.748 50.2763 111.471C49.6399 111.195 49.1418 110.803 48.782 110.295C48.4221 109.784 48.2232 109.178 48.1854 108.477H49.9467C49.9808 108.897 50.1172 109.248 50.3558 109.528C50.5982 109.805 50.907 110.011 51.282 110.147C51.6607 110.28 52.0755 110.346 52.5263 110.346C53.0225 110.346 53.4638 110.269 53.8501 110.113C54.2403 109.954 54.5471 109.735 54.7706 109.454C54.9941 109.17 55.1058 108.839 55.1058 108.46C55.1058 108.115 55.0073 107.833 54.8104 107.613C54.6172 107.394 54.3539 107.212 54.0206 107.068C53.6911 106.924 53.3179 106.797 52.9013 106.687L51.5263 106.312C50.5945 106.058 49.8558 105.685 49.3104 105.193C48.7687 104.7 48.4979 104.049 48.4979 103.238C48.4979 102.568 48.6797 101.983 49.0433 101.483C49.407 100.983 49.8994 100.594 50.5206 100.318C51.1418 100.038 51.8426 99.8974 52.6229 99.8974C53.4107 99.8974 54.1058 100.036 54.7081 100.312C55.3142 100.589 55.7914 100.969 56.1399 101.454C56.4884 101.935 56.6702 102.488 56.6854 103.113H54.9922ZM62.4822 111.869C61.6375 111.869 60.9103 111.678 60.3004 111.295C59.6944 110.909 59.2285 110.377 58.9027 109.699C58.5769 109.021 58.4141 108.244 58.4141 107.369C58.4141 106.483 58.5807 105.7 58.9141 105.022C59.2474 104.341 59.7171 103.808 60.3232 103.426C60.9292 103.043 61.6432 102.852 62.4652 102.852C63.1281 102.852 63.719 102.975 64.2379 103.221C64.7569 103.464 65.1754 103.805 65.4936 104.244C65.8156 104.683 66.0069 105.197 66.0675 105.784H64.4141C64.3232 105.375 64.1148 105.022 63.7891 104.727C63.4671 104.432 63.0353 104.284 62.4936 104.284C62.0201 104.284 61.6054 104.409 61.2493 104.659C60.897 104.905 60.6224 105.257 60.4254 105.716C60.2285 106.17 60.13 106.708 60.13 107.329C60.13 107.966 60.2266 108.515 60.4197 108.977C60.6129 109.439 60.8857 109.797 61.2379 110.051C61.594 110.305 62.0125 110.432 62.4936 110.432C62.8156 110.432 63.1072 110.373 63.3686 110.255C63.6338 110.134 63.8554 109.962 64.0334 109.738C64.2152 109.515 64.3421 109.246 64.4141 108.932H66.0675C66.0069 109.496 65.8232 110 65.5163 110.443C65.2095 110.886 64.7985 111.235 64.2834 111.488C63.772 111.742 63.1716 111.869 62.4822 111.869ZM69.5831 106.511V111.693H67.8842V100.057H69.5604V104.386H69.6683C69.8729 103.916 70.1854 103.543 70.6058 103.267C71.0263 102.99 71.5755 102.852 72.2536 102.852C72.852 102.852 73.3748 102.975 73.8217 103.221C74.2725 103.467 74.621 103.835 74.8672 104.324C75.1172 104.808 75.2422 105.414 75.2422 106.142V111.693H73.5433V106.346C73.5433 105.706 73.3786 105.21 73.049 104.858C72.7195 104.502 72.2611 104.324 71.674 104.324C71.2725 104.324 70.9126 104.409 70.5945 104.579C70.2801 104.75 70.032 105 69.8501 105.329C69.6721 105.655 69.5831 106.049 69.5831 106.511ZM81.1854 111.869C80.3672 111.869 79.6532 111.682 79.0433 111.307C78.4335 110.932 77.96 110.407 77.6229 109.733C77.2857 109.058 77.1172 108.271 77.1172 107.369C77.1172 106.464 77.2857 105.672 77.6229 104.994C77.96 104.316 78.4335 103.789 79.0433 103.414C79.6532 103.039 80.3672 102.852 81.1854 102.852C82.0036 102.852 82.7176 103.039 83.3274 103.414C83.9373 103.789 84.4107 104.316 84.7479 104.994C85.085 105.672 85.2536 106.464 85.2536 107.369C85.2536 108.271 85.085 109.058 84.7479 109.733C84.4107 110.407 83.9373 110.932 83.3274 111.307C82.7176 111.682 82.0036 111.869 81.1854 111.869ZM81.1911 110.443C81.7214 110.443 82.1607 110.303 82.5092 110.022C82.8577 109.742 83.1153 109.369 83.282 108.903C83.4524 108.437 83.5376 107.924 83.5376 107.363C83.5376 106.807 83.4524 106.295 83.282 105.829C83.1153 105.36 82.8577 104.983 82.5092 104.699C82.1607 104.414 81.7214 104.272 81.1911 104.272C80.657 104.272 80.2138 104.414 79.8615 104.699C79.513 104.983 79.2536 105.36 79.0831 105.829C78.9164 106.295 78.8331 106.807 78.8331 107.363C78.8331 107.924 78.9164 108.437 79.0831 108.903C79.2536 109.369 79.513 109.742 79.8615 110.022C80.2138 110.303 80.657 110.443 81.1911 110.443ZM90.826 111.869C90.0078 111.869 89.2938 111.682 88.6839 111.307C88.0741 110.932 87.6006 110.407 87.2635 109.733C86.9264 109.058 86.7578 108.271 86.7578 107.369C86.7578 106.464 86.9264 105.672 87.2635 104.994C87.6006 104.316 88.0741 103.789 88.6839 103.414C89.2938 103.039 90.0078 102.852 90.826 102.852C91.6442 102.852 92.3582 103.039 92.968 103.414C93.5779 103.789 94.0514 104.316 94.3885 104.994C94.7256 105.672 94.8942 106.464 94.8942 107.369C94.8942 108.271 94.7256 109.058 94.3885 109.733C94.0514 110.407 93.5779 110.932 92.968 111.307C92.3582 111.682 91.6442 111.869 90.826 111.869ZM90.8317 110.443C91.362 110.443 91.8014 110.303 92.1499 110.022C92.4983 109.742 92.7559 109.369 92.9226 108.903C93.093 108.437 93.1783 107.924 93.1783 107.363C93.1783 106.807 93.093 106.295 92.9226 105.829C92.7559 105.36 92.4983 104.983 92.1499 104.699C91.8014 104.414 91.362 104.272 90.8317 104.272C90.2976 104.272 89.8544 104.414 89.5021 104.699C89.1536 104.983 88.8942 105.36 88.7237 105.829C88.5571 106.295 88.4737 106.807 88.4737 107.363C88.4737 107.924 88.5571 108.437 88.7237 108.903C88.8942 109.369 89.1536 109.742 89.5021 110.022C89.8544 110.303 90.2976 110.443 90.8317 110.443ZM98.4893 100.057V111.693H96.7905V100.057H98.4893Z" fill="#020202"/>
</svg>
