<svg width="148" height="143" viewBox="0 0 148 143" fill="none" xmlns="http://www.w3.org/2000/svg">
<rect width="147.105" height="142.147" rx="8.26434" fill="#F7FAFC"/>
<path d="M92.892 50.8401V60.2715C92.892 69.7028 89.132 73.4838 79.6797 73.4838H68.358C67.1397 73.4838 66.0263 73.4209 64.9971 73.2738" stroke="#292D32" stroke-width="1.23965" stroke-linecap="round" stroke-linejoin="round"/>
<path d="M55.1455 59.8725V50.8401" stroke="#292D32" stroke-width="1.23965" stroke-linecap="round" stroke-linejoin="round"/>
<path d="M74.029 52.4786C77.873 52.4786 80.7087 49.3489 80.3306 45.505L78.9232 31.4734H69.1138L67.7065 45.505C67.3284 49.3489 70.1851 52.4786 74.029 52.4786Z" stroke="#292D32" stroke-width="1.23965" stroke-linecap="round" stroke-linejoin="round"/>
<path d="M87.262 52.4786C91.505 52.4786 94.6138 49.0337 94.1937 44.8116L93.6055 39.0352C92.8493 33.5739 90.7488 31.4734 85.2454 31.4734H78.8389L80.3093 46.1981C80.6874 49.6639 83.7961 52.4786 87.262 52.4786Z" stroke="#292D32" stroke-width="1.23965" stroke-linecap="round" stroke-linejoin="round"/>
<path d="M60.6702 52.4786C64.1361 52.4786 67.2658 49.6639 67.6019 46.1981L68.0641 41.556L69.0723 31.4734H62.6657C57.1624 31.4734 55.0619 33.5739 54.3057 39.0352L53.7175 44.8116C53.2974 49.0337 56.4272 52.4786 60.6702 52.4786Z" stroke="#292D32" stroke-width="1.23965" stroke-linecap="round" stroke-linejoin="round"/>
<path d="M67.6645 67.1822C67.6645 68.7576 67.2234 70.2491 66.4462 71.5094C66.0471 72.1816 65.564 72.7907 64.9968 73.2738C64.9338 73.3578 64.8708 73.4208 64.7868 73.4838C63.3164 74.8071 61.384 75.5843 59.2624 75.5843C56.6998 75.5843 54.4102 74.429 52.8978 72.6225C52.8558 72.5595 52.7929 72.5176 52.7509 72.4546C52.4988 72.1605 52.2677 71.8455 52.0787 71.5094C51.3015 70.2491 50.8604 68.7576 50.8604 67.1822C50.8604 64.5356 52.0787 62.162 54.0111 60.6286C54.3682 60.3345 54.7463 60.0825 55.1454 59.8725C56.3637 59.1793 57.7711 58.7802 59.2624 58.7802C61.363 58.7802 63.2534 59.5363 64.7237 60.8176C64.9758 61.0066 65.2069 61.2378 65.4169 61.4689C66.8033 62.9813 67.6645 64.9767 67.6645 67.1822Z" stroke="#292D32" stroke-width="1.23965" stroke-miterlimit="10" stroke-linecap="round" stroke-linejoin="round"/>
<path d="M62.3923 67.1402H56.1328" stroke="#292D32" stroke-width="1.23965" stroke-miterlimit="10" stroke-linecap="round" stroke-linejoin="round"/>
<path d="M59.2627 64.0735V70.354" stroke="#292D32" stroke-width="1.23965" stroke-miterlimit="10" stroke-linecap="round" stroke-linejoin="round"/>
<path d="M55.6953 103.113C55.6347 102.575 55.3847 102.159 54.9453 101.863C54.5059 101.564 53.9529 101.414 53.2862 101.414C52.8089 101.414 52.3961 101.49 52.0476 101.642C51.6991 101.789 51.4283 101.994 51.2351 102.255C51.0457 102.513 50.951 102.807 50.951 103.136C50.951 103.413 51.0154 103.651 51.1442 103.852C51.2768 104.053 51.4491 104.221 51.6612 104.358C51.8771 104.49 52.1082 104.602 52.3544 104.693C52.6006 104.78 52.8374 104.852 53.0646 104.909L54.201 105.204C54.5722 105.295 54.9529 105.418 55.343 105.574C55.7332 105.729 56.0949 105.933 56.4283 106.187C56.7616 106.441 57.0305 106.755 57.2351 107.13C57.4434 107.505 57.5476 107.954 57.5476 108.477C57.5476 109.136 57.3771 109.721 57.0362 110.233C56.6991 110.744 56.2086 111.147 55.5646 111.443C54.9245 111.738 54.1499 111.886 53.2408 111.886C52.3696 111.886 51.6158 111.748 50.9794 111.471C50.343 111.195 49.8449 110.803 49.4851 110.295C49.1252 109.784 48.9264 109.178 48.8885 108.477H50.6499C50.6839 108.897 50.8203 109.248 51.0589 109.528C51.3014 109.805 51.6101 110.011 51.9851 110.147C52.3639 110.28 52.7786 110.346 53.2294 110.346C53.7256 110.346 54.1669 110.269 54.5533 110.113C54.9434 109.954 55.2502 109.735 55.4737 109.454C55.6972 109.17 55.8089 108.839 55.8089 108.46C55.8089 108.115 55.7105 107.833 55.5135 107.613C55.3203 107.394 55.0571 107.212 54.7237 107.068C54.3942 106.924 54.0211 106.797 53.6044 106.687L52.2294 106.312C51.2976 106.058 50.5589 105.685 50.0135 105.193C49.4718 104.7 49.201 104.049 49.201 103.238C49.201 102.568 49.3828 101.983 49.7464 101.483C50.1101 100.983 50.6025 100.594 51.2237 100.318C51.8449 100.038 52.5457 99.8974 53.326 99.8974C54.1139 99.8974 54.8089 100.036 55.4112 100.312C56.0173 100.589 56.4946 100.969 56.843 101.454C57.1915 101.935 57.3733 102.488 57.3885 103.113H55.6953ZM59.5092 114.966V102.966H61.1683V104.38H61.3104C61.4089 104.199 61.5509 103.988 61.7365 103.75C61.9221 103.511 62.1797 103.303 62.5092 103.125C62.8388 102.943 63.2744 102.852 63.8161 102.852C64.5206 102.852 65.1494 103.03 65.7024 103.386C66.2554 103.742 66.6892 104.255 67.0036 104.926C67.3217 105.596 67.4808 106.403 67.4808 107.346C67.4808 108.289 67.3236 109.098 67.0092 109.772C66.6948 110.443 66.263 110.96 65.7138 111.324C65.1645 111.683 64.5376 111.863 63.8331 111.863C63.3028 111.863 62.8691 111.774 62.532 111.596C62.1986 111.418 61.9373 111.21 61.7479 110.971C61.5585 110.733 61.4126 110.521 61.3104 110.335H61.2081V114.966H59.5092ZM61.174 107.329C61.174 107.943 61.263 108.481 61.4411 108.943C61.6191 109.405 61.8767 109.767 62.2138 110.028C62.5509 110.286 62.9638 110.414 63.4524 110.414C63.96 110.414 64.3842 110.28 64.7251 110.011C65.0661 109.738 65.3236 109.369 65.4979 108.903C65.6759 108.437 65.7649 107.913 65.7649 107.329C65.7649 106.753 65.6778 106.236 65.5036 105.778C65.3331 105.32 65.0755 104.958 64.7308 104.693C64.3899 104.428 63.9638 104.295 63.4524 104.295C62.96 104.295 62.5433 104.422 62.2024 104.676C61.8653 104.93 61.6096 105.284 61.4354 105.738C61.2611 106.193 61.174 106.723 61.174 107.329ZM73.0604 111.869C72.2422 111.869 71.5282 111.682 70.9183 111.307C70.3085 110.932 69.835 110.407 69.4979 109.733C69.1607 109.058 68.9922 108.271 68.9922 107.369C68.9922 106.464 69.1607 105.672 69.4979 104.994C69.835 104.316 70.3085 103.789 70.9183 103.414C71.5282 103.039 72.2422 102.852 73.0604 102.852C73.8786 102.852 74.5926 103.039 75.2024 103.414C75.8123 103.789 76.2857 104.316 76.6229 104.994C76.96 105.672 77.1286 106.464 77.1286 107.369C77.1286 108.271 76.96 109.058 76.6229 109.733C76.2857 110.407 75.8123 110.932 75.2024 111.307C74.5926 111.682 73.8786 111.869 73.0604 111.869ZM73.0661 110.443C73.5964 110.443 74.0357 110.303 74.3842 110.022C74.7327 109.742 74.9903 109.369 75.157 108.903C75.3274 108.437 75.4126 107.924 75.4126 107.363C75.4126 106.807 75.3274 106.295 75.157 105.829C74.9903 105.36 74.7327 104.983 74.3842 104.699C74.0357 104.414 73.5964 104.272 73.0661 104.272C72.532 104.272 72.0888 104.414 71.7365 104.699C71.388 104.983 71.1286 105.36 70.9581 105.829C70.7914 106.295 70.7081 106.807 70.7081 107.363C70.7081 107.924 70.7914 108.437 70.9581 108.903C71.1286 109.369 71.388 109.742 71.7365 110.022C72.0888 110.303 72.532 110.443 73.0661 110.443ZM79.0249 111.693V102.966H80.6669V104.352H80.7578C80.9169 103.882 81.1972 103.513 81.5987 103.244C82.004 102.971 82.4624 102.835 82.9737 102.835C83.0798 102.835 83.2048 102.839 83.3487 102.846C83.4964 102.854 83.612 102.863 83.6953 102.875V104.5C83.6271 104.481 83.5059 104.46 83.3317 104.437C83.1574 104.411 82.9832 104.397 82.8089 104.397C82.4074 104.397 82.0495 104.483 81.7351 104.653C81.4245 104.82 81.1783 105.053 80.9964 105.352C80.8146 105.647 80.7237 105.985 80.7237 106.363V111.693H79.0249ZM89.755 102.966V104.329H84.9879V102.966H89.755ZM86.2663 100.875H87.9652V109.13C87.9652 109.46 88.0144 109.708 88.1129 109.875C88.2114 110.038 88.3383 110.149 88.4936 110.21C88.6527 110.267 88.825 110.295 89.0107 110.295C89.147 110.295 89.2663 110.286 89.3686 110.267C89.4709 110.248 89.5504 110.233 89.6072 110.221L89.9141 111.625C89.8156 111.663 89.6754 111.7 89.4936 111.738C89.3118 111.78 89.0845 111.803 88.8118 111.807C88.3648 111.814 87.9482 111.735 87.5618 111.568C87.1754 111.401 86.8629 111.144 86.6243 110.795C86.3857 110.447 86.2663 110.009 86.2663 109.483V100.875ZM98.0334 105.096L96.4936 105.369C96.4292 105.172 96.3269 104.985 96.1868 104.807C96.0504 104.628 95.8648 104.483 95.63 104.369C95.3951 104.255 95.1016 104.199 94.7493 104.199C94.2682 104.199 93.8667 104.307 93.5447 104.522C93.2228 104.735 93.0618 105.009 93.0618 105.346C93.0618 105.638 93.1697 105.873 93.3857 106.051C93.6016 106.229 93.95 106.375 94.4311 106.488L95.8175 106.807C96.6205 106.992 97.219 107.278 97.6129 107.664C98.0069 108.051 98.2038 108.553 98.2038 109.17C98.2038 109.693 98.0523 110.159 97.7493 110.568C97.45 110.973 97.0315 111.291 96.4936 111.522C95.9595 111.753 95.3402 111.869 94.6357 111.869C93.6584 111.869 92.861 111.661 92.2436 111.244C91.6262 110.824 91.2474 110.227 91.1072 109.454L92.7493 109.204C92.8516 109.632 93.0618 109.956 93.38 110.176C93.6982 110.392 94.1129 110.5 94.6243 110.5C95.1811 110.5 95.6262 110.384 95.9595 110.153C96.2929 109.918 96.4595 109.632 96.4595 109.295C96.4595 109.022 96.3572 108.793 96.1527 108.608C95.9519 108.422 95.6432 108.282 95.2266 108.187L93.7493 107.863C92.9349 107.678 92.3326 107.382 91.9425 106.977C91.5561 106.572 91.3629 106.058 91.3629 105.437C91.3629 104.922 91.5069 104.471 91.7947 104.085C92.0826 103.699 92.4804 103.397 92.9879 103.182C93.4955 102.962 94.0769 102.852 94.7322 102.852C95.6754 102.852 96.4179 103.057 96.9595 103.466C97.5012 103.871 97.8591 104.414 98.0334 105.096Z" fill="#020202"/>
</svg>
