<svg width="25" height="24" viewBox="0 0 25 24" fill="none" xmlns="http://www.w3.org/2000/svg">
<g clip-path="url(#clip0_2509_19958)">
<path fill-rule="evenodd" clip-rule="evenodd" d="M23.7843 12C23.7843 5.69829 18.6577 0.571716 12.356 0.571716C6.05431 0.571716 0.927734 5.69829 0.927734 12C0.927734 18.3017 6.05431 23.4283 12.356 23.4283C18.6577 23.4283 23.7843 18.3026 23.7843 12ZM15.1272 6.42C14.4037 6.38572 14.1869 6.37972 12.356 6.37972C10.5252 6.37972 10.3074 6.38486 9.58573 6.41829C7.72573 6.50315 6.85916 7.38429 6.77431 9.22972C6.74259 9.95229 6.73402 10.1691 6.73402 12C6.73402 13.8309 6.74259 14.0486 6.77431 14.7703C6.86002 16.6114 7.72316 17.496 9.58573 17.5817C10.3083 17.6151 10.5252 17.622 12.356 17.622C14.1877 17.622 14.4046 17.6134 15.1272 17.5817C16.988 17.4969 17.8529 16.6131 17.9386 14.7703C17.9712 14.0477 17.978 13.8309 17.978 12C17.978 10.1691 17.9712 9.95315 17.9386 9.22972C17.8529 7.38514 16.9872 6.504 15.1272 6.41915V6.42ZM12.356 5.14286C10.4934 5.14286 10.2612 5.15143 9.52831 5.18572C7.03745 5.29972 5.65402 6.68143 5.54002 9.17229C5.50659 9.90515 5.49888 10.1383 5.49888 12.0009C5.49888 13.8626 5.50745 14.0957 5.54002 14.8277C5.65402 17.3177 7.03745 18.702 9.52831 18.816C10.2612 18.8494 10.4934 18.8571 12.356 18.8571C14.2186 18.8571 14.4517 18.8486 15.1846 18.816C17.6712 18.702 19.0597 17.3203 19.172 14.8277C19.2054 14.0957 19.2132 13.8626 19.2132 12C19.2132 10.1383 19.2046 9.90515 19.172 9.17229C19.0606 6.68486 17.6763 5.298 15.1846 5.18486C14.4517 5.15143 14.2186 5.14286 12.356 5.14286ZM8.83488 12C8.83488 11.0661 9.20585 10.1705 9.8662 9.51018C10.5265 8.84984 11.4222 8.47886 12.356 8.47886C13.2899 8.47886 14.1855 8.84984 14.8458 9.51018C15.5062 10.1705 15.8772 11.0661 15.8772 12C15.8772 12.9339 15.5062 13.8295 14.8458 14.4898C14.1855 15.1502 13.2899 15.5211 12.356 15.5211C11.4222 15.5211 10.5265 15.1502 9.8662 14.4898C9.20585 13.8295 8.83488 12.9339 8.83488 12ZM12.356 14.286C11.7497 14.286 11.1683 14.0452 10.7396 13.6164C10.3109 13.1877 10.07 12.6063 10.07 12C10.07 11.3937 10.3109 10.8123 10.7396 10.3836C11.1683 9.95485 11.7497 9.714 12.356 9.714C12.6626 9.70372 12.9681 9.75522 13.2544 9.86545C13.5407 9.97568 13.8019 10.1424 14.0224 10.3556C14.2429 10.5689 14.4183 10.8243 14.5381 11.1068C14.6578 11.3892 14.7196 11.6928 14.7196 11.9996C14.7196 12.3063 14.6578 12.61 14.5381 12.8924C14.4183 13.1748 14.2429 13.4303 14.0224 13.6435C13.8019 13.8568 13.5407 14.0235 13.2544 14.1337C12.9681 14.2439 12.6626 14.2954 12.356 14.2851V14.286ZM15.1932 8.34086C15.1932 8.2328 15.2144 8.1258 15.2558 8.02597C15.2972 7.92613 15.3578 7.83542 15.4342 7.75901C15.5106 7.6826 15.6013 7.62199 15.7011 7.58064C15.801 7.53929 15.908 7.518 16.016 7.518C16.1241 7.518 16.2311 7.53929 16.3309 7.58064C16.4307 7.62199 16.5215 7.6826 16.5979 7.75901C16.6743 7.83542 16.7349 7.92613 16.7762 8.02597C16.8176 8.1258 16.8389 8.2328 16.8389 8.34086C16.8389 8.55909 16.7522 8.76839 16.5979 8.92271C16.4436 9.07702 16.2343 9.16372 16.016 9.16372C15.7978 9.16372 15.5885 9.07702 15.4342 8.92271C15.2799 8.76839 15.1932 8.55909 15.1932 8.34086Z" fill="#010004"/>
</g>
<defs>
<clipPath id="clip0_2509_19958">
<rect width="24" height="24" fill="white" transform="translate(0.356445)"/>
</clipPath>
</defs>
</svg>
