<svg width="25" height="24" viewBox="0 0 25 24" fill="none" xmlns="http://www.w3.org/2000/svg">
<g clip-path="url(#clip0_2509_19960)">
<path d="M12.0342 24C18.6616 24 24.0342 18.6274 24.0342 12C24.0342 5.37258 18.6616 0 12.0342 0C5.40676 0 0.0341797 5.37258 0.0341797 12C0.0341797 18.6274 5.40676 24 12.0342 24Z" fill="#010004"/>
<path d="M20.0384 12C20.0408 12.1644 20.0204 12.3285 19.9772 12.4872C19.934 12.6459 19.8686 12.798 19.7828 12.9384C19.6973 13.0788 19.5923 13.2066 19.4711 13.3179C19.3499 13.4292 19.2137 13.5228 19.0664 13.596C19.0697 13.6398 19.0724 13.6839 19.0739 13.728C19.0775 13.816 19.0775 13.904 19.0739 13.992C19.0724 14.0361 19.0697 14.0802 19.0664 14.124C19.0664 16.812 15.9344 18.996 12.0704 18.996C8.20636 18.996 5.07436 16.812 5.07436 14.124C5.07106 14.0802 5.06836 14.0361 5.06686 13.992C5.06325 13.904 5.06325 13.816 5.06686 13.728C5.06836 13.6839 5.07106 13.6398 5.07436 13.596C4.84359 13.4899 4.63862 13.335 4.47364 13.1419C4.30866 12.9487 4.1876 12.7221 4.11886 12.4776C4.05023 12.233 4.03561 11.9764 4.07601 11.7255C4.11642 11.4747 4.21088 11.2357 4.35286 11.025C4.49471 10.8143 4.68069 10.6371 4.89791 10.5055C5.11512 10.3739 5.35837 10.2912 5.61076 10.263C5.86319 10.2347 6.11874 10.2616 6.35973 10.3419C6.60071 10.4222 6.82135 10.554 7.00636 10.728C7.34981 10.4952 7.70965 10.2876 8.08306 10.1067C8.45656 9.9261 8.84266 9.77249 9.23836 9.64769C9.63406 9.52289 10.0385 9.42719 10.448 9.36089C10.8575 9.29459 11.2715 9.25829 11.6864 9.25199L12.5744 5.088C12.5843 5.0397 12.6038 4.9941 12.6317 4.9533C12.6593 4.9128 12.695 4.878 12.7361 4.8513C12.7775 4.8246 12.8237 4.8063 12.8723 4.7973C12.9206 4.7886 12.9704 4.7895 13.0184 4.8L15.9584 5.388C16.2551 4.8783 16.8779 4.6599 17.4278 4.8723C17.9777 5.0847 18.2921 5.66519 18.1691 6.24179C18.0464 6.81839 17.5226 7.22039 16.934 7.19009C16.3451 7.15979 15.8654 6.70619 15.8024 6.11999L13.2344 5.57999L12.4544 9.32399C12.8642 9.33269 13.2731 9.37109 13.6775 9.43859C14.4873 9.57359 15.2734 9.82478 16.0115 10.1844C16.3801 10.3638 16.7353 10.5695 17.0744 10.8C17.3181 10.5659 17.6245 10.4075 17.9564 10.3437C18.2882 10.2797 18.6316 10.3132 18.9449 10.44C19.2582 10.5668 19.5281 10.7815 19.7222 11.0583C19.9162 11.3351 20.026 11.6622 20.0384 12ZM8.12956 13.6593C8.19016 13.8048 8.27836 13.9371 8.38996 14.0484C8.50126 14.16 8.63356 14.2482 8.77906 14.3088C8.9247 14.369 9.08076 14.4 9.23836 14.4C9.72376 14.4 10.1612 14.1075 10.3472 13.6593C10.5329 13.2108 10.43 12.6948 10.0868 12.3516C9.74356 12.0084 9.22756 11.9055 8.77906 12.0912C8.33086 12.2772 8.03836 12.7146 8.03836 13.2C8.03836 13.3575 8.06926 13.5135 8.12956 13.6593ZM15.0026 16.5399C15.0641 16.4799 15.0992 16.398 15.1004 16.3122C15.1016 16.2261 15.0683 16.1433 15.0083 16.0818C14.9483 16.0203 14.8664 15.9852 14.7806 15.984C14.6945 15.9828 14.6117 16.0161 14.5424 16.068C14.3619 16.1974 14.1708 16.3113 13.9712 16.4085C13.7715 16.5057 13.5639 16.5859 13.3508 16.6482C13.1378 16.7103 12.9197 16.7544 12.6992 16.7799C12.4784 16.8054 12.2561 16.812 12.0344 16.8C11.813 16.8099 11.591 16.8009 11.3711 16.7733C11.1511 16.746 10.9339 16.6998 10.7219 16.6353C10.5095 16.5711 10.3034 16.4889 10.1051 16.3899C9.90676 16.2909 9.71716 16.1751 9.53836 16.044C9.47626 15.993 9.39736 15.9669 9.31696 15.9708C9.23656 15.9747 9.16066 16.0086 9.10366 16.0653C9.04696 16.1223 9.01306 16.1982 9.00916 16.2786C9.00526 16.359 9.03136 16.4379 9.08236 16.5C9.29326 16.659 9.51736 16.7994 9.75226 16.92C9.98716 17.0406 10.2323 17.1405 10.4843 17.2191C10.7363 17.2977 10.9946 17.3544 11.2565 17.3889C11.5184 17.4231 11.7827 17.4348 12.0464 17.424C12.3101 17.4348 12.5744 17.4231 12.8363 17.3889C13.3608 17.3199 13.8696 17.1613 14.3405 16.92C14.5754 16.7994 14.7995 16.659 15.0104 16.5L15.0026 16.5399ZM14.7824 14.496C14.945 14.4978 15.1064 14.4663 15.2567 14.4039C15.407 14.3412 15.5429 14.2488 15.6563 14.1321C15.7697 14.0154 15.8579 13.8768 15.9161 13.7247C15.9743 13.5728 16.0009 13.4106 15.9944 13.248C15.9944 12.7626 15.7019 12.3252 15.2537 12.1392C14.8052 11.9535 14.2892 12.0564 13.946 12.3996C13.6028 12.7428 13.4999 13.2588 13.6856 13.7073C13.8716 14.1555 14.309 14.448 14.7944 14.448L14.7824 14.496Z" fill="white"/>
</g>
<defs>
<clipPath id="clip0_2509_19960">
<rect width="24" height="24" fill="white" transform="translate(0.0341797)"/>
</clipPath>
</defs>
</svg>
