<svg width="25" height="24" viewBox="0 0 25 24" fill="none" xmlns="http://www.w3.org/2000/svg">
<g clip-path="url(#clip0_2509_19956)">
<path fill-rule="evenodd" clip-rule="evenodd" d="M24.1066 12C24.1066 5.69829 18.98 0.571716 12.6783 0.571716C6.37657 0.571716 1.25 5.69829 1.25 12C1.25 18.3017 6.37657 23.4283 12.6783 23.4283C18.98 23.4283 24.1066 18.3026 24.1066 12ZM18.4906 8.76086C19.0485 8.69462 19.5934 8.54525 20.1071 8.31772C19.7299 8.88343 19.2541 9.37671 18.7023 9.774C18.8806 13.7314 15.9294 18.144 10.7051 18.144C9.1761 18.1456 7.67897 17.7067 6.39286 16.8797C7.88154 17.0581 9.38023 16.6389 10.5603 15.714C9.97322 15.7027 9.40434 15.5083 8.93317 15.1579C8.46199 14.8075 8.11206 14.3187 7.93229 13.7597C8.35385 13.8406 8.78831 13.8242 9.20257 13.7117C7.85 13.44 6.91486 12.2203 6.94571 10.9174C7.32543 11.1283 7.75829 11.2551 8.21857 11.2697C7.62298 10.8716 7.20142 10.2615 7.03965 9.56363C6.87787 8.86574 6.98803 8.13242 7.34771 7.51286C8.05434 8.382 8.93579 9.09288 9.93489 9.59937C10.934 10.1059 12.0284 10.3966 13.1471 10.4529C13.0074 9.84984 13.0702 9.21759 13.3259 8.65385C13.5815 8.0901 14.0157 7.62627 14.5614 7.33406C15.1071 7.04186 15.7338 6.93755 16.3447 7.03726C16.9556 7.13698 17.5167 7.43516 17.9411 7.88572C18.5714 7.76189 19.1758 7.53113 19.7283 7.20343C19.5179 7.85511 19.0781 8.40824 18.4906 8.76V8.76086Z" fill="#010004"/>
</g>
<defs>
<clipPath id="clip0_2509_19956">
<rect width="24" height="24" fill="white" transform="translate(0.677734)"/>
</clipPath>
</defs>
</svg>
